<?xml version="1.0" encoding="UTF-8" standalone="no"?>
<svg xmlns:xlink="http://www.w3.org/1999/xlink" height="20.7px" width="23.0px" xmlns="http://www.w3.org/2000/svg">
  <g transform="matrix(1.0, 0.0, 0.0, 1.0, 11.5, 10.3)">
    <path d="M-5.95 -6.55 L-8.4 -9.3 -7.0 -10.3 -4.15 -8.0 -5.95 -6.55" fill="#999999" fill-rule="evenodd" stroke="none"/>
    <path d="M-10.7 -5.15 L-8.4 -9.3 -5.95 -6.55 -7.7 -3.5 -10.7 -5.15" fill="#cccccc" fill-rule="evenodd" stroke="none"/>
    <path d="M-11.5 0.05 L-10.7 -5.15 -7.7 -3.5 -8.15 0.05 -11.5 0.05" fill="#333333" fill-rule="evenodd" stroke="none"/>
    <path d="M-3.4 -3.65 L-5.95 -6.55 -4.15 -8.0 -2.75 -7.55 -1.7 -4.95 -3.4 -3.65" fill="#cccccc" fill-rule="evenodd" stroke="none"/>
    <path d="M-1.7 -4.95 L-2.75 -7.55 -1.45 -7.2 -1.45 -5.1 -1.7 -4.95" fill="#333333" fill-rule="evenodd" stroke="none"/>
    <path d="M-1.45 -5.1 L-1.45 -7.2 0.0 -7.15 0.0 -5.25 -1.45 -5.1" fill="#999999" fill-rule="evenodd" stroke="none"/>
    <path d="M-4.4 -1.9 L-7.7 -3.5 -5.95 -6.6 -3.4 -3.65 -4.4 -1.9" fill="#ffffff" fill-rule="evenodd" stroke="none"/>
    <path d="M-8.15 0.05 L-7.7 -3.5 -4.4 -1.9 -4.7 0.05 -8.15 0.05" fill="#999999" fill-rule="evenodd" stroke="none"/>
    <path d="M-4.7 0.05 L-4.4 -1.9 0.0 0.05 -4.7 0.05" fill="#333333" fill-rule="evenodd" stroke="none"/>
    <path d="M-4.4 -1.9 L-3.4 -3.65 0.0 0.05 -4.4 -1.9" fill="#cccccc" fill-rule="evenodd" stroke="none"/>
    <path d="M-3.4 -3.65 L-1.7 -4.95 0.0 0.05 -3.4 -3.65" fill="#333333" fill-rule="evenodd" stroke="none"/>
    <path d="M-1.7 -4.95 L-1.45 -5.1 0.0 0.05 -1.7 -4.95" fill="#999999" fill-rule="evenodd" stroke="none"/>
    <path d="M0.0 0.05 L-1.45 -5.1 0.0 -5.25 0.0 0.05" fill="#ffffff" fill-rule="evenodd" stroke="none"/>
    <path d="M-4.15 8.05 L-7.0 10.4 -8.4 9.35 -5.95 6.65 -4.15 8.05" fill="#cccccc" fill-rule="evenodd" stroke="none"/>
    <path d="M-7.7 3.6 L-5.95 6.65 -8.4 9.4 -10.7 5.25 -7.7 3.6" fill="#000000" fill-rule="evenodd" stroke="none"/>
    <path d="M-8.15 0.0 L-7.7 3.55 -10.7 5.2 -11.5 0.0 -8.15 0.0" fill="#999999" fill-rule="evenodd" stroke="none"/>
    <path d="M-1.7 5.05 L-2.75 7.65 -4.15 8.05 -5.95 6.65 -3.4 3.75 -1.7 5.05" fill="#999999" fill-rule="evenodd" stroke="none"/>
    <path d="M-1.45 5.2 L-1.45 7.3 -2.75 7.65 -1.7 5.0 -1.45 5.2" fill="#000000" fill-rule="evenodd" stroke="none"/>
    <path d="M0.0 5.35 L0.0 7.25 -1.45 7.3 -1.45 5.2 0.0 5.35" fill="#333333" fill-rule="evenodd" stroke="none"/>
    <path d="M-3.4 3.75 L-5.95 6.7 -7.7 3.6 -4.4 2.0 -3.4 3.75" fill="#333333" fill-rule="evenodd" stroke="none"/>
    <path d="M-4.7 0.05 L-4.4 2.0 -7.7 3.6 -8.15 0.05 -4.7 0.05" fill="#cccccc" fill-rule="evenodd" stroke="none"/>
    <path d="M0.0 0.05 L-4.4 2.0 -4.7 0.05 0.0 0.05" fill="#999999" fill-rule="evenodd" stroke="none"/>
    <path d="M0.0 0.05 L-3.4 3.75 -4.4 2.0 0.0 0.05" fill="#ffffff" fill-rule="evenodd" stroke="none"/>
    <path d="M0.0 0.05 L-1.7 5.05 -3.4 3.75 0.0 0.05" fill="#cccccc" fill-rule="evenodd" stroke="none"/>
    <path d="M0.0 0.05 L-1.45 5.2 -1.7 5.05 0.0 0.05" fill="#333333" fill-rule="evenodd" stroke="none"/>
    <path d="M0.0 5.35 L-1.45 5.2 0.0 0.05 0.0 5.35" fill="#999999" fill-rule="evenodd" stroke="none"/>
    <path d="M4.15 -7.95 L7.0 -10.3 8.4 -9.25 5.95 -6.55 4.15 -7.95" fill="#cccccc" fill-rule="evenodd" stroke="none"/>
    <path d="M7.7 -3.5 L5.95 -6.55 8.4 -9.3 10.7 -5.15 7.7 -3.5" fill="#333333" fill-rule="evenodd" stroke="none"/>
    <path d="M8.15 0.05 L7.7 -3.5 10.7 -5.15 11.5 0.05 8.15 0.05" fill="#999999" fill-rule="evenodd" stroke="none"/>
    <path d="M1.7 -4.95 L2.75 -7.55 4.15 -7.95 5.95 -6.55 3.4 -3.65 1.7 -4.95" fill="#999999" fill-rule="evenodd" stroke="none"/>
    <path d="M1.45 -5.1 L1.45 -7.2 2.75 -7.6 1.7 -4.95 1.45 -5.1" fill="#000000" fill-rule="evenodd" stroke="none"/>
    <path d="M0.0 -5.25 L0.0 -7.15 1.45 -7.2 1.45 -5.1 0.0 -5.25" fill="#cccccc" fill-rule="evenodd" stroke="none"/>
    <path d="M3.4 -3.65 L5.95 -6.6 7.7 -3.5 4.4 -1.9 3.4 -3.65" fill="#ffffff" fill-rule="evenodd" stroke="none"/>
    <path d="M4.7 0.05 L4.4 -1.9 7.7 -3.5 8.15 0.05 4.7 0.05" fill="#cccccc" fill-rule="evenodd" stroke="none"/>
    <path d="M0.0 0.05 L4.4 -1.9 4.7 0.05 0.0 0.05" fill="#999999" fill-rule="evenodd" stroke="none"/>
    <path d="M0.0 0.05 L3.4 -3.65 4.4 -1.9 0.0 0.05" fill="#cccccc" fill-rule="evenodd" stroke="none"/>
    <path d="M0.0 0.05 L1.7 -4.95 3.4 -3.65 0.0 0.05" fill="#333333" fill-rule="evenodd" stroke="none"/>
    <path d="M0.0 0.05 L1.45 -5.1 1.7 -4.95 0.0 0.05" fill="#cccccc" fill-rule="evenodd" stroke="none"/>
    <path d="M0.0 -5.25 L1.45 -5.1 0.0 0.05 0.0 -5.25" fill="#333333" fill-rule="evenodd" stroke="none"/>
    <path d="M5.95 6.65 L8.4 9.4 7.0 10.4 4.15 8.1 5.95 6.65" fill="#999999" fill-rule="evenodd" stroke="none"/>
    <path d="M10.7 5.25 L8.4 9.4 5.95 6.65 7.7 3.6 10.7 5.25" fill="#cccccc" fill-rule="evenodd" stroke="none"/>
    <path d="M11.5 0.05 L10.7 5.25 7.7 3.6 8.15 0.05 11.5 0.05" fill="#333333" fill-rule="evenodd" stroke="none"/>
    <path d="M3.4 3.75 L5.95 6.65 4.15 8.1 2.75 7.65 1.7 5.05 3.4 3.75" fill="#333333" fill-rule="evenodd" stroke="none"/>
    <path d="M1.7 5.05 L2.75 7.65 1.45 7.3 1.45 5.2 1.7 5.05" fill="#cccccc" fill-rule="evenodd" stroke="none"/>
    <path d="M1.45 5.2 L1.45 7.3 0.0 7.25 0.0 5.35 1.45 5.2" fill="#999999" fill-rule="evenodd" stroke="none"/>
    <path d="M4.4 2.0 L7.7 3.6 5.95 6.7 3.4 3.75 4.4 2.0" fill="#000000" fill-rule="evenodd" stroke="none"/>
    <path d="M8.15 0.05 L7.7 3.6 4.4 2.0 4.7 0.05 8.15 0.05" fill="#999999" fill-rule="evenodd" stroke="none"/>
    <path d="M4.7 0.05 L4.4 2.0 0.0 0.05 4.7 0.05" fill="#333333" fill-rule="evenodd" stroke="none"/>
    <path d="M4.4 2.0 L3.4 3.75 0.0 0.05 4.4 2.0" fill="#999999" fill-rule="evenodd" stroke="none"/>
    <path d="M3.4 3.75 L1.7 5.05 0.0 0.05 3.4 3.75" fill="#cccccc" fill-rule="evenodd" stroke="none"/>
    <path d="M1.7 5.05 L1.45 5.2 0.0 0.05 1.7 5.05" fill="#333333" fill-rule="evenodd" stroke="none"/>
    <path d="M0.0 0.05 L1.45 5.2 0.0 5.35 0.0 0.05" fill="#ffffff" fill-rule="evenodd" stroke="none"/>
  </g>
</svg>
