<?xml version="1.0" encoding="UTF-8" standalone="no"?>
<svg xmlns:xlink="http://www.w3.org/1999/xlink" height="23.5px" width="18.65px" xmlns="http://www.w3.org/2000/svg">
  <g transform="matrix(1.0, 0.0, 0.0, 1.0, 9.35, 11.75)">
    <path d="M-0.05 -3.95 L0.05 -11.75 2.2 -3.95 -0.05 -3.95" fill="#666666" fill-rule="evenodd" stroke="none"/>
    <path d="M2.2 -3.9 L0.05 -11.7 5.05 -3.9 2.2 -3.9" fill="#cdcdcd" fill-rule="evenodd" stroke="none"/>
    <path d="M2.2 -3.95 L5.05 -3.9 3.85 -1.35 2.2 -3.95" fill="#000000" fill-rule="evenodd" stroke="none"/>
    <path d="M3.85 -1.35 L5.05 -3.95 6.25 -1.35 3.85 -1.35" fill="#666666" fill-rule="evenodd" stroke="none"/>
    <path d="M-0.05 -1.4 L2.2 -3.95 3.85 -1.4 -0.05 -1.4" fill="#a7a7a7" fill-rule="evenodd" stroke="none"/>
    <path d="M3.85 -1.4 L6.25 -1.35 5.7 2.0 3.85 -1.4" fill="#cdcdcd" fill-rule="evenodd" stroke="none"/>
    <path d="M5.7 1.95 L6.2 -1.4 8.2 1.95 5.7 1.95" fill="#666666" fill-rule="evenodd" stroke="none"/>
    <path d="M2.15 1.95 L3.85 -1.4 5.65 1.95 2.15 1.95" fill="#a7a7a7" fill-rule="evenodd" stroke="none"/>
    <path d="M2.15 1.95 L-0.05 -1.35 3.85 -1.4 2.15 1.95" fill="#cdcdcd" fill-rule="evenodd" stroke="none"/>
    <path d="M7.2 5.2 L5.65 1.95 8.2 1.95 7.2 5.2" fill="#a7a7a7" fill-rule="evenodd" stroke="none"/>
    <path d="M7.2 5.2 L8.2 1.95 9.3 5.2 7.2 5.2" fill="#cdcdcd" fill-rule="evenodd" stroke="none"/>
    <path d="M4.7 5.2 L5.65 1.95 Q5.65 1.95 6.5 3.7 6.85 4.45 7.25 5.2 L4.7 5.2" fill="#666666" fill-rule="evenodd" stroke="none"/>
    <path d="M2.15 1.95 L5.65 1.95 4.7 5.2 2.15 1.95" fill="#ffffff" fill-rule="evenodd" stroke="none"/>
    <path d="M-0.05 5.2 L2.15 1.95 4.7 5.2 -0.05 5.2" fill="#666666" fill-rule="evenodd" stroke="none"/>
    <path d="M8.95 7.9 L7.2 5.2 9.3 5.2 8.95 7.9" fill="#666666" fill-rule="evenodd" stroke="none"/>
    <path d="M6.5 7.85 L7.2 5.2 8.95 7.85 6.5 7.85" fill="#a7a7a7" fill-rule="evenodd" stroke="none"/>
    <path d="M4.7 5.2 L7.2 5.2 6.5 7.85 4.7 5.2" fill="#cdcdcd" fill-rule="evenodd" stroke="none"/>
    <path d="M2.85 7.85 L4.7 5.2 6.5 7.85 2.85 7.85" fill="#666666" fill-rule="evenodd" stroke="none"/>
    <path d="M0.0 5.2 L4.7 5.2 2.85 7.85 0.0 5.2" fill="#a7a7a7" fill-rule="evenodd" stroke="none"/>
    <path d="M6.5 7.85 L8.95 7.85 7.25 10.05 6.5 7.85" fill="#cdcdcd" fill-rule="evenodd" stroke="none"/>
    <path d="M4.9 10.0 L6.55 7.85 7.25 10.05 4.9 10.0" fill="#666666" fill-rule="evenodd" stroke="none"/>
    <path d="M2.85 7.85 L6.55 7.85 4.9 10.05 2.85 7.85" fill="#cdcdcd" fill-rule="evenodd" stroke="none"/>
    <path d="M2.85 7.85 L6.55 7.85 4.9 10.05 2.85 7.85 Z" fill="none" stroke="#000000" stroke-linecap="round" stroke-linejoin="round" stroke-width="1.0"/>
    <path d="M4.9 10.05 L7.25 10.05 3.8 11.6 4.9 10.05" fill="#cdcdcd" fill-rule="evenodd" stroke="none"/>
    <path d="M-0.05 10.0 L2.85 7.85 4.9 10.0 -0.05 10.0" fill="#000000" fill-rule="evenodd" stroke="none"/>
    <path d="M0.0 11.75 L4.95 10.05 3.8 11.6 0.0 11.75" fill="#a7a7a7" fill-rule="evenodd" stroke="none"/>
    <path d="M0.0 10.0 L4.9 10.05 0.0 11.75 0.0 10.0" fill="#666666" fill-rule="evenodd" stroke="none"/>
    <path d="M-0.05 -3.95 L2.2 -3.95 -0.05 -1.35 -0.05 -3.95" fill="#cdcdcd" fill-rule="evenodd" stroke="none"/>
    <path d="M0.0 1.9 L-0.05 -1.35 2.15 1.95 0.0 1.9" fill="#a7a7a7" fill-rule="evenodd" stroke="none"/>
    <path d="M0.0 1.95 L2.15 1.95 -0.05 5.15 0.0 1.95" fill="#000000" fill-rule="evenodd" stroke="none"/>
    <path d="M0.0 7.85 L0.0 5.15 2.85 7.85 0.0 7.85" fill="#cdcdcd" fill-rule="evenodd" stroke="none"/>
    <path d="M0.0 7.85 L2.85 7.85 -0.05 10.05 0.0 7.85" fill="#666666" fill-rule="evenodd" stroke="none"/>
    <path d="M-2.2 -3.95 L0.05 -11.75 0.0 -3.95 -2.2 -3.95" fill="#a7a7a7" fill-rule="evenodd" stroke="none"/>
    <path d="M-5.1 -3.9 L0.05 -11.7 -2.25 -3.9 -5.1 -3.9" fill="#ffffff" fill-rule="evenodd" stroke="none"/>
    <path d="M-3.9 -1.35 L-5.1 -3.9 -2.25 -3.95 -3.9 -1.35" fill="#cdcdcd" fill-rule="evenodd" stroke="none"/>
    <path d="M-6.3 -1.35 L-5.1 -3.95 -3.9 -1.35 -6.3 -1.35" fill="#666666" fill-rule="evenodd" stroke="none"/>
    <path d="M-3.9 -1.4 L-2.25 -3.95 0.0 -1.35 -3.9 -1.4" fill="#000000" fill-rule="evenodd" stroke="none"/>
    <path d="M-5.75 2.0 L-6.3 -1.35 -3.9 -1.4 -5.75 2.0" fill="#a7a7a7" fill-rule="evenodd" stroke="none"/>
    <path d="M-8.25 1.95 L-6.25 -1.4 -5.75 1.95 -8.25 1.95" fill="#cdcdcd" fill-rule="evenodd" stroke="none"/>
    <path d="M-5.7 1.95 L-3.9 -1.4 -2.2 1.95 -5.7 1.95" fill="#cdcdcd" fill-rule="evenodd" stroke="none"/>
    <path d="M-3.9 -1.4 L0.0 -1.35 -2.2 1.95 -3.9 -1.4" fill="#666666" fill-rule="evenodd" stroke="none"/>
    <path d="M-8.25 1.95 L-5.7 1.95 -7.25 5.2 -8.25 1.95" fill="#a7a7a7" fill-rule="evenodd" stroke="none"/>
    <path d="M-9.35 5.2 L-8.25 1.95 -7.25 5.2 -9.35 5.2" fill="#cdcdcd" fill-rule="evenodd" stroke="none"/>
    <path d="M-7.3 5.2 L-5.75 1.95 -4.8 5.2 -7.3 5.2" fill="#666666" fill-rule="evenodd" stroke="none"/>
    <path d="M-4.75 5.2 L-5.7 1.95 -2.2 1.95 -4.75 5.2" fill="#ffffff" fill-rule="evenodd" stroke="none"/>
    <path d="M-4.75 5.2 L-2.2 1.95 0.0 5.2 -4.75 5.2" fill="#666666" fill-rule="evenodd" stroke="none"/>
    <path d="M-9.35 5.2 L-7.25 5.2 -9.0 7.9 -9.35 5.2" fill="#666666" fill-rule="evenodd" stroke="none"/>
    <path d="M-9.0 7.85 L-7.25 5.2 -6.55 7.85 -9.0 7.85" fill="#a7a7a7" fill-rule="evenodd" stroke="none"/>
    <path d="M-6.55 7.85 L-7.25 5.2 -4.75 5.2 -6.55 7.85" fill="#cdcdcd" fill-rule="evenodd" stroke="none"/>
    <path d="M-6.55 7.85 L-4.75 5.2 -2.9 7.85 -6.55 7.85" fill="#000000" fill-rule="evenodd" stroke="none"/>
    <path d="M-2.9 7.85 L-4.75 5.2 -0.05 5.15 -2.9 7.85" fill="#a7a7a7" fill-rule="evenodd" stroke="none"/>
    <path d="M-7.3 10.05 L-9.0 7.85 -6.55 7.85 -7.3 10.05" fill="#666666" fill-rule="evenodd" stroke="none"/>
    <path d="M-7.3 10.05 L-6.6 7.85 -4.95 10.0 -7.3 10.05" fill="#ffffff" fill-rule="evenodd" stroke="none"/>
    <path d="M-4.95 10.0 L-6.55 7.85 -2.85 7.85 -4.95 10.0" fill="#cdcdcd" fill-rule="evenodd" stroke="none"/>
    <path d="M-4.95 10.0 L-6.55 7.85 -2.85 7.85 -4.95 10.0 Z" fill="none" stroke="#000000" stroke-linecap="round" stroke-linejoin="round" stroke-width="1.0"/>
    <path d="M-3.85 11.6 L-7.3 10.05 -4.95 10.0 -3.85 11.6" fill="#666666" fill-rule="evenodd" stroke="none"/>
    <path d="M-4.95 10.0 L-2.9 7.85 0.0 10.0 -4.95 10.0" fill="#a7a7a7" fill-rule="evenodd" stroke="none"/>
    <path d="M-3.85 11.6 L-5.0 10.0 -0.05 11.75 -3.85 11.6" fill="#a7a7a7" fill-rule="evenodd" stroke="none"/>
    <path d="M0.0 11.75 L-5.0 10.0 0.0 10.0 0.0 11.75" fill="#cdcdcd" fill-rule="evenodd" stroke="none"/>
    <path d="M0.0 -1.35 L-2.25 -3.95 -0.05 -3.95 0.0 -1.35" fill="#cdcdcd" fill-rule="evenodd" stroke="none"/>
    <path d="M-2.2 1.95 L0.0 -1.35 -0.05 1.9 -2.2 1.95" fill="#a7a7a7" fill-rule="evenodd" stroke="none"/>
    <path d="M0.0 5.15 L-2.2 1.95 -0.05 1.95 0.0 5.15" fill="#000000" fill-rule="evenodd" stroke="none"/>
    <path d="M-2.9 7.85 L-0.05 5.15 -0.05 7.85 -2.9 7.85" fill="#cdcdcd" fill-rule="evenodd" stroke="none"/>
    <path d="M0.0 10.0 L-2.9 7.85 -0.05 7.85 0.0 10.0" fill="#666666" fill-rule="evenodd" stroke="none"/>
  </g>
</svg>
