<?xml version="1.0" encoding="UTF-8" standalone="no"?>
<svg xmlns:xlink="http://www.w3.org/1999/xlink" height="23.0px" width="23.0px" xmlns="http://www.w3.org/2000/svg">
  <g transform="matrix(1.0, 0.0, 0.0, 1.0, 11.5, 11.5)">
    <path d="M-0.05 -8.7 L4.85 -11.5 2.6 -5.8 0.0 0.05 -0.05 -8.7" fill="#666666" fill-rule="evenodd" stroke="none"/>
    <path d="M-0.05 0.0 L5.8 -5.7 11.5 -4.7 6.55 -2.15 -0.05 0.0 -0.05 0.0" fill="#333333" fill-rule="evenodd" stroke="none"/>
    <path d="M0.0 0.0 L6.55 -2.15 11.5 -4.7 9.0 0.0 0.0 0.0" fill="#000000" fill-rule="evenodd" stroke="none"/>
    <path d="M2.6 -5.8 L4.85 -11.5 5.8 -5.7 0.0 0.0 2.6 -5.8 2.6 -5.8" fill="#000000" fill-rule="evenodd" stroke="none"/>
    <path d="M0.0 -8.7 L0.0 0.05 0.0 -8.7" fill="#333333" fill-rule="evenodd" stroke="none"/>
    <path d="M0.0 0.05 L-2.6 -5.8 -4.9 -11.5 -0.05 -8.7 0.0 0.05" fill="#333333" fill-rule="evenodd" stroke="none"/>
    <path d="M0.05 0.0 L-6.55 -2.15 -11.5 -4.7 -5.9 -5.7 0.05 0.0 0.05 0.0" fill="#ffffff" fill-rule="evenodd" stroke="none"/>
    <path d="M-9.0 0.0 L-11.5 -4.7 -6.55 -2.15 -0.1 0.0 -9.0 0.0" fill="#666666" fill-rule="evenodd" stroke="none"/>
    <path d="M-2.6 -5.8 L0.0 0.0 -5.9 -5.7 -4.85 -11.5 -2.6 -5.8 -2.6 -5.8" fill="#cccccc" fill-rule="evenodd" stroke="none"/>
    <path d="M0.0 0.05 L-0.05 -8.7 0.0 0.05" fill="#333333" fill-rule="evenodd" stroke="none"/>
    <path d="M0.0 0.0 L2.6 5.8 4.9 11.5 -0.05 8.7 0.0 0.0" fill="#cccccc" fill-rule="evenodd" stroke="none"/>
    <path d="M-0.05 0.0 L6.55 2.15 11.5 4.7 5.8 5.7 -0.05 0.0 -0.05 0.0" fill="#666666" fill-rule="evenodd" stroke="none"/>
    <path d="M9.0 0.0 L11.5 4.7 6.55 2.15 0.0 0.0 9.0 0.0" fill="#333333" fill-rule="evenodd" stroke="none"/>
    <path d="M2.6 5.8 L0.0 0.0 5.8 5.7 4.85 11.5 2.6 5.8 2.6 5.8" fill="#333333" fill-rule="evenodd" stroke="none"/>
    <path d="M0.0 8.7 L0.0 0.0 0.0 8.7" fill="#333333" fill-rule="evenodd" stroke="none"/>
    <path d="M2.6 5.8 L2.6 5.8" fill="#666666" fill-rule="evenodd" stroke="none"/>
    <path d="M-0.05 8.7 L-4.85 11.5 -2.6 5.8 0.0 0.0 -0.05 8.7" fill="#666666" fill-rule="evenodd" stroke="none"/>
    <path d="M0.05 -0.05 L-5.9 5.7 -11.5 4.7 -6.55 2.15 0.05 -0.05 0.05 -0.05" fill="#333333" fill-rule="evenodd" stroke="none"/>
    <path d="M-0.1 -0.05 L-6.55 2.15 -11.5 4.7 -9.0 0.0 -0.1 -0.05" fill="#cccccc" fill-rule="evenodd" stroke="none"/>
    <path d="M-2.6 5.8 L-4.85 11.5 -5.9 5.7 0.0 -0.05 -2.6 5.8 -2.6 5.8" fill="#cccccc" fill-rule="evenodd" stroke="none"/>
    <path d="M-0.05 8.7 L0.0 0.0 -0.05 8.7" fill="#333333" fill-rule="evenodd" stroke="none"/>
  </g>
</svg>
