<?xml version="1.0" encoding="UTF-8" standalone="no"?>
<svg xmlns:xlink="http://www.w3.org/1999/xlink" height="20.7px" width="23.0px" xmlns="http://www.w3.org/2000/svg">
  <g transform="matrix(1.0, 0.0, 0.0, 1.0, 11.5, 10.3)">
    <path d="M0.0 6.65 L-2.7 6.65 0.0 2.1 0.0 6.65" fill="#666666" fill-rule="evenodd" stroke="none"/>
    <path d="M-2.7 6.65 L-6.1 4.0 0.0 2.1 -2.7 6.65" fill="#000000" fill-rule="evenodd" stroke="none"/>
    <path d="M0.05 9.35 L-2.7 6.65 0.05 6.65 0.05 9.35" fill="#cccccc" fill-rule="evenodd" stroke="none"/>
    <path d="M0.0 9.35 L-4.4 9.35 -6.65 5.8 -2.7 6.65 0.0 9.35" fill="#666666" fill-rule="evenodd" stroke="none"/>
    <path d="M-2.7 6.65 L-6.65 5.8 -6.1 4.0 -2.7 6.65" fill="#cccccc" fill-rule="evenodd" stroke="none"/>
    <path d="M-4.4 9.35 L-8.35 6.7 -10.85 2.8 -6.6 5.8 -4.4 9.35" fill="#cccccc" fill-rule="evenodd" stroke="none"/>
    <path d="M-6.65 5.8 L-10.85 2.8 -10.15 1.0 -6.1 4.0 -6.65 5.8" fill="#ffffff" fill-rule="evenodd" stroke="none"/>
    <path d="M-10.15 1.05 L-10.85 2.85 -11.5 0.35 -11.25 -1.4 -10.15 -1.15 -10.15 1.05" fill="#a7a7a7" fill-rule="evenodd" stroke="none"/>
    <path d="M-5.85 1.25 L-6.1 4.0 -10.2 1.0 -5.85 1.25" fill="#666666" fill-rule="evenodd" stroke="none"/>
    <path d="M-5.85 1.25 L-10.15 1.05 -10.15 -1.15 -8.1 -0.75 -5.8 -1.4 -5.85 1.25" fill="#cccccc" fill-rule="evenodd" stroke="none"/>
    <path d="M0.0 2.1 L-6.1 4.0 -5.85 1.25 0.0 2.1" fill="#a7a7a7" fill-rule="evenodd" stroke="none"/>
    <path d="M0.0 2.1 L-5.85 1.25 -2.3 -1.45 0.0 2.1" fill="#666666" fill-rule="evenodd" stroke="none"/>
    <path d="M-2.3 -1.45 L-5.85 1.3 -5.8 -1.4 -4.45 -2.15 -3.15 -3.6 -2.3 -1.45" fill="#a7a7a7" fill-rule="evenodd" stroke="none"/>
    <path d="M0.05 10.4 L-4.4 9.35 0.0 9.35 0.05 10.4" fill="#a7a7a7" fill-rule="evenodd" stroke="none"/>
    <path d="M0.0 2.05 L-2.3 -1.45 0.0 -5.1 0.0 2.05" fill="#ffffff" fill-rule="evenodd" stroke="none"/>
    <path d="M0.0 -5.15 L-2.3 -1.45 -3.15 -3.6 0.0 -7.9 0.0 -5.15" fill="#000000" fill-rule="evenodd" stroke="none"/>
    <path d="M0.0 -7.9 L-3.15 -3.6 -1.15 -7.4 -0.05 -10.3 0.0 -7.9" fill="#a7a7a7" fill-rule="evenodd" stroke="none"/>
    <path d="M0.0 2.1 L2.75 6.6 0.0 6.65 0.0 2.1" fill="#ffffff" fill-rule="evenodd" stroke="none"/>
    <path d="M0.0 2.1 L6.15 3.9 2.7 6.6 0.0 2.1" fill="#cccccc" fill-rule="evenodd" stroke="none"/>
    <path d="M0.0 6.65 L2.75 6.6 0.0 9.35 0.0 6.65" fill="#a7a7a7" fill-rule="evenodd" stroke="none"/>
    <path d="M2.7 6.6 L6.65 5.7 4.45 9.3 0.05 9.35 2.7 6.6" fill="#666666" fill-rule="evenodd" stroke="none"/>
    <path d="M6.1 3.95 L6.65 5.7 2.7 6.6 6.1 3.95" fill="#a7a7a7" fill-rule="evenodd" stroke="none"/>
    <path d="M6.65 5.7 L10.9 2.65 8.4 6.6 4.45 9.3 6.65 5.7" fill="#ffffff" fill-rule="evenodd" stroke="none"/>
    <path d="M6.1 3.95 L10.15 0.9 10.9 2.65 6.65 5.7 6.1 3.95" fill="#666666" fill-rule="evenodd" stroke="none"/>
    <path d="M10.15 -1.3 L11.2 -1.55 11.5 0.2 10.85 2.7 10.15 0.9 10.15 -1.3" fill="#cccccc" fill-rule="evenodd" stroke="none"/>
    <path d="M10.15 0.9 L6.1 3.95 5.85 1.2 10.15 0.9" fill="#cccccc" fill-rule="evenodd" stroke="none"/>
    <path d="M5.8 -1.5 L8.1 -0.85 10.15 -1.3 10.15 0.9 5.85 1.2 5.8 -1.5" fill="#a7a7a7" fill-rule="evenodd" stroke="none"/>
    <path d="M5.85 1.2 L6.1 3.9 0.0 2.1 5.85 1.2" fill="#000000" fill-rule="evenodd" stroke="none"/>
    <path d="M2.25 -1.5 L5.85 1.15 0.0 2.1 2.25 -1.5" fill="#666666" fill-rule="evenodd" stroke="none"/>
    <path d="M3.15 -3.65 L4.45 -2.2 5.8 -1.5 5.85 1.2 2.25 -1.5 3.15 -3.65" fill="#cccccc" fill-rule="evenodd" stroke="none"/>
    <path d="M0.05 9.35 L4.45 9.3 0.05 10.4 0.05 9.35" fill="#000000" fill-rule="evenodd" stroke="none"/>
    <path d="M0.0 -5.1 L2.25 -1.5 0.0 2.05 0.0 -5.1" fill="#cccccc" fill-rule="evenodd" stroke="none"/>
    <path d="M0.0 -7.9 L3.15 -3.65 2.25 -1.5 0.0 -5.15 0.0 -7.9" fill="#666666" fill-rule="evenodd" stroke="none"/>
    <path d="M-0.05 -10.3 L1.1 -7.4 3.1 -3.65 0.0 -7.9 -0.05 -10.3" fill="#cccccc" fill-rule="evenodd" stroke="none"/>
  </g>
</svg>
