<?xml version="1.0" encoding="UTF-8" standalone="no"?>
<svg xmlns:xlink="http://www.w3.org/1999/xlink" height="23.0px" width="23.0px" xmlns="http://www.w3.org/2000/svg">
  <g transform="matrix(1.0, 0.0, 0.0, 1.0, 11.5, 11.5)">
    <path d="M-8.95 5.4 L-8.95 -5.4 -6.3 -4.25 -6.4 4.35 -8.95 5.4" fill="#cccccc" fill-rule="evenodd" stroke="none"/>
    <path d="M-11.5 6.35 L-11.5 -6.6 -8.95 -5.4 -8.95 5.4 -11.5 6.35" fill="#666666" fill-rule="evenodd" stroke="none"/>
    <path d="M-11.5 -6.6 L-6.55 -11.4 -5.4 -8.7 -8.9 -5.4 -11.5 -6.6" fill="#ffffff" fill-rule="evenodd" stroke="none"/>
    <path d="M-6.3 -4.25 L-8.9 -5.4 -5.4 -8.7 -4.3 -6.15 -6.3 -4.25" fill="#333333" fill-rule="evenodd" stroke="none"/>
    <path d="M-8.95 5.45 L-5.5 8.8 -6.65 11.5 -11.5 6.35 -8.95 5.45" fill="#333333" fill-rule="evenodd" stroke="none"/>
    <path d="M-4.4 6.25 L-5.5 8.8 -8.95 5.4 -6.4 4.35 -4.4 6.25" fill="#000000" fill-rule="evenodd" stroke="none"/>
    <path d="M5.55 8.9 L-5.5 8.8 -4.4 6.25 4.45 6.4 5.55 8.9" fill="#333333" fill-rule="evenodd" stroke="none"/>
    <path d="M6.55 11.4 L-6.65 11.5 -5.5 8.8 5.6 8.9 6.55 11.4" fill="#666666" fill-rule="evenodd" stroke="none"/>
    <path d="M8.95 -5.4 L8.95 5.4 6.45 4.3 6.4 -4.35 8.95 -5.4" fill="#cccccc" fill-rule="evenodd" stroke="none"/>
    <path d="M11.5 -6.35 L11.5 6.6 8.95 5.4 8.95 -5.4 11.5 -6.35" fill="#333333" fill-rule="evenodd" stroke="none"/>
    <path d="M11.5 6.6 L6.55 11.4 5.6 8.9 8.9 5.4 11.5 6.6" fill="#000000" fill-rule="evenodd" stroke="none"/>
    <path d="M6.45 4.3 L8.9 5.4 5.6 8.9 4.45 6.4 6.45 4.3" fill="#ffffff" fill-rule="evenodd" stroke="none"/>
    <path d="M8.95 -5.45 L5.5 -8.8 6.65 -11.5 11.5 -6.35 8.95 -5.45" fill="#666666" fill-rule="evenodd" stroke="none"/>
    <path d="M4.4 -6.25 L5.5 -8.8 8.95 -5.4 6.4 -4.35 4.4 -6.25" fill="#ffffff" fill-rule="evenodd" stroke="none"/>
    <path d="M-5.4 -8.7 L5.5 -8.8 4.4 -6.25 -4.3 -6.15 -5.4 -8.7" fill="#cccccc" fill-rule="evenodd" stroke="none"/>
    <path d="M-6.55 -11.4 L6.65 -11.5 5.5 -8.8 -5.4 -8.7 -6.55 -11.4" fill="#000000" fill-rule="evenodd" stroke="none"/>
    <path d="M-6.3 -4.25 L-4.3 -6.15 -3.35 -6.15 0.1 -0.15 -6.3 -3.4 -6.3 -4.25" fill="#000000" fill-rule="evenodd" stroke="none"/>
    <path d="M0.1 -0.15 L-3.55 6.25 -4.4 6.25 -6.4 4.35 -6.35 3.3 0.1 -0.15" fill="#cccccc" fill-rule="evenodd" stroke="none"/>
    <path d="M6.45 4.3 L4.45 6.4 3.55 6.4 0.05 -0.15 6.45 3.35 6.45 4.3" fill="#000000" fill-rule="evenodd" stroke="none"/>
    <path d="M0.1 -0.15 L3.6 -6.25 4.4 -6.25 6.4 -4.35 6.4 -3.45 0.1 -0.15" fill="#666666" fill-rule="evenodd" stroke="none"/>
    <path d="M-6.35 3.3 L-6.3 -3.4 0.1 -0.15 -6.35 3.3" fill="#666666" fill-rule="evenodd" stroke="none"/>
    <path d="M0.1 -0.15 L6.4 -3.45 6.45 3.35 0.1 -0.15" fill="#333333" fill-rule="evenodd" stroke="none"/>
    <path d="M-3.35 -6.15 L3.6 -6.25 0.1 -0.15 -3.35 -6.15" fill="#333333" fill-rule="evenodd" stroke="none"/>
    <path d="M0.1 -0.15 L3.5 6.4 -3.55 6.25 0.1 -0.15" fill="#666666" fill-rule="evenodd" stroke="none"/>
  </g>
</svg>
