<?xml version="1.0" encoding="UTF-8" standalone="no"?>
<svg xmlns:xlink="http://www.w3.org/1999/xlink" height="23.0px" width="23.0px" xmlns="http://www.w3.org/2000/svg">
  <g transform="matrix(1.0, 0.0, 0.0, 1.0, 11.5, 11.5)">
    <path d="M-5.8 -4.5 L-11.5 -6.0 -8.25 -6.95 -5.8 -4.5" fill="#666666" fill-rule="evenodd" stroke="none"/>
    <path d="M-7.25 -2.65 L-11.5 -6.0 -5.9 -4.5 -7.25 -2.65" fill="#333333" fill-rule="evenodd" stroke="none"/>
    <path d="M-8.15 2.0 L-11.45 -6.0 -7.3 -2.65 -8.15 2.0" fill="#989898" fill-rule="evenodd" stroke="none"/>
    <path d="M-5.85 -4.55 L-8.3 -6.95 -0.05 -6.1 -5.85 -4.55" fill="#cccccc" fill-rule="evenodd" stroke="none"/>
    <path d="M-8.25 -6.95 L-11.45 -6.0 -4.1 -11.5 -8.25 -6.95" fill="#ffffff" fill-rule="evenodd" stroke="none"/>
    <path d="M-2.85 -6.35 L-8.25 -6.95 -4.1 -11.5 -2.85 -6.35" fill="#333333" fill-rule="evenodd" stroke="none"/>
    <path d="M-0.05 -6.1 L-2.85 -6.4 -4.05 -11.5 -0.05 -6.1" fill="#000000" fill-rule="evenodd" stroke="none"/>
    <path d="M-0.05 -6.1 L-4.1 -11.45 0.0 -10.8 -0.05 -6.1" fill="#666666" fill-rule="evenodd" stroke="none"/>
    <path d="M-3.65 4.35 L-7.25 -2.65 -5.9 -4.5 -3.65 4.35" fill="#000000" fill-rule="evenodd" stroke="none"/>
    <path d="M-0.05 -6.1 L-3.65 4.4 -5.9 -4.55 -0.05 -6.1" fill="#333333" fill-rule="evenodd" stroke="none"/>
    <path d="M8.25 -6.9 L11.5 -5.95 5.8 -4.5 8.25 -6.9" fill="#333333" fill-rule="evenodd" stroke="none"/>
    <path d="M5.9 -4.5 L11.5 -5.95 7.25 -2.6 5.9 -4.5" fill="#989898" fill-rule="evenodd" stroke="none"/>
    <path d="M-0.05 -6.1 L8.3 -6.9 5.85 -4.5 -0.05 -6.1" fill="#666666" fill-rule="evenodd" stroke="none"/>
    <path d="M4.1 -11.5 L11.45 -5.95 8.25 -6.9 4.1 -11.5" fill="#000000" fill-rule="evenodd" stroke="none"/>
    <path d="M4.1 -11.5 L8.25 -6.9 2.85 -6.4 4.1 -11.5" fill="#cccccc" fill-rule="evenodd" stroke="none"/>
    <path d="M4.1 -11.45 L2.85 -6.35 -0.05 -6.05 4.1 -11.45" fill="#333333" fill-rule="evenodd" stroke="none"/>
    <path d="M0.0 -10.85 L4.1 -11.5 -0.05 -6.1 0.0 -10.85" fill="#989898" fill-rule="evenodd" stroke="none"/>
    <path d="M5.9 -4.5 L7.25 -2.6 3.65 4.4 5.9 -4.5" fill="#ffffff" fill-rule="evenodd" stroke="none"/>
    <path d="M5.9 -4.5 L3.65 4.45 -0.05 -6.1 5.9 -4.5" fill="#989898" fill-rule="evenodd" stroke="none"/>
    <path d="M-8.15 2.0 L-7.25 -2.7 0.0 11.5 -8.15 2.0" fill="#666666" fill-rule="evenodd" stroke="none"/>
    <path d="M7.25 -2.65 L11.45 -5.95 8.15 2.05 7.25 -2.65" fill="#666666" fill-rule="evenodd" stroke="none"/>
    <path d="M0.0 11.5 L7.25 -2.65 8.15 2.05 0.0 11.5" fill="#333333" fill-rule="evenodd" stroke="none"/>
    <path d="M-3.65 4.4 L-0.05 -6.15 3.65 4.4 0.0 11.45 -3.65 4.4" fill="#000000" fill-rule="evenodd" stroke="none"/>
  </g>
</svg>
