<?xml version="1.0" encoding="UTF-8" standalone="no"?>
<svg xmlns:xlink="http://www.w3.org/1999/xlink" height="23.0px" width="23.0px" xmlns="http://www.w3.org/2000/svg">
  <g transform="matrix(1.0, 0.0, 0.0, 1.0, 11.5, 11.5)">
    <path d="M-5.2 -2.95 L-5.7 -6.7 -1.95 -6.05 -5.2 -2.95" fill="#333333" fill-rule="evenodd" stroke="none"/>
    <path d="M2.2 -5.85 L6.15 -6.4 5.1 -2.7 2.2 -5.85" fill="#666666" fill-rule="evenodd" stroke="none"/>
    <path d="M-8.8 -1.05 L-5.2 -3.0 -5.45 1.6 -8.8 -1.05" fill="#a7a7a7" fill-rule="evenodd" stroke="none"/>
    <path d="M-2.0 -6.05 L0.1 -9.05 2.2 -5.8 -2.0 -6.05" fill="#000000" fill-rule="evenodd" stroke="none"/>
    <path d="M-9.35 6.6 L-11.5 4.1 -7.75 6.85 -9.35 6.6" fill="#333333" fill-rule="evenodd" stroke="none"/>
    <path d="M-7.7 8.55 L-7.75 6.85 -7.2 7.25 -5.2 11.2 -7.7 8.55" fill="#a7a7a7" fill-rule="evenodd" stroke="none"/>
    <path d="M-7.75 6.85 L-6.35 5.6 -5.2 11.25 -7.75 6.85" fill="#333333" fill-rule="evenodd" stroke="none"/>
    <path d="M-7.75 6.85 L-11.5 4.1 -6.35 5.6 -7.75 6.85" fill="#666666" fill-rule="evenodd" stroke="none"/>
    <path d="M1.1 11.35 L-0.3 10.1 4.4 11.5 1.1 11.35" fill="#333333" fill-rule="evenodd" stroke="none"/>
    <path d="M-4.0 11.25 L-0.25 10.1 -1.65 11.3 -4.0 11.25" fill="#a7a7a7" fill-rule="evenodd" stroke="none"/>
    <path d="M-5.2 11.2 L-0.25 8.35 -0.25 10.15 -4.0 11.25 -5.2 11.2" fill="#666666" fill-rule="evenodd" stroke="none"/>
    <path d="M-0.25 10.15 L-0.25 8.4 4.35 11.5 -0.25 10.15" fill="#a7a7a7" fill-rule="evenodd" stroke="none"/>
    <path d="M4.3 11.45 L7.1 7.6 6.7 9.45 4.3 11.45" fill="#a7a7a7" fill-rule="evenodd" stroke="none"/>
    <path d="M9.1 7.25 L7.05 7.6 11.15 5.15 9.1 7.25" fill="#666666" fill-rule="evenodd" stroke="none"/>
    <path d="M6.1 6.0 L7.05 7.6 4.3 11.5 6.1 6.0" fill="#333333" fill-rule="evenodd" stroke="none"/>
    <path d="M7.05 7.6 L6.05 6.0 11.15 5.15 7.05 7.6" fill="#a7a7a7" fill-rule="evenodd" stroke="none"/>
    <path d="M11.15 5.15 L10.15 0.2 11.35 1.6 11.15 5.15" fill="#a7a7a7" fill-rule="evenodd" stroke="none"/>
    <path d="M10.15 0.3 L11.5 -4.45 11.4 -1.15 10.15 0.3" fill="#333333" fill-rule="evenodd" stroke="none"/>
    <path d="M8.55 -0.05 L10.15 0.25 11.1 5.2 8.55 -0.05" fill="#666666" fill-rule="evenodd" stroke="none"/>
    <path d="M10.15 0.25 L8.55 0.0 11.5 -4.45 10.15 0.25" fill="#a7a7a7" fill-rule="evenodd" stroke="none"/>
    <path d="M7.3 -7.2 L9.15 -6.9 11.5 -4.4 7.3 -7.2" fill="#a7a7a7" fill-rule="evenodd" stroke="none"/>
    <path d="M7.35 -7.15 L5.15 -11.05 7.3 -8.8 7.35 -7.15" fill="#333333" fill-rule="evenodd" stroke="none"/>
    <path d="M6.1 -6.35 L5.15 -11.05 7.35 -7.15 6.1 -6.35" fill="#a7a7a7" fill-rule="evenodd" stroke="none"/>
    <path d="M6.1 -6.4 L7.3 -7.2 11.45 -4.4 6.1 -6.4" fill="#666666" fill-rule="evenodd" stroke="none"/>
    <path d="M1.7 -11.3 L5.15 -11.05 0.2 -10.45 1.7 -11.3" fill="#666666" fill-rule="evenodd" stroke="none"/>
    <path d="M-3.9 -11.5 L-1.25 -11.5 0.2 -10.45 -3.9 -11.5" fill="#a7a7a7" fill-rule="evenodd" stroke="none"/>
    <path d="M0.2 -10.45 L5.15 -11.05 0.1 -9.05 0.2 -10.45" fill="#a7a7a7" fill-rule="evenodd" stroke="none"/>
    <path d="M0.1 -9.05 L-3.9 -11.5 0.2 -10.45 0.1 -9.05" fill="#ffffff" fill-rule="evenodd" stroke="none"/>
    <path d="M-6.65 -9.2 L-3.9 -11.5 -6.75 -7.7 -6.65 -9.2" fill="#333333" fill-rule="evenodd" stroke="none"/>
    <path d="M-8.6 -7.45 L-6.75 -7.75 -10.95 -5.25 -8.6 -7.45" fill="#666666" fill-rule="evenodd" stroke="none"/>
    <path d="M-6.75 -7.7 L-3.9 -11.5 -5.7 -6.65 -6.75 -7.7" fill="#000000" fill-rule="evenodd" stroke="none"/>
    <path d="M-6.7 -7.75 L-5.65 -6.65 -10.95 -5.25 -6.7 -7.75" fill="#a7a7a7" fill-rule="evenodd" stroke="none"/>
    <path d="M-11.2 -1.95 L-10.95 -5.25 -10.15 -1.0 -11.2 -1.95" fill="#a7a7a7" fill-rule="evenodd" stroke="none"/>
    <path d="M-11.35 0.65 L-10.15 -1.0 -11.5 4.15 -11.35 0.65" fill="#a7a7a7" fill-rule="evenodd" stroke="none"/>
    <path d="M-10.15 -0.95 L-10.9 -5.25 -8.8 -1.05 -10.15 -0.95" fill="#ffffff" fill-rule="evenodd" stroke="none"/>
    <path d="M-11.5 4.15 L-10.15 -1.0 -8.8 -1.05 -11.5 4.15" fill="#333333" fill-rule="evenodd" stroke="none"/>
    <path d="M-6.35 5.65 L-5.45 1.6 -2.05 4.05 -6.35 5.65" fill="#666666" fill-rule="evenodd" stroke="none"/>
    <path d="M-0.25 8.4 L-2.05 4.05 2.15 4.1 -0.25 8.4" fill="#333333" fill-rule="evenodd" stroke="none"/>
    <path d="M4.9 1.45 L5.1 -2.75 8.55 -0.05 4.9 1.45" fill="#333333" fill-rule="evenodd" stroke="none"/>
    <path d="M2.15 4.1 L4.9 1.45 6.1 6.0 2.15 4.1" fill="#a7a7a7" fill-rule="evenodd" stroke="none"/>
    <path d="M3.15 7.5 L2.15 4.1 6.1 6.0 3.15 7.5" fill="#333333" fill-rule="evenodd" stroke="none"/>
    <path d="M-3.8 7.5 L-2.05 4.0 -0.25 8.4 -3.8 7.5" fill="#666666" fill-rule="evenodd" stroke="none"/>
    <path d="M6.1 6.0 L4.9 1.45 7.9 3.05 6.1 6.0" fill="#666666" fill-rule="evenodd" stroke="none"/>
    <path d="M5.05 -2.75 L8.05 -3.65 8.55 0.0 5.05 -2.75" fill="#666666" fill-rule="evenodd" stroke="none"/>
    <path d="M2.2 -5.85 L3.5 -8.45 6.1 -6.35 2.2 -5.85" fill="#a7a7a7" fill-rule="evenodd" stroke="none"/>
    <path d="M-3.0 -8.75 L0.1 -9.05 -1.95 -6.05 -3.0 -8.75" fill="#a7a7a7" fill-rule="evenodd" stroke="none"/>
    <path d="M-8.05 -4.25 L-5.7 -6.7 -5.2 -2.95 -8.05 -4.25" fill="#a7a7a7" fill-rule="evenodd" stroke="none"/>
    <path d="M-8.35 2.6 L-8.8 -1.1 -5.4 1.6 -8.35 2.6" fill="#333333" fill-rule="evenodd" stroke="none"/>
    <path d="M3.15 7.5 L6.1 6.0 4.3 11.5 3.15 7.5" fill="#666666" fill-rule="evenodd" stroke="none"/>
    <path d="M-5.2 11.2 L-3.8 7.5 -0.25 8.4 -5.2 11.2" fill="#333333" fill-rule="evenodd" stroke="none"/>
    <path d="M-11.5 4.1 L-8.8 -1.1 -8.35 2.6 -11.5 4.1" fill="#666666" fill-rule="evenodd" stroke="none"/>
    <path d="M6.1 6.0 L7.9 3.05 11.1 5.15 6.1 6.0" fill="#000000" fill-rule="evenodd" stroke="none"/>
    <path d="M8.55 -0.05 L8.05 -3.65 11.45 -4.4 8.55 -0.05" fill="#000000" fill-rule="evenodd" stroke="none"/>
    <path d="M3.45 -8.45 L5.15 -11.05 6.1 -6.35 3.45 -8.45" fill="#ffffff" fill-rule="evenodd" stroke="none"/>
    <path d="M-3.0 -8.75 L-3.9 -11.5 0.05 -9.05 -3.0 -8.75" fill="#666666" fill-rule="evenodd" stroke="none"/>
    <path d="M-10.9 -5.25 L-5.7 -6.65 -8.05 -4.25 -10.9 -5.25" fill="#333333" fill-rule="evenodd" stroke="none"/>
    <path d="M-0.25 8.4 L2.15 4.1 3.15 7.5 -0.25 8.4" fill="#666666" fill-rule="evenodd" stroke="none"/>
    <path d="M-6.35 5.65 L-2.05 4.0 -3.8 7.5 -6.35 5.65" fill="#a7a7a7" fill-rule="evenodd" stroke="none"/>
    <path d="M-8.35 2.55 L-5.45 1.6 -6.35 5.65 -8.35 2.55" fill="#000000" fill-rule="evenodd" stroke="none"/>
    <path d="M-8.8 -1.05 L-8.05 -4.25 -5.2 -2.95 -8.8 -1.05" fill="#666666" fill-rule="evenodd" stroke="none"/>
    <path d="M-5.7 -6.7 L-3.0 -8.75 -1.95 -6.05 -5.7 -6.7" fill="#666666" fill-rule="evenodd" stroke="none"/>
    <path d="M7.9 3.05 L4.9 1.45 8.55 -0.05 7.9 3.05" fill="#a7a7a7" fill-rule="evenodd" stroke="none"/>
    <path d="M5.1 -2.75 L6.1 -6.35 8.05 -3.65 5.1 -2.75" fill="#a7a7a7" fill-rule="evenodd" stroke="none"/>
    <path d="M0.05 -9.1 L3.5 -8.45 2.2 -5.85 0.05 -9.1" fill="#333333" fill-rule="evenodd" stroke="none"/>
    <path d="M-0.25 8.4 L3.15 7.5 4.35 11.5 -0.25 8.4" fill="#ffffff" fill-rule="evenodd" stroke="none"/>
    <path d="M-5.2 11.2 L-6.35 5.65 -3.8 7.5 -5.2 11.2" fill="#ffffff" fill-rule="evenodd" stroke="none"/>
    <path d="M-11.5 4.1 L-8.35 2.55 -6.35 5.65 -11.5 4.1" fill="#a7a7a7" fill-rule="evenodd" stroke="none"/>
    <path d="M-10.9 -5.25 L-8.05 -4.25 -8.8 -1.05 -10.9 -5.25" fill="#a7a7a7" fill-rule="evenodd" stroke="none"/>
    <path d="M-5.7 -6.65 L-3.9 -11.5 -3.0 -8.75 -5.7 -6.65" fill="#333333" fill-rule="evenodd" stroke="none"/>
    <path d="M0.1 -9.05 L5.15 -11.05 3.5 -8.45 0.1 -9.05" fill="#666666" fill-rule="evenodd" stroke="none"/>
    <path d="M7.9 3.05 L8.55 0.0 11.1 5.15 7.9 3.05" fill="#333333" fill-rule="evenodd" stroke="none"/>
    <path d="M8.05 -3.65 L6.1 -6.4 11.45 -4.4 8.05 -3.65" fill="#333333" fill-rule="evenodd" stroke="none"/>
    <path d="M-5.45 1.65 L-5.2 -3.0 -2.75 -0.85 -5.45 1.65" fill="#ffffff" fill-rule="evenodd" stroke="none"/>
    <path d="M-2.1 4.05 L-0.15 1.2 2.15 4.1 -2.1 4.05" fill="#a7a7a7" fill-rule="evenodd" stroke="none"/>
    <path d="M2.4 -0.95 L5.1 -2.75 4.9 1.5 2.4 -0.95" fill="#666666" fill-rule="evenodd" stroke="none"/>
    <path d="M-1.95 -6.05 L2.25 -5.85 -0.05 -3.35 -1.95 -6.05" fill="#333333" fill-rule="evenodd" stroke="none"/>
    <path d="M-5.45 1.6 L-2.75 -0.85 -0.2 -1.1 -2.1 1.05 -5.45 1.6" fill="#666666" fill-rule="evenodd" stroke="none"/>
    <path d="M1.8 1.3 L-0.2 -1.1 2.4 -1.0 4.85 1.45 1.8 1.3" fill="#333333" fill-rule="evenodd" stroke="none"/>
    <path d="M-1.95 -3.15 L-1.95 -6.05 -0.05 -3.35 -0.15 -1.05 -1.95 -3.15" fill="#a7a7a7" fill-rule="evenodd" stroke="none"/>
    <path d="M-0.2 -1.1 L-0.1 -3.4 2.2 -5.85 1.95 -2.85 -0.2 -1.1" fill="#666666" fill-rule="evenodd" stroke="none"/>
    <path d="M-5.45 1.6 L-2.15 1.05 -2.05 4.05 -5.45 1.6" fill="#333333" fill-rule="evenodd" stroke="none"/>
    <path d="M1.8 1.3 L4.9 1.45 2.15 4.1 1.8 1.3" fill="#000000" fill-rule="evenodd" stroke="none"/>
    <path d="M1.95 -2.85 L2.2 -5.85 5.05 -2.75 1.95 -2.85" fill="#a7a7a7" fill-rule="evenodd" stroke="none"/>
    <path d="M-5.25 -3.0 L-1.95 -6.05 -1.95 -3.15 -5.25 -3.0" fill="#666666" fill-rule="evenodd" stroke="none"/>
    <path d="M-2.8 -0.85 L-5.2 -3.0 -1.95 -3.15 -0.2 -1.1 -2.8 -0.85" fill="#333333" fill-rule="evenodd" stroke="none"/>
    <path d="M-0.2 -1.1 L1.95 -2.85 5.05 -2.75 2.4 -1.0 -0.2 -1.1" fill="#ffffff" fill-rule="evenodd" stroke="none"/>
    <path d="M-2.05 4.05 L-2.15 1.05 -0.2 -1.1 -0.15 1.2 -2.05 4.05" fill="#000000" fill-rule="evenodd" stroke="none"/>
    <path d="M-0.15 1.25 L-0.2 -1.1 1.85 1.3 2.15 4.1 -0.15 1.25" fill="#666666" fill-rule="evenodd" stroke="none"/>
  </g>
</svg>
