<?xml version="1.0" encoding="UTF-8" standalone="no"?>
<svg xmlns:xlink="http://www.w3.org/1999/xlink" height="19.0px" width="22.0px" xmlns="http://www.w3.org/2000/svg">
  <g transform="matrix(1.0, 0.0, 0.0, 1.0, 11.0, 9.5)">
    <path d="M0.0 4.05 L0.0 3.3 0.0 4.05" fill="#333333" fill-rule="evenodd" stroke="none"/>
    <path d="M0.0 4.05 L0.0 5.6 0.0 4.05" fill="#cccccc" fill-rule="evenodd" stroke="none"/>
    <path d="M-6.8 5.9 L-6.8 5.9" fill="#cccccc" fill-rule="evenodd" stroke="none"/>
    <path d="M0.0 3.3 L0.0 4.05 -6.1 4.05 -5.85 3.35 0.0 3.3" fill="#666666" fill-rule="evenodd" stroke="none"/>
    <path d="M0.0 4.05 L0.0 5.6 -6.7 5.6 -6.1 4.05 0.0 4.05" fill="#999999" fill-rule="evenodd" stroke="none"/>
    <path d="M-6.7 0.0 L-5.85 3.35 -6.1 4.05 -7.2 0.0 -6.7 0.0" fill="#333333" fill-rule="evenodd" stroke="none"/>
    <path d="M-6.7 5.6 L-8.25 0.0 -7.2 0.0 -6.1 4.05 -6.7 5.6" fill="#666666" fill-rule="evenodd" stroke="none"/>
    <path d="M-5.85 3.35 L-6.7 0.0 0.0 0.0 -5.85 3.35" fill="#cccccc" fill-rule="evenodd" stroke="none"/>
    <path d="M-5.85 3.35 L0.0 0.0 0.0 3.3 -5.85 3.35" fill="#333333" fill-rule="evenodd" stroke="none"/>
    <path d="M-7.95 5.6 L-9.45 0.0 -8.25 0.0 -6.7 5.6 -7.95 5.6" fill="#333333" fill-rule="evenodd" stroke="none"/>
    <path d="M-6.7 7.45 L-6.7 5.6 0.0 5.6 0.0 7.45 -6.7 7.45" fill="#333333" fill-rule="evenodd" stroke="none"/>
    <path d="M0.0 4.05 L0.0 3.3 0.0 4.05" fill="#333333" fill-rule="evenodd" stroke="none"/>
    <path d="M0.0 5.6 L0.0 4.05 0.0 5.6" fill="#cccccc" fill-rule="evenodd" stroke="none"/>
    <path d="M6.8 5.9 L6.8 5.9" fill="#cccccc" fill-rule="evenodd" stroke="none"/>
    <path d="M5.85 3.35 L6.1 4.05 0.0 4.05 0.0 3.3 5.85 3.35" fill="#333333" fill-rule="evenodd" stroke="none"/>
    <path d="M6.1 4.05 L6.7 5.6 0.0 5.6 0.0 4.05 6.1 4.05" fill="#cccccc" fill-rule="evenodd" stroke="none"/>
    <path d="M7.2 0.0 L6.1 4.05 5.85 3.35 6.7 0.0 7.2 0.0" fill="#cccccc" fill-rule="evenodd" stroke="none"/>
    <path d="M6.1 4.05 L7.2 0.0 8.25 0.0 6.7 5.6 6.1 4.05" fill="#999999" fill-rule="evenodd" stroke="none"/>
    <path d="M0.0 0.0 L6.7 0.0 5.85 3.35 0.0 0.0" fill="#333333" fill-rule="evenodd" stroke="none"/>
    <path d="M0.0 3.3 L0.0 0.0 5.85 3.35 0.0 3.3" fill="#000000" fill-rule="evenodd" stroke="none"/>
    <path d="M6.7 5.6 L8.25 0.0 9.45 0.0 8.1 5.0 6.7 5.6" fill="#666666" fill-rule="evenodd" stroke="none"/>
    <path d="M0.0 7.45 L0.0 5.6 6.7 5.6 6.7 7.45 0.0 7.45" fill="#999999" fill-rule="evenodd" stroke="none"/>
    <path d="M0.0 -4.05 L0.0 -3.3 0.0 -4.05" fill="#333333" fill-rule="evenodd" stroke="none"/>
    <path d="M0.0 -4.05 L0.0 -5.6 0.0 -4.05" fill="#cccccc" fill-rule="evenodd" stroke="none"/>
    <path d="M-6.8 -5.9 L-6.8 -5.9" fill="#cccccc" fill-rule="evenodd" stroke="none"/>
    <path d="M-5.85 -3.3 L-6.1 -4.05 0.0 -4.05 0.0 -3.3 -5.85 -3.3" fill="#333333" fill-rule="evenodd" stroke="none"/>
    <path d="M-6.1 -4.05 L-6.7 -5.6 0.0 -5.6 0.0 -4.05 -6.1 -4.05" fill="#666666" fill-rule="evenodd" stroke="none"/>
    <path d="M-7.2 0.0 L-6.1 -4.05 -5.85 -3.3 -6.7 0.0 -7.2 0.0" fill="#000000" fill-rule="evenodd" stroke="none"/>
    <path d="M-6.1 -4.05 L-7.2 0.0 -8.25 0.0 -6.7 -5.6 -6.1 -4.05" fill="#ffffff" fill-rule="evenodd" stroke="none"/>
    <path d="M0.0 0.0 L-6.7 0.0 -5.85 -3.35 0.0 0.0" fill="#333333" fill-rule="evenodd" stroke="none"/>
    <path d="M0.0 -3.25 L0.0 0.0 -5.85 -3.35 0.0 -3.25" fill="#666666" fill-rule="evenodd" stroke="none"/>
    <path d="M-6.7 -5.6 L-8.25 0.0 -9.45 0.0 -7.95 -5.6 -6.7 -5.6" fill="#cccccc" fill-rule="evenodd" stroke="none"/>
    <path d="M0.0 -7.45 L0.0 -5.6 -6.7 -5.6 -6.7 -7.45 0.0 -7.45" fill="#cccccc" fill-rule="evenodd" stroke="none"/>
    <path d="M-6.7 -7.45 L-6.7 -5.6 -7.95 -5.6 -7.3 -6.45 -6.7 -7.45" fill="#333333" fill-rule="evenodd" stroke="none"/>
    <path d="M0.0 -4.05 L0.0 -3.3 0.0 -4.05" fill="#333333" fill-rule="evenodd" stroke="none"/>
    <path d="M0.0 -5.6 L0.0 -4.05 0.0 -5.6" fill="#cccccc" fill-rule="evenodd" stroke="none"/>
    <path d="M6.8 -5.9 L6.8 -5.9" fill="#cccccc" fill-rule="evenodd" stroke="none"/>
    <path d="M0.0 -3.3 L0.0 -4.05 6.1 -4.05 5.85 -3.3 0.0 -3.3" fill="#000000" fill-rule="evenodd" stroke="none"/>
    <path d="M0.0 -4.05 L0.0 -5.6 6.7 -5.6 6.1 -4.05 0.0 -4.05" fill="#cccccc" fill-rule="evenodd" stroke="none"/>
    <path d="M6.7 0.0 L5.85 -3.3 6.1 -4.05 7.2 0.0 6.7 0.0" fill="#666666" fill-rule="evenodd" stroke="none"/>
    <path d="M6.7 -5.6 L8.25 0.0 7.2 0.0 6.1 -4.05 6.7 -5.6" fill="#333333" fill-rule="evenodd" stroke="none"/>
    <path d="M5.85 -3.35 L6.7 0.0 0.0 0.0 5.85 -3.35" fill="#ffffff" fill-rule="evenodd" stroke="none"/>
    <path d="M5.85 -3.35 L0.0 0.0 0.0 -3.25 5.85 -3.35" fill="#cccccc" fill-rule="evenodd" stroke="none"/>
    <path d="M7.95 -5.6 L9.45 0.0 8.25 0.0 6.7 -5.6 7.95 -5.6" fill="#cccccc" fill-rule="evenodd" stroke="none"/>
    <path d="M6.7 -7.45 L6.7 -5.6 0.0 -5.6 0.0 -7.45 6.7 -7.45" fill="#333333" fill-rule="evenodd" stroke="none"/>
    <path d="M7.3 -6.5 L7.95 -5.6 6.7 -5.6 6.7 -7.45 7.3 -6.5" fill="#ffffff" fill-rule="evenodd" stroke="none"/>
    <path d="M8.1 5.0 L9.45 6.4 8.4 8.0 6.7 5.6 8.1 5.0" fill="#000000" fill-rule="evenodd" stroke="none"/>
    <path d="M6.7 5.6 L8.4 8.0 7.45 9.5 6.7 7.45 6.7 5.6" fill="#666666" fill-rule="evenodd" stroke="none"/>
    <path d="M6.7 7.45 L7.45 9.5 4.5 9.5 3.75 7.45 6.7 7.45" fill="#333333" fill-rule="evenodd" stroke="none"/>
    <path d="M3.75 7.45 L4.5 9.5 0.0 7.45 3.75 7.45" fill="#cccccc" fill-rule="evenodd" stroke="none"/>
    <path d="M0.0 7.4 L4.5 9.5 0.0 9.45 0.0 7.4" fill="#cccccc" fill-rule="evenodd" stroke="none"/>
    <path d="M-6.7 5.6 L-8.4 8.0 -9.45 6.4 -8.1 5.0 -6.7 5.6" fill="#cccccc" fill-rule="evenodd" stroke="none"/>
    <path d="M-6.7 7.45 L-7.45 9.5 -8.4 8.0 -6.7 5.6 -6.7 7.45" fill="#999999" fill-rule="evenodd" stroke="none"/>
    <path d="M-3.75 7.45 L-4.5 9.5 -7.45 9.5 -6.7 7.45 -3.75 7.45" fill="#666666" fill-rule="evenodd" stroke="none"/>
    <path d="M0.0 7.45 L-4.5 9.5 -3.75 7.45 0.0 7.45" fill="#999999" fill-rule="evenodd" stroke="none"/>
    <path d="M0.0 9.45 L-4.5 9.5 0.0 7.4 0.0 9.45" fill="#999999" fill-rule="evenodd" stroke="none"/>
    <path d="M6.7 -5.6 L8.4 -8.0 9.45 -6.4 8.1 -5.0 6.7 -5.6" fill="#989898" fill-rule="evenodd" stroke="none"/>
    <path d="M6.7 -7.45 L7.45 -9.5 8.4 -8.0 6.7 -5.6 6.7 -7.45" fill="#cccccc" fill-rule="evenodd" stroke="none"/>
    <path d="M3.75 -7.45 L4.5 -9.5 7.45 -9.5 6.7 -7.45 3.75 -7.45" fill="#989898" fill-rule="evenodd" stroke="none"/>
    <path d="M0.0 -7.45 L4.5 -9.5 3.75 -7.45 0.0 -7.45" fill="#cccccc" fill-rule="evenodd" stroke="none"/>
    <path d="M0.0 -9.45 L4.5 -9.5 0.0 -7.4 0.0 -9.45" fill="#cccccc" fill-rule="evenodd" stroke="none"/>
    <path d="M-8.1 -5.0 L-9.45 -6.4 -8.4 -8.0 -6.7 -5.6 -8.1 -5.0" fill="#333333" fill-rule="evenodd" stroke="none"/>
    <path d="M-6.7 -5.6 L-8.4 -8.0 -7.45 -9.5 -6.7 -7.45 -6.7 -5.6" fill="#989898" fill-rule="evenodd" stroke="none"/>
    <path d="M-6.7 -7.45 L-7.45 -9.5 -4.5 -9.5 -3.75 -7.45 -6.7 -7.45" fill="#333333" fill-rule="evenodd" stroke="none"/>
    <path d="M-3.75 -7.45 L-4.5 -9.5 0.0 -7.45 -3.75 -7.45" fill="#ffffff" fill-rule="evenodd" stroke="none"/>
    <path d="M0.0 -7.4 L-4.5 -9.5 0.0 -9.45 0.0 -7.4" fill="#ffffff" fill-rule="evenodd" stroke="none"/>
    <path d="M9.45 0.0 L8.1 -5.0 9.45 -6.4 11.0 0.0 9.45 0.0" fill="#333333" fill-rule="evenodd" stroke="none"/>
    <path d="M11.0 0.0 L9.45 6.4 8.1 5.0 9.45 0.0 11.0 0.0" fill="#999999" fill-rule="evenodd" stroke="none"/>
    <path d="M-11.0 0.0 L-9.45 -6.4 -8.1 -5.0 -9.45 0.0 -11.0 0.0" fill="#000000" fill-rule="evenodd" stroke="none"/>
    <path d="M-9.45 0.0 L-8.1 5.0 -9.45 6.4 -11.0 0.0 -9.45 0.0" fill="#999999" fill-rule="evenodd" stroke="none"/>
  </g>
</svg>
