<?xml version="1.0" encoding="UTF-8" standalone="no"?>
<svg xmlns:xlink="http://www.w3.org/1999/xlink" height="22.8px" width="22.7px" xmlns="http://www.w3.org/2000/svg">
  <g transform="matrix(1.0, 0.0, 0.0, 1.0, 11.35, 11.4)">
    <path d="M-4.6 4.65 L-4.6 -4.65 4.65 -4.65 4.65 4.65 -4.6 4.65" fill="#cccccc" fill-rule="evenodd" stroke="none"/>
    <path d="M4.65 4.65 L4.65 -4.65 9.45 0.0 4.65 4.65" fill="#ffffff" fill-rule="evenodd" stroke="none"/>
    <path d="M-9.45 0.0 L-4.6 -4.65 -4.6 4.65 -9.45 0.0" fill="#666666" fill-rule="evenodd" stroke="none"/>
    <path d="M4.65 -4.65 L-4.65 -4.65 0.05 -9.5 4.65 -4.65" fill="#a7a7a7" fill-rule="evenodd" stroke="none"/>
    <path d="M0.05 9.5 L-4.6 4.65 4.65 4.65 0.05 9.5" fill="#000000" fill-rule="evenodd" stroke="none"/>
    <path d="M9.45 0.0 L11.1 -1.85 Q11.1 -1.85 11.15 -1.6 11.25 -1.3 11.25 -1.05 11.25 -1.0 11.3 -0.9 11.3 -0.85 11.3 -0.75 11.3 -0.7 11.3 -0.6 11.3 -0.55 11.35 -0.5 11.35 -0.4 11.35 -0.35 11.35 -0.25 11.35 -0.2 11.35 -0.15 11.35 -0.1 11.35 0.0 11.35 0.05 11.35 0.1 11.35 0.15 11.35 0.2 11.35 0.3 11.35 0.35 11.35 0.4 11.35 0.5 11.35 0.55 11.35 0.6 11.35 0.7 11.35 0.75 11.3 0.85 11.3 0.9 11.3 1.0 11.3 1.05 11.3 1.1 11.25 1.45 11.15 1.85 L9.45 0.0" fill="#000000" fill-rule="evenodd" stroke="none"/>
    <path d="M4.65 -4.65 L6.65 -6.35 Q6.65 -6.35 6.65 -6.35 6.7 -6.35 6.75 -6.3 6.8 -6.3 6.9 -6.25 6.95 -6.2 7.05 -6.2 7.15 -6.15 7.25 -6.1 7.35 -6.0 7.45 -5.95 7.6 -5.9 7.7 -5.85 7.85 -5.75 7.95 -5.7 8.05 -5.65 8.2 -5.55 8.3 -5.45 8.4 -5.4 8.5 -5.3 8.65 -5.25 8.75 -5.15 8.85 -5.05 8.95 -5.0 9.05 -4.9 9.15 -4.85 9.25 -4.75 9.3 -4.7 9.4 -4.6 9.45 -4.55 9.55 -4.45 9.6 -4.4 9.65 -4.35 9.75 -4.25 9.8 -4.2 9.85 -4.1 9.9 -4.05 10.0 -3.95 10.05 -3.85 10.1 -3.75 10.2 -3.7 10.25 -3.6 10.3 -3.5 10.4 -3.4 10.45 -3.3 10.5 -3.25 10.55 -3.15 10.8 -2.5 11.1 -1.85 L9.45 0.0 4.65 -4.65" fill="#666666" fill-rule="evenodd" stroke="none"/>
    <path d="M4.65 4.65 L9.45 0.0 11.15 1.85 Q11.15 1.85 11.15 1.85 11.15 1.9 11.15 1.95 11.1 2.0 11.1 2.05 11.1 2.15 11.05 2.2 11.05 2.3 11.0 2.4 10.95 2.5 10.95 2.6 10.9 2.75 10.85 2.85 10.8 3.0 10.75 3.1 10.7 3.2 10.65 3.3 10.6 3.4 10.55 3.5 10.45 3.6 10.4 3.7 10.35 3.8 10.3 3.9 10.2 4.0 10.15 4.1 10.1 4.2 10.0 4.3 9.95 4.35 9.9 4.45 9.8 4.5 9.75 4.6 9.25 5.1 8.95 5.3 8.9 5.35 8.85 5.4 8.8 5.4 8.75 5.45 8.7 5.5 8.65 5.55 8.6 5.55 8.55 5.6 8.5 5.65 8.45 5.65 8.4 5.7 8.35 5.75 8.25 5.8 8.2 5.8 8.15 5.85 8.1 5.9 7.35 6.25 6.55 6.6 L4.65 4.65" fill="#cccccc" fill-rule="evenodd" stroke="none"/>
    <path d="M-11.15 1.85 Q-11.2 1.8 -11.3 1.1 -11.35 0.85 -11.35 0.55 -11.35 0.25 -11.35 0.05 -11.35 0.0 -11.35 -0.05 -11.35 -0.15 -11.35 -0.2 -11.35 -0.25 -11.35 -0.35 -11.35 -0.4 -11.35 -0.45 -11.3 -0.55 -11.3 -0.6 -11.3 -0.7 -11.3 -0.75 -11.3 -0.85 -11.3 -0.9 -11.3 -1.0 -11.25 -1.05 -11.15 -1.45 -11.1 -1.8 L-9.45 0.0 -11.15 1.85" fill="#cccccc" fill-rule="evenodd" stroke="none"/>
    <path d="M-9.45 0.0 L-11.1 -1.8 Q-11.1 -1.8 -11.1 -1.85 -11.1 -1.85 -11.05 -1.9 -11.05 -2.0 -11.05 -2.05 -11.0 -2.15 -10.95 -2.2 -10.95 -2.3 -10.9 -2.4 -10.85 -2.5 -10.8 -2.65 -10.75 -2.75 -10.7 -2.9 -10.6 -3.0 -10.55 -3.15 -10.5 -3.25 -10.45 -3.3 -10.4 -3.4 -10.3 -3.5 -10.25 -3.6 -10.2 -3.7 -10.15 -3.8 -10.05 -3.85 -10.0 -3.95 -9.95 -4.05 -9.85 -4.1 -9.8 -4.2 -9.75 -4.3 -9.65 -4.35 -9.6 -4.4 -9.55 -4.45 -9.5 -4.5 -9.4 -4.6 -9.35 -4.65 -9.25 -4.75 -9.15 -4.85 -9.05 -4.9 -8.95 -5.0 -8.85 -5.05 -8.75 -5.15 -8.65 -5.25 -8.55 -5.3 -8.4 -5.4 -8.3 -5.45 -8.2 -5.55 -8.1 -5.6 -7.95 -5.7 -7.2 -6.1 -6.4 -6.45 L-4.65 -4.65 -9.45 0.0" fill="#ffffff" fill-rule="evenodd" stroke="none"/>
    <path d="M-6.35 6.6 Q-6.35 6.6 -6.4 6.6 -6.45 6.6 -6.5 6.55 -6.6 6.55 -6.7 6.5 -6.8 6.45 -6.9 6.4 -7.05 6.35 -7.2 6.3 -7.35 6.25 -7.5 6.2 -7.65 6.1 -7.8 6.05 -7.95 5.95 -8.1 5.85 -8.15 5.8 -8.2 5.8 -8.25 5.75 -8.3 5.75 -8.35 5.7 -8.45 5.65 -8.5 5.65 -8.55 5.6 -8.6 5.55 -8.65 5.5 -8.7 5.5 -8.75 5.45 -8.8 5.4 -8.85 5.35 -8.9 5.35 -8.95 5.3 -9.0 5.25 -9.05 5.2 -9.15 5.15 -9.2 5.1 -9.25 5.05 -9.3 5.0 -9.35 4.95 -9.4 4.9 -9.45 4.85 -9.5 4.8 -9.55 4.8 -9.6 4.75 -9.6 4.7 -9.65 4.65 -9.7 4.6 -9.75 4.6 -9.8 4.55 -9.85 4.45 -9.95 4.35 -10.0 4.3 -10.05 4.2 -10.15 4.1 -10.2 4.0 -10.25 3.9 -10.35 3.8 -10.4 3.7 -10.45 3.6 -10.5 3.5 -10.55 3.4 -10.6 3.3 -10.65 3.2 -10.7 3.1 -10.9 2.45 -11.15 1.85 L-9.45 0.0 -4.65 4.65 -6.35 6.6" fill="#000000" fill-rule="evenodd" stroke="none"/>
    <path d="M1.85 11.2 Q1.8 11.25 1.15 11.35 1.1 11.35 1.0 11.35 0.95 11.35 0.85 11.35 0.8 11.4 0.7 11.4 0.65 11.4 0.55 11.4 0.5 11.4 0.45 11.4 0.35 11.4 0.3 11.4 0.25 11.4 0.15 11.4 0.1 11.4 0.05 11.4 0.0 11.4 -0.05 11.4 -0.1 11.4 -0.2 11.4 -0.25 11.4 -0.3 11.4 -0.4 11.4 -0.45 11.4 -0.55 11.35 -0.6 11.35 -0.65 11.35 -0.75 11.35 -0.8 11.35 -0.9 11.35 -0.95 11.35 -1.05 11.3 -1.4 11.2 -1.8 11.15 L0.05 9.5 1.85 11.2" fill="#666666" fill-rule="evenodd" stroke="none"/>
    <path d="M0.0 9.5 L-1.8 11.15 Q-1.8 11.15 -1.85 11.15 -1.85 11.15 -1.9 11.1 -1.95 11.1 -2.05 11.1 -2.1 11.05 -2.2 11.0 -2.3 11.0 -2.4 10.95 -2.5 10.9 -2.6 10.85 -2.75 10.8 -2.85 10.75 -3.0 10.65 -3.1 10.6 -3.2 10.55 -3.3 10.5 -3.35 10.45 -3.45 10.35 -3.55 10.3 -3.65 10.25 -3.75 10.15 -3.85 10.1 -3.9 10.05 -4.0 9.95 -4.1 9.9 -4.15 9.85 -4.25 9.75 -4.3 9.7 -4.35 9.65 -4.45 9.6 -4.5 9.55 -4.6 9.45 -4.65 9.35 -4.7 9.3 -4.8 9.2 -4.85 9.1 -4.95 9.0 -5.05 8.9 -5.1 8.8 -5.2 8.7 -5.25 8.55 -5.35 8.45 -5.4 8.35 -5.5 8.25 -5.55 8.1 -5.65 8.0 -6.0 7.3 -6.35 6.6 L-4.6 4.65 0.0 9.5" fill="#ffffff" fill-rule="evenodd" stroke="none"/>
    <path d="M6.55 6.6 Q6.55 6.6 6.55 6.65 6.55 6.65 6.5 6.75 6.5 6.8 6.45 6.9 6.45 6.95 6.4 7.05 6.35 7.2 6.3 7.3 6.25 7.45 6.15 7.55 6.1 7.7 6.05 7.85 5.95 8.0 5.9 8.15 5.5 8.8 5.3 9.0 5.25 9.05 5.2 9.1 5.15 9.2 5.1 9.25 5.05 9.3 5.0 9.35 4.95 9.4 4.9 9.45 4.9 9.5 4.85 9.55 4.8 9.6 4.75 9.65 4.7 9.7 4.65 9.7 4.6 9.75 4.6 9.8 4.55 9.85 4.45 9.95 4.4 10.0 4.3 10.05 4.2 10.1 4.1 10.2 4.0 10.25 3.9 10.3 3.8 10.4 3.7 10.45 3.6 10.5 3.5 10.55 3.4 10.65 3.3 10.7 3.2 10.75 3.1 10.8 2.45 11.0 1.85 11.2 L0.05 9.5 4.65 4.65 6.55 6.6" fill="#a7a7a7" fill-rule="evenodd" stroke="none"/>
    <path d="M0.05 -9.5 L-1.8 -11.15 Q-1.8 -11.15 -1.8 -11.15 -1.75 -11.15 -1.75 -11.15 -1.7 -11.15 -1.65 -11.2 -1.6 -11.2 -1.55 -11.2 -1.5 -11.2 -1.45 -11.25 -1.4 -11.25 -1.3 -11.25 -1.25 -11.3 -1.15 -11.3 -1.1 -11.3 -1.0 -11.3 -0.95 -11.3 -0.85 -11.35 -0.8 -11.35 -0.7 -11.35 -0.65 -11.35 -0.6 -11.35 -0.5 -11.35 -0.45 -11.4 -0.35 -11.4 -0.3 -11.4 -0.25 -11.4 -0.15 -11.4 -0.1 -11.4 -0.05 -11.4 0.0 -11.4 0.05 -11.4 0.1 -11.4 0.15 -11.4 0.25 -11.4 0.3 -11.4 0.35 -11.4 0.45 -11.4 0.5 -11.4 0.6 -11.4 0.65 -11.4 0.7 -11.4 0.8 -11.4 0.85 -11.35 0.95 -11.35 1.0 -11.35 1.1 -11.35 1.15 -11.35 1.5 -11.3 1.85 -11.2 L0.05 -9.5" fill="#666666" fill-rule="evenodd" stroke="none"/>
    <path d="M-4.65 -4.65 L-6.4 -6.45 Q-6.4 -6.45 -6.4 -6.5 -6.35 -6.5 -6.35 -6.6 -6.3 -6.65 -6.25 -6.75 -6.25 -6.85 -6.2 -6.95 -6.1 -7.1 -6.05 -7.2 -6.0 -7.35 -5.95 -7.45 -5.85 -7.6 -5.8 -7.75 -5.7 -7.9 -5.65 -8.0 -5.6 -8.1 -5.5 -8.25 -5.45 -8.35 -5.35 -8.45 -5.25 -8.55 -5.2 -8.7 -5.1 -8.8 -5.05 -8.9 -4.95 -9.0 -4.85 -9.1 -4.8 -9.2 -4.7 -9.3 -4.65 -9.35 -4.55 -9.45 -4.5 -9.55 -4.45 -9.6 -4.4 -9.65 -4.3 -9.7 -4.25 -9.8 -4.15 -9.85 -4.1 -9.9 -4.0 -9.95 -3.9 -10.05 -3.8 -10.1 -3.75 -10.15 -3.65 -10.25 -3.55 -10.3 -3.45 -10.35 -3.35 -10.45 -3.25 -10.5 -3.2 -10.55 -3.1 -10.6 -2.45 -10.85 -1.8 -11.15 L0.05 -9.5 -4.65 -4.65" fill="#cccccc" fill-rule="evenodd" stroke="none"/>
    <path d="M4.65 -4.65 L0.05 -9.5 1.85 -11.2 Q1.85 -11.2 1.9 -11.2 1.9 -11.2 1.95 -11.15 2.0 -11.15 2.05 -11.15 2.15 -11.1 2.25 -11.1 2.3 -11.05 2.4 -11.05 2.5 -11.0 2.65 -10.95 2.75 -10.9 2.85 -10.85 3.0 -10.8 3.1 -10.75 3.2 -10.7 3.3 -10.65 3.4 -10.6 3.5 -10.55 3.6 -10.5 3.7 -10.45 3.8 -10.35 3.9 -10.3 4.0 -10.25 4.1 -10.15 4.2 -10.1 4.3 -10.05 4.35 -9.95 4.45 -9.9 4.5 -9.85 4.6 -9.8 4.65 -9.75 4.9 -9.45 5.15 -9.2 5.3 -9.0 5.35 -8.95 5.4 -8.9 5.4 -8.85 5.45 -8.8 5.5 -8.75 5.55 -8.7 5.55 -8.65 5.6 -8.55 5.65 -8.5 5.65 -8.45 5.7 -8.4 5.75 -8.35 5.8 -8.3 5.8 -8.25 5.85 -8.2 5.9 -8.1 6.25 -7.2 6.65 -6.35 L4.65 -4.65" fill="#ffffff" fill-rule="evenodd" stroke="none"/>
    <path d="M0.0 2.8 L-2.8 -4.65 4.65 -1.65 4.65 4.65 0.0 2.8" fill="#a7a7a7" fill-rule="evenodd" stroke="none"/>
    <path d="M-2.3 -5.4 L-0.8 -7.55 0.05 -9.5 1.05 -7.25 4.3 -4.65 -2.3 -5.4" fill="#666666" fill-rule="evenodd" stroke="none"/>
    <path d="M-9.0 -0.4 L-5.45 -3.85 -4.6 -1.5 -5.05 1.75 -9.0 -0.4" fill="#999999" fill-rule="evenodd" stroke="none"/>
    <path d="M5.8 1.25 L4.6 -1.65 6.65 -1.95 9.1 0.35 4.65 4.65 5.8 1.25" fill="#666666" fill-rule="evenodd" stroke="none"/>
    <path d="M-1.15 8.25 L-3.05 4.65 2.35 5.55 0.05 9.5 -1.15 8.25" fill="#666666" fill-rule="evenodd" stroke="none"/>
  </g>
</svg>
