<?xml version="1.0" encoding="UTF-8" standalone="no"?>
<svg xmlns:xlink="http://www.w3.org/1999/xlink" height="23.0px" width="23.0px" xmlns="http://www.w3.org/2000/svg">
  <g transform="matrix(1.0, 0.0, 0.0, 1.0, 11.5, 11.5)">
    <path d="M-11.45 -6.15 L-8.6 -10.35 -3.85 -11.45 -6.95 -9.1 -11.45 -6.15" fill="#ffffff" fill-rule="evenodd" stroke="none"/>
    <path d="M-11.05 -2.45 L-11.5 -5.9 -9.3 -2.8 -9.0 1.7 -11.05 -2.45" fill="#ffffff" fill-rule="evenodd" stroke="none"/>
    <path d="M-9.0 1.7 L-6.05 2.6 -5.45 6.6 -9.0 1.7" fill="#666666" fill-rule="evenodd" stroke="none"/>
    <path d="M-5.15 7.0 L-1.7 7.25 -0.1 11.45 -5.15 7.0" fill="#ffffff" fill-rule="evenodd" stroke="none"/>
    <path d="M-0.05 11.5 L-1.25 6.75 -1.0 6.25 0.05 6.75 -0.05 11.5" fill="#000000" fill-rule="evenodd" stroke="none"/>
    <path d="M-1.0 6.3 L0.0 4.55 -0.05 6.8 -1.0 6.3" fill="#cccccc" fill-rule="evenodd" stroke="none"/>
    <path d="M-0.05 11.5 L-1.7 7.25 -1.25 6.75 -0.05 11.5" fill="#a7a7a7" fill-rule="evenodd" stroke="none"/>
    <path d="M-5.45 6.6 L-6.1 2.6 -1.25 6.75 -1.7 7.25 -5.15 7.0 -5.45 6.6" fill="#cccccc" fill-rule="evenodd" stroke="none"/>
    <path d="M-9.0 1.7 L-9.3 -2.8 -7.9 -1.7 -6.05 2.6 -9.0 1.7" fill="#a7a7a7" fill-rule="evenodd" stroke="none"/>
    <path d="M-11.5 -5.9 L-11.45 -6.15 -6.95 -9.1 -9.3 -2.75 -11.5 -5.9" fill="#a7a7a7" fill-rule="evenodd" stroke="none"/>
    <path d="M-6.95 -9.1 L-3.85 -11.45 -3.5 -11.5 0.05 -8.05 -6.95 -9.1" fill="#666666" fill-rule="evenodd" stroke="none"/>
    <path d="M-2.65 -4.25 L-6.95 -9.1 0.05 -8.05 0.05 -5.5 -2.65 -4.25" fill="#cccccc" fill-rule="evenodd" stroke="none"/>
    <path d="M-6.8 -6.4 L-7.95 -6.5 -6.95 -9.1 -2.65 -4.25 -6.8 -6.4" fill="#000000" fill-rule="evenodd" stroke="none"/>
    <path d="M-9.3 -2.8 L-7.95 -6.5 -7.4 -6.45 -6.5 -1.9 -9.3 -2.8" fill="#ffffff" fill-rule="evenodd" stroke="none"/>
    <path d="M-7.9 -1.75 L-9.25 -2.8 -6.5 -1.9 -6.05 2.6 -7.9 -1.75" fill="#666666" fill-rule="evenodd" stroke="none"/>
    <path d="M-6.05 2.6 L-6.5 -1.9 -6.1 -0.65 -2.8 3.05 -1.25 6.75 -6.05 2.6" fill="#a7a7a7" fill-rule="evenodd" stroke="none"/>
    <path d="M-1.25 6.75 L-2.8 3.05 0.05 4.55 -1.25 6.75" fill="#666666" fill-rule="evenodd" stroke="none"/>
    <path d="M-6.65 -1.85 L-7.45 -6.45 Q-7.45 -6.45 -7.1 -6.45 -6.7 -6.4 -6.7 -6.4 -6.1 -6.15 -3.0 -4.45 -1.55 -3.6 -0.05 -2.75 L-6.65 -1.85" fill="#666666" fill-rule="evenodd" stroke="none"/>
    <path d="M-6.65 -1.85 L-7.45 -6.45 Q-7.45 -6.45 -7.1 -6.45 -6.7 -6.4 -6.7 -6.4 -6.1 -6.15 -3.0 -4.45 -1.55 -3.6 -0.05 -2.75 L-6.65 -1.85 Z" fill="none" stroke="#666666" stroke-linecap="round" stroke-linejoin="round" stroke-width="1.0"/>
    <path d="M-0.1 -2.75 Q-0.2 -2.7 2.95 -4.4 6.1 -6.1 6.7 -6.3 7.05 -6.35 7.45 -6.45 L6.5 -1.85 -0.1 -2.75" fill="#cccccc" fill-rule="evenodd" stroke="none"/>
    <path d="M-0.1 -2.75 Q-0.2 -2.7 2.95 -4.4 6.1 -6.1 6.7 -6.3 7.05 -6.35 7.45 -6.45 L6.5 -1.85 -0.1 -2.75 Z" fill="none" stroke="#cccccc" stroke-linecap="round" stroke-linejoin="round" stroke-width="1.0"/>
    <path d="M1.8 3.6 L-0.05 -2.75 6.5 -1.9 6.1 -0.65 2.8 3.05 1.8 3.6" fill="#666666" fill-rule="evenodd" stroke="none"/>
    <path d="M-2.95 3.05 L-6.25 -0.65 -6.65 -1.9 -0.1 -2.75 -1.95 3.6 -2.95 3.05" fill="#ffffff" fill-rule="evenodd" stroke="none"/>
    <path d="M-3.5 -11.5 L-0.05 -10.15 3.5 -11.5 -0.05 -8.05 -3.5 -11.5" fill="#a7a7a7" fill-rule="evenodd" stroke="none"/>
    <path d="M6.95 -9.1 L3.85 -11.45 8.6 -10.35 11.45 -6.15 6.95 -9.1" fill="#a7a7a7" fill-rule="evenodd" stroke="none"/>
    <path d="M9.0 1.75 L9.3 -2.75 11.5 -5.9 11.05 -2.45 9.0 1.75" fill="#ffffff" fill-rule="evenodd" stroke="none"/>
    <path d="M5.45 6.6 L6.05 2.6 9.0 1.75 5.45 6.6" fill="#666666" fill-rule="evenodd" stroke="none"/>
    <path d="M-0.05 11.45 L1.7 7.25 5.15 7.0 -0.05 11.45" fill="#cccccc" fill-rule="evenodd" stroke="none"/>
    <path d="M-0.05 6.8 L1.0 6.3 1.25 6.75 -0.05 11.5 -0.05 6.8" fill="#cccccc" fill-rule="evenodd" stroke="none"/>
    <path d="M-0.05 6.8 L0.0 4.55 1.0 6.3 -0.05 6.8" fill="#666666" fill-rule="evenodd" stroke="none"/>
    <path d="M-0.05 11.5 L1.25 6.75 1.7 7.25 -0.05 11.5" fill="#666666" fill-rule="evenodd" stroke="none"/>
    <path d="M5.15 7.0 L1.7 7.25 1.25 6.75 6.1 2.6 5.45 6.6 5.15 7.0" fill="#000000" fill-rule="evenodd" stroke="none"/>
    <path d="M6.05 2.6 L7.9 -1.7 9.3 -2.75 9.0 1.75 6.05 2.6" fill="#cccccc" fill-rule="evenodd" stroke="none"/>
    <path d="M9.3 -2.75 L6.95 -9.1 11.45 -6.15 11.5 -5.9 9.3 -2.75" fill="#666666" fill-rule="evenodd" stroke="none"/>
    <path d="M-0.05 -2.8 L-2.65 -4.25 -0.05 -5.5 2.7 -4.25 -0.05 -2.8" fill="#a7a7a7" fill-rule="evenodd" stroke="none"/>
    <path d="M-0.05 -8.05 L3.5 -11.5 3.85 -11.45 6.95 -9.1 -0.05 -8.05" fill="#ffffff" fill-rule="evenodd" stroke="none"/>
    <path d="M-0.05 -5.5 L-0.05 -8.05 6.95 -9.1 2.65 -4.25 -0.05 -5.5" fill="#666666" fill-rule="evenodd" stroke="none"/>
    <path d="M2.65 -4.25 L6.95 -9.1 7.95 -6.5 6.8 -6.35 2.65 -4.25" fill="#ffffff" fill-rule="evenodd" stroke="none"/>
    <path d="M6.5 -1.9 L7.4 -6.45 7.95 -6.5 9.3 -2.8 6.5 -1.9" fill="#a7a7a7" fill-rule="evenodd" stroke="none"/>
    <path d="M6.05 2.6 L6.45 -1.9 9.25 -2.8 7.9 -1.75 6.05 2.6" fill="#000000" fill-rule="evenodd" stroke="none"/>
    <path d="M1.25 6.8 L2.8 3.05 6.1 -0.65 6.5 -1.9 6.05 2.6 1.25 6.8" fill="#cccccc" fill-rule="evenodd" stroke="none"/>
    <path d="M-0.05 4.55 L2.8 3.05 1.25 6.75 -0.05 4.55" fill="#ffffff" fill-rule="evenodd" stroke="none"/>
  </g>
</svg>
