<?xml version="1.0" encoding="UTF-8" standalone="no"?>
<svg xmlns:xlink="http://www.w3.org/1999/xlink" height="20.7px" width="23.0px" xmlns="http://www.w3.org/2000/svg">
  <g transform="matrix(1.0, 0.0, 0.0, 1.0, 11.5, 10.3)">
    <path d="M-1.8 -10.25 Q-1.8 -10.25 -1.55 -10.2 -1.3 -10.2 -1.2 -10.15 -1.05 -10.0 -0.85 -9.85 -1.15 -10.25 -0.35 -9.35 0.0 -8.9 0.35 -8.45 L-1.3 -3.5 -5.0 -10.25 Q-5.1 -10.3 -3.3 -10.3 -2.55 -10.25 -1.8 -10.25 L-1.8 -10.25" fill="#a7a7a7" fill-rule="evenodd" stroke="none"/>
    <path d="M-5.45 -10.05 L-1.3 -3.5 -6.9 -4.8 Q-6.9 -4.8 -6.95 -5.3 -7.0 -5.95 -7.05 -6.35 -7.1 -7.35 -7.0 -7.5 -7.0 -7.5 -7.0 -7.55 -6.95 -7.6 -6.95 -7.7 -6.9 -7.75 -6.85 -7.85 -6.85 -7.9 -6.8 -8.0 -6.75 -8.1 -6.7 -8.25 -6.6 -8.35 -6.55 -8.45 -6.5 -8.6 -6.45 -8.7 -6.35 -8.8 -6.3 -8.95 -5.85 -9.5 -5.45 -10.05 L-5.45 -10.05" fill="#666666" fill-rule="evenodd" stroke="none"/>
    <path d="M-5.45 -10.05 Q-5.45 -10.05 -5.4 -10.1 -5.4 -10.15 -5.35 -10.15 -5.3 -10.2 -5.3 -10.25 -5.15 -10.25 -5.0 -10.25 -5.0 -10.25 -4.4 -9.15 -3.45 -7.45 -3.35 -7.2 -2.65 -6.0 -1.75 -4.3 -1.55 -3.9 -1.3 -3.5 -1.3 -3.45 -1.8 -4.25 -2.05 -4.65 -3.6 -7.1 -4.5 -8.6 -5.45 -10.05 L-5.45 -10.05" fill="#ffffff" fill-rule="evenodd" stroke="none"/>
    <path d="M-1.3 -3.5 L0.35 -8.45 1.05 -8.45 2.25 -3.55 -1.3 -3.5" fill="#333333" fill-rule="evenodd" stroke="none"/>
    <path d="M-9.75 -3.45 Q-9.75 -3.45 -9.55 -3.7 -9.3 -3.95 -9.25 -4.0 -9.25 -4.0 -9.2 -4.0 -9.15 -4.05 -9.15 -4.05 -9.1 -4.1 -9.0 -4.1 -8.95 -4.15 -8.9 -4.15 -8.8 -4.2 -8.75 -4.2 -8.65 -4.25 -8.55 -4.25 -8.5 -4.3 -8.4 -4.35 -8.3 -4.35 -8.2 -4.4 -7.6 -4.5 -7.0 -4.6 L-3.7 -0.4 -11.45 -0.6 Q-11.55 -0.45 -11.05 -1.3 -10.65 -2.1 -10.45 -2.4 -10.1 -2.95 -9.75 -3.45 L-9.75 -3.45" fill="#333333" fill-rule="evenodd" stroke="none"/>
    <path d="M-11.45 -0.2 L-3.7 -0.4 -7.7 3.8 Q-7.95 3.75 -9.25 3.05 -10.0 2.65 -10.1 2.5 -10.4 2.15 -10.85 1.15 -11.15 0.5 -11.45 -0.2 L-11.45 -0.2" fill="#000000" fill-rule="evenodd" stroke="none"/>
    <path d="M-11.45 -0.15 Q-11.45 -0.15 -11.45 -0.25 -11.5 -0.4 -11.5 -0.45 -11.45 -0.55 -11.4 -0.65 -11.4 -0.65 -10.15 -0.6 -8.55 -0.55 -7.95 -0.55 -7.45 -0.55 -6.3 -0.5 -4.95 -0.45 -4.6 -0.45 -4.15 -0.4 -3.7 -0.4 -3.7 -0.35 -4.6 -0.35 -4.6 -0.35 -7.95 -0.25 -9.7 -0.2 -11.45 -0.15 L-11.45 -0.15" fill="#666666" fill-rule="evenodd" stroke="none"/>
    <path d="M-3.7 -0.4 L-7.0 -4.55 -6.85 -4.85 -1.35 -3.5 -3.7 -0.4" fill="#a7a7a7" fill-rule="evenodd" stroke="none"/>
    <path d="M-2.3 3.15 L-7.6 4.2 -7.7 3.75 -3.75 -0.4 -2.3 3.15" fill="#333333" fill-rule="evenodd" stroke="none"/>
    <path d="M-7.9 6.85 Q-7.9 6.85 -8.05 6.55 -8.15 6.25 -8.15 6.15 -8.2 6.0 -7.9 5.1 -7.75 4.65 -7.6 4.2 L-2.3 3.15 -6.4 9.7 Q-6.4 9.7 -6.75 9.1 -7.15 8.4 -7.3 8.1 -7.6 7.45 -7.9 6.85 L-7.9 6.85" fill="#ffffff" fill-rule="evenodd" stroke="none"/>
    <path d="M-6.0 9.95 L-2.25 3.15 -0.8 8.45 Q-0.8 8.45 -1.2 8.75 -1.65 9.15 -2.05 9.4 -2.15 9.45 -2.25 9.55 -2.35 9.6 -2.4 9.65 -2.5 9.7 -2.6 9.75 -2.7 9.8 -2.75 9.85 -2.85 9.9 -2.9 9.95 -3.0 9.95 -3.05 10.0 -3.1 10.0 -3.1 10.05 -3.15 10.05 -3.15 10.05 -3.5 10.1 -4.6 10.05 -5.3 10.0 -6.0 9.95 L-6.0 9.95" fill="#a7a7a7" fill-rule="evenodd" stroke="none"/>
    <path d="M-6.0 10.0 Q-6.0 10.0 -6.1 9.95 -6.2 9.95 -6.25 9.9 -6.3 9.8 -6.4 9.7 -6.4 9.7 -4.55 6.75 -4.35 6.4 -3.7 5.35 -3.05 4.35 -2.8 3.9 -2.55 3.55 -2.3 3.15 -2.25 3.15 -2.7 3.95 -2.95 4.45 -3.55 5.45 -4.2 6.7 -4.3 6.9 -5.15 8.45 -6.0 10.0 L-6.0 10.0" fill="#666666" fill-rule="evenodd" stroke="none"/>
    <path d="M1.4 3.5 L-0.3 8.5 -0.8 8.4 -2.3 3.15 1.4 3.5" fill="#333333" fill-rule="evenodd" stroke="none"/>
    <path d="M1.85 10.35 Q1.85 10.35 1.6 10.3 1.35 10.3 1.3 10.25 1.15 10.1 0.95 9.95 0.95 9.95 0.75 9.7 0.45 9.45 0.4 9.35 0.05 8.95 -0.3 8.5 L1.35 3.6 5.1 10.35 Q5.0 10.4 3.45 10.4 2.65 10.35 1.85 10.35 L1.85 10.35" fill="#666666" fill-rule="evenodd" stroke="none"/>
    <path d="M5.5 10.15 L1.35 3.6 6.95 4.9 Q6.95 4.9 7.0 5.3 7.05 5.75 7.1 6.1 7.15 7.45 7.1 7.6 6.65 8.45 6.4 8.85 5.95 9.5 5.5 10.15 L5.5 10.15" fill="#a7a7a7" fill-rule="evenodd" stroke="none"/>
    <path d="M5.5 10.15 Q5.5 10.15 5.5 10.2 5.45 10.25 5.4 10.25 5.4 10.3 5.35 10.35 5.2 10.35 5.1 10.35 5.05 10.35 3.4 7.3 2.0 4.75 1.8 4.4 1.6 4.0 1.4 3.6 1.4 3.6 1.5 3.8 1.75 4.15 1.85 4.35 2.25 4.95 3.65 7.2 4.6 8.7 5.5 10.15 L5.5 10.15" fill="#ffffff" fill-rule="evenodd" stroke="none"/>
    <path d="M9.95 3.2 Q9.95 3.2 9.75 3.5 9.55 3.8 9.45 3.85 9.15 4.0 8.35 4.3 7.7 4.5 7.1 4.7 L3.8 0.5 11.35 0.75 Q11.4 0.8 10.7 2.0 10.3 2.6 9.95 3.2 L9.95 3.2" fill="#a7a7a7" fill-rule="evenodd" stroke="none"/>
    <path d="M11.45 0.25 L3.8 0.5 7.8 -3.65 Q7.7 -3.8 8.95 -3.15 10.05 -2.6 10.2 -2.4 10.2 -2.4 10.4 -2.0 10.65 -1.6 10.8 -1.25 11.1 -0.5 11.45 0.25 L11.45 0.25" fill="#333333" fill-rule="evenodd" stroke="none"/>
    <path d="M11.45 0.25 Q11.45 0.25 11.45 0.35 11.5 0.5 11.5 0.55 11.4 0.65 11.35 0.75 11.35 0.75 10.15 0.7 8.45 0.65 8.0 0.65 7.5 0.65 6.4 0.6 4.95 0.55 4.7 0.55 4.25 0.5 3.8 0.5 3.75 0.45 4.65 0.45 4.75 0.45 8.05 0.35 9.75 0.3 11.45 0.25 L11.45 0.25" fill="#666666" fill-rule="evenodd" stroke="none"/>
    <path d="M3.8 0.5 L7.1 4.65 6.95 4.9 1.4 3.6 3.8 0.5" fill="#ffffff" fill-rule="evenodd" stroke="none"/>
    <path d="M2.3 -3.55 L7.65 -4.1 7.8 -3.65 3.8 0.5 2.3 -3.55" fill="#a7a7a7" fill-rule="evenodd" stroke="none"/>
    <path d="M8.0 -6.75 Q8.0 -6.75 8.1 -6.45 8.25 -6.15 8.25 -6.05 8.25 -6.05 8.25 -6.0 8.25 -5.95 8.25 -5.9 8.25 -5.85 8.2 -5.8 8.2 -5.75 8.2 -5.7 8.2 -5.6 8.15 -5.55 8.15 -5.45 8.15 -5.4 8.1 -5.3 8.1 -5.2 8.05 -5.15 8.05 -5.05 7.85 -4.55 7.65 -4.05 L2.3 -3.55 6.45 -9.6 Q6.5 -9.65 7.4 -8.0 7.7 -7.35 8.0 -6.75 L8.0 -6.75" fill="#a7a7a7" fill-rule="evenodd" stroke="none"/>
    <path d="M6.05 -9.9 L2.25 -3.5 1.05 -8.45 Q0.95 -8.5 2.0 -9.3 2.1 -9.35 2.15 -9.45 2.25 -9.5 2.35 -9.55 2.4 -9.6 2.5 -9.65 2.55 -9.7 2.65 -9.75 2.7 -9.8 2.75 -9.85 2.85 -9.85 2.9 -9.9 2.95 -9.9 2.95 -9.95 3.0 -9.95 3.0 -9.95 3.5 -10.0 4.4 -10.0 5.25 -9.95 6.05 -9.9 L6.05 -9.9" fill="#666666" fill-rule="evenodd" stroke="none"/>
    <path d="M6.05 -9.9 Q6.05 -9.9 6.15 -9.85 6.3 -9.8 6.35 -9.8 6.4 -9.7 6.5 -9.55 6.5 -9.55 5.65 -8.35 4.5 -6.65 4.3 -6.35 4.15 -6.15 3.85 -5.7 3.45 -5.15 3.35 -4.95 2.8 -4.25 2.3 -3.5 2.3 -3.5 3.15 -5.05 3.4 -5.45 3.65 -5.85 3.9 -6.25 4.1 -6.6 5.1 -8.25 6.05 -9.9 L6.05 -9.9" fill="#ffffff" fill-rule="evenodd" stroke="none"/>
    <path d="M-3.75 -0.35 L-1.4 -3.55 2.4 -3.55 3.85 0.5 1.45 3.5 -2.3 3.35 -3.75 -0.35" fill="#333333" fill-rule="evenodd" stroke="none"/>
    <path d="M-1.45 -3.55 L-2.2 -4.9 3.3 -4.9 2.4 -3.55 -1.45 -3.55" fill="#a7a7a7" fill-rule="evenodd" stroke="none"/>
    <path d="M2.4 -3.55 L3.3 -4.9 5.3 0.55 3.85 0.5 2.4 -3.55" fill="#ffffff" fill-rule="evenodd" stroke="none"/>
    <path d="M1.45 3.5 L3.85 0.5 5.3 0.55 1.95 4.6 1.45 3.5" fill="#666666" fill-rule="evenodd" stroke="none"/>
    <path d="M-3.1 4.45 L-2.3 3.35 1.45 3.5 1.95 4.6 -3.1 4.45" fill="#000000" fill-rule="evenodd" stroke="none"/>
    <path d="M-3.1 4.4 L-5.25 -0.45 -3.75 -0.35 -2.3 3.35 -3.1 4.4" fill="#a7a7a7" fill-rule="evenodd" stroke="none"/>
    <path d="M-3.75 -0.35 L-5.25 -0.45 -2.2 -4.9 -1.4 -3.55 -3.75 -0.35" fill="#666666" fill-rule="evenodd" stroke="none"/>
  </g>
</svg>
