<?xml version="1.0" encoding="UTF-8" standalone="no"?>
<svg xmlns:xlink="http://www.w3.org/1999/xlink" height="20.7px" width="23.0px" xmlns="http://www.w3.org/2000/svg">
  <g transform="matrix(1.0, 0.0, 0.0, 1.0, 11.5, 10.3)">
    <path d="M1.45 -9.2 Q1.65 -9.2 1.95 -9.15 2.2 -9.1 2.55 -9.0 2.9 -8.95 3.3 -8.85 3.65 -8.75 4.1 -8.6 4.45 -8.5 4.9 -8.35 5.25 -8.2 5.65 -8.1 6.0 -7.95 6.3 -7.85 6.65 -7.7 6.85 -7.65 7.3 -7.4 7.35 -7.4 7.55 -7.3 7.7 -7.2 7.85 -7.1 8.0 -7.0 8.1 -6.95 8.2 -6.85 8.25 -6.8 8.35 -6.7 8.4 -6.65 8.45 -6.6 8.45 -6.6 8.5 -6.55 8.5 -6.55 8.55 -6.5 8.55 -6.5 8.55 -6.5 8.55 -6.5 8.55 -6.45 8.55 -6.45 8.6 -6.35 8.65 -6.25 8.65 -6.2 8.7 -6.1 8.75 -6.0 8.8 -5.85 8.85 -5.75 8.9 -5.6 8.95 -5.45 9.05 -5.25 9.1 -5.1 9.15 -4.9 9.2 -4.7 9.45 -3.8 10.5 -1.75 11.15 -0.5 11.5 0.1 11.55 -0.05 10.35 2.5 9.1 5.2 8.8 6.25 8.6 6.9 8.4 7.55 8.4 7.55 8.4 7.6 8.35 7.6 8.3 7.65 8.25 7.65 8.2 7.7 8.1 7.75 8.05 7.8 7.95 7.85 7.8 7.95 7.7 8.0 7.6 8.05 7.45 8.1 7.3 8.2 7.15 8.25 7.0 8.3 6.7 8.4 6.4 8.5 6.1 8.6 5.75 8.7 5.4 8.8 5.05 8.9 4.7 9.0 4.35 9.1 3.95 9.2 3.6 9.25 3.25 9.35 2.9 9.4 2.55 9.45 2.25 9.5 1.95 9.5 1.7 9.5 1.6 9.5 1.5 9.55 1.4 9.6 1.25 9.65 1.15 9.7 1.0 9.8 0.85 9.9 0.7 10.0 0.6 10.05 0.5 10.15 0.3 10.25 0.25 10.25 0.2 10.35 0.15 10.35 0.1 10.4 0.1 10.4 0.1 10.35 0.3 8.65 0.5 6.85 0.5 6.15 0.6 4.0 0.5 -6.5 0.5 -6.9 0.5 -7.3 0.45 -7.65 0.45 -8.0 0.4 -8.35 0.35 -8.65 0.35 -8.9 0.3 -9.15 0.3 -9.35 0.25 -9.55 0.2 -9.7 0.2 -9.85 0.2 -9.95 0.15 -10.05 0.15 -10.1 0.15 -10.1 0.15 -10.1 0.2 -10.05 0.25 -10.0 0.3 -9.95 0.4 -9.85 0.5 -9.8 0.6 -9.7 0.7 -9.6 0.85 -9.55 0.95 -9.45 1.05 -9.4 1.15 -9.3 1.25 -9.25 1.35 -9.2 1.4 -9.2 1.45 -9.2 L1.45 -9.2" fill="#e2e2e2" fill-rule="evenodd" stroke="none"/>
    <path d="M0.05 -10.1 Q0.05 -10.1 0.05 -10.05 0.0 -9.95 0.0 -9.85 -0.05 -9.7 -0.05 -9.55 -0.1 -9.35 -0.1 -9.15 -0.15 -8.9 -0.2 -8.65 -0.2 -8.35 -0.25 -8.0 -0.25 -7.65 -0.3 -7.3 -0.3 -6.9 -0.3 -6.5 -0.4 4.05 -0.3 6.15 -0.25 6.9 -0.1 8.65 0.1 10.4 0.1 10.4 0.1 10.4 0.05 10.35 0.0 10.35 -0.1 10.3 -0.2 10.2 -0.3 10.15 -0.4 10.05 -0.55 10.0 -0.65 9.9 -0.8 9.8 -0.95 9.75 -1.05 9.65 -1.2 9.6 -1.3 9.55 -1.4 9.55 -1.5 9.5 -1.75 9.5 -2.1 9.45 -2.4 9.45 -2.75 9.4 -3.05 9.35 -3.4 9.25 -3.75 9.2 -4.15 9.1 -4.5 9.0 -4.85 8.9 -5.2 8.85 -5.55 8.7 -5.85 8.6 -6.2 8.5 -6.5 8.4 -6.8 8.3 -6.95 8.25 -7.1 8.2 -7.25 8.1 -7.4 8.05 -7.5 8.0 -7.65 7.95 -7.75 7.9 -7.85 7.8 -7.9 7.75 -8.0 7.7 -8.05 7.7 -8.1 7.65 -8.15 7.6 -8.2 7.6 -8.2 7.6 -8.2 7.55 -8.25 7.75 -8.65 6.3 -8.95 5.25 -10.25 2.55 -11.4 0.15 -11.5 0.0 -11.75 0.5 -10.45 -1.8 -9.25 -3.8 -9.0 -4.7 -8.65 -5.6 -8.35 -6.5 -8.35 -6.5 -8.35 -6.5 -8.3 -6.55 -8.3 -6.55 -8.3 -6.6 -8.25 -6.6 -8.2 -6.65 -8.15 -6.7 -8.05 -6.8 -8.0 -6.85 -7.9 -6.95 -7.8 -7.0 -7.65 -7.1 -7.5 -7.2 -7.35 -7.3 -7.15 -7.4 -7.15 -7.4 -7.1 -7.45 -7.05 -7.45 -7.05 -7.45 -7.0 -7.45 -7.0 -7.5 -6.95 -7.5 -6.9 -7.5 -6.9 -7.55 -6.85 -7.55 -6.85 -7.55 -6.8 -7.55 -6.75 -7.6 -6.75 -7.6 -6.7 -7.6 -6.65 -7.65 -5.5 -8.1 -3.9 -8.6 -1.95 -9.2 -1.3 -9.2 -1.25 -9.2 -1.15 -9.25 -1.1 -9.25 -0.95 -9.35 -0.85 -9.4 -0.75 -9.45 -0.65 -9.55 -0.5 -9.6 -0.4 -9.7 -0.3 -9.8 -0.2 -9.85 -0.1 -9.95 -0.05 -10.0 0.0 -10.05 0.05 -10.1 0.05 -10.1 L0.05 -10.1" fill="#e2e2e2" fill-rule="evenodd" stroke="none"/>
    <path d="M0.1 10.4 Q0.05 10.4 -0.2 8.6 -0.5 6.45 -0.5 5.1 -0.45 -4.55 -0.4 -5.75 -0.4 -6.25 -0.35 -6.75 -0.35 -7.15 -0.3 -7.6 -0.25 -7.95 -0.2 -8.35 -0.2 -8.65 -0.15 -8.95 -0.1 -9.2 -0.1 -9.45 -0.05 -9.65 -0.05 -9.8 0.0 -9.95 0.0 -10.05 0.0 -10.05 0.0 -10.1 0.0 -10.1 0.05 -10.2 0.1 -10.3 0.1 -10.3 0.1 -10.3 0.15 -10.2 0.15 -10.15 0.2 -10.1 0.2 -10.1 0.2 -10.05 0.2 -10.05 0.25 -9.95 0.25 -9.8 0.25 -9.75 0.3 -9.6 0.3 -9.45 0.35 -9.3 0.35 -9.1 0.4 -8.95 0.4 -8.75 0.45 -8.5 0.5 -8.3 0.5 -8.05 0.55 -7.8 0.55 -7.65 0.55 -7.5 0.6 -7.35 0.6 -7.15 0.6 -7.0 0.6 -6.85 0.6 -6.65 0.6 -6.5 0.65 -6.35 0.65 -6.15 0.65 -6.0 0.65 -5.8 0.65 -5.6 0.65 -5.45 0.65 -5.25 0.65 -5.05 0.65 -4.9 0.7 -0.7 0.75 2.75 0.7 4.8 0.65 5.4 0.65 5.95 0.6 6.5 0.55 7.05 0.5 7.55 0.45 8.0 0.4 8.4 0.35 8.8 0.3 9.15 0.25 9.5 0.2 9.75 0.2 10.0 0.15 10.15 0.1 10.3 0.1 10.35 0.1 10.4 L0.1 10.4" fill="#000000" fill-rule="evenodd" stroke="none"/>
    <path d="M-5.05 -0.8 Q-5.2 -0.5 -5.1 -0.75 -5.1 -0.65 -5.15 -0.55 -5.25 -0.4 -5.3 -0.3 -5.35 -0.15 -5.45 0.05 -5.55 0.2 -5.65 0.4 -5.75 0.55 -5.85 0.75 -5.95 0.9 -6.05 1.05 -6.15 1.25 -6.3 1.35 -6.35 1.4 -6.4 1.45 -6.4 1.5 -6.45 1.55 -6.5 1.6 -6.55 1.6 -6.6 1.65 -6.6 1.65 -6.65 1.7 -6.7 1.7 -6.7 1.7 -6.75 1.7 -6.8 1.7 -6.8 1.7 -6.85 1.65 -6.9 1.65 -7.0 1.55 -7.05 1.3 -7.15 1.05 -7.15 0.7 -7.2 0.35 -7.25 -0.1 -7.25 -0.45 -7.25 -0.9 -7.25 -1.3 -7.25 -1.75 -7.25 -2.1 -7.2 -2.5 -7.2 -2.7 -7.2 -3.1 -7.2 -3.35 -7.2 -3.4 -7.2 -3.55 -7.1 -3.75 -7.0 -3.95 -6.85 -4.2 -6.7 -4.4 -6.5 -4.6 -6.35 -4.8 -6.15 -5.05 -5.95 -5.25 -5.75 -5.4 -5.55 -5.6 -5.4 -5.75 -5.25 -5.85 -5.15 -5.95 -5.1 -6.0 -5.05 -6.0 -5.05 -6.0 -2.45 -7.35 0.15 -8.65 0.1 -8.7 0.1 -8.7 2.8 -7.35 4.15 -6.7 5.5 -6.0 5.5 -6.0 5.6 -5.95 5.7 -5.85 5.85 -5.75 6.0 -5.6 6.2 -5.45 6.4 -5.25 6.6 -5.1 6.8 -4.9 7.0 -4.7 7.2 -4.45 7.35 -4.3 7.5 -4.05 7.6 -3.9 7.7 -3.7 7.7 -3.5 7.7 -3.45 7.7 -3.2 7.7 -2.75 7.7 -2.6 7.7 -2.15 7.7 -1.75 7.7 -1.3 7.7 -0.85 7.7 -0.35 7.65 0.05 7.65 0.5 7.6 0.9 7.55 1.3 7.5 1.5 7.45 1.8 7.35 1.9 7.25 2.0 7.1 2.0 6.95 1.95 6.8 1.75 6.65 1.6 6.5 1.35 6.35 1.1 6.2 0.8 6.05 0.55 5.9 0.25 5.8 0.0 5.7 -0.25 5.6 -0.45 5.55 -0.65 5.5 -0.7 5.5 -0.8 5.5 -0.8 5.35 -0.9 5.1 -1.1 4.9 -1.25 4.55 -1.5 4.25 -1.7 3.85 -2.0 3.45 -2.25 3.0 -2.55 2.55 -2.8 2.1 -3.1 1.65 -3.3 1.2 -3.5 0.8 -3.6 0.4 -3.75 0.05 -3.75 -0.25 -3.75 -0.65 -3.6 -1.05 -3.5 -1.45 -3.3 -1.85 -3.1 -2.3 -2.8 -2.7 -2.55 -3.15 -2.25 -3.5 -2.0 -3.9 -1.7 -4.2 -1.5 -4.5 -1.25 -4.7 -1.05 -4.9 -0.9 -5.0 -0.85 -5.05 -0.8 L-5.05 -0.8" fill="#ffffff" fill-rule="evenodd" stroke="none"/>
    <path d="M0.1 4.05 Q0.4 4.05 0.85 3.95 1.2 3.8 1.7 3.6 2.1 3.4 2.6 3.1 3.0 2.9 3.45 2.6 3.85 2.35 4.25 2.05 4.6 1.8 4.9 1.55 5.15 1.4 5.35 1.25 5.45 1.15 5.5 1.1 5.5 1.1 5.55 0.95 5.65 0.75 5.7 0.6 5.8 0.3 5.95 0.1 6.1 -0.25 6.2 -0.5 6.35 -0.8 6.5 -1.0 6.7 -1.3 6.8 -1.45 7.0 -1.6 7.1 -1.65 7.25 -1.7 7.35 -1.55 7.7 -1.2 7.7 3.85 7.7 4.0 7.6 4.2 7.5 4.4 7.35 4.6 7.2 4.8 7.0 5.0 6.85 5.2 6.6 5.4 6.4 5.6 6.2 5.8 6.05 5.95 5.85 6.05 5.75 6.2 5.6 6.25 5.55 6.3 5.5 6.35 5.45 6.4 2.8 7.7 0.15 9.05 0.15 9.0 -2.45 7.65 -5.05 6.35 -5.05 6.35 -5.15 6.25 -5.3 6.15 -5.4 6.05 -5.55 5.9 -5.7 5.75 -5.95 5.55 -6.1 5.35 -6.3 5.15 -6.5 4.95 -6.7 4.7 -6.85 4.5 -7.0 4.3 -7.1 4.1 -7.2 3.9 -7.2 3.75 -7.2 3.65 -7.2 3.4 -7.2 3.5 -7.2 2.85 -7.2 2.4 -7.25 2.1 -7.25 1.65 -7.25 1.25 -7.2 0.8 -7.2 0.4 -7.2 -0.05 -7.15 -0.35 -7.1 -0.75 -7.05 -0.95 -6.95 -1.2 -6.85 -1.3 -6.8 -1.35 -6.8 -1.35 -6.75 -1.35 -6.75 -1.35 -6.7 -1.4 -6.65 -1.35 -6.65 -1.35 -6.6 -1.35 -6.55 -1.3 -6.5 -1.3 -6.45 -1.25 -6.45 -1.2 -6.4 -1.2 -6.35 -1.15 -6.3 -1.1 -6.25 -1.05 -6.15 -0.9 -6.05 -0.75 -5.95 -0.6 -5.8 -0.4 -5.7 -0.25 -5.6 -0.05 -5.55 0.1 -5.45 0.3 -5.35 0.45 -5.25 0.6 -5.2 0.75 -5.15 0.85 -5.1 0.95 -5.05 1.05 -5.05 1.05 -5.05 1.1 -5.05 1.1 -4.9 1.25 -4.7 1.4 -4.5 1.55 -4.2 1.8 -3.9 2.05 -3.5 2.35 -3.15 2.6 -2.7 2.9 -2.3 3.1 -1.85 3.4 -1.45 3.6 -1.0 3.8 -0.65 3.95 -0.25 4.05 0.1 4.05 L0.1 4.05" fill="#757575" fill-rule="evenodd" stroke="none"/>
    <path d="M0.8 -1.55 L7.2 -1.65 Q7.2 -1.65 7.2 -1.65 7.2 -1.65 7.15 -1.65 7.15 -1.65 7.1 -1.65 7.1 -1.65 7.05 -1.65 7.0 -1.6 6.95 -1.6 6.9 -1.55 6.85 -1.5 6.8 -1.45 6.75 -1.35 6.7 -1.3 6.65 -1.2 6.6 -1.1 6.5 -0.95 6.45 -0.8 6.4 -0.65 6.35 -0.6 6.3 -0.35 6.2 -0.15 6.15 0.0 6.05 0.2 6.0 0.3 5.9 0.5 5.85 0.65 5.75 0.8 5.65 0.95 5.55 1.1 5.4 1.2 5.1 1.5 4.75 1.8 4.45 2.1 4.1 2.35 3.75 2.6 3.35 2.85 3.0 3.05 2.6 3.25 2.25 3.45 1.9 3.6 1.55 3.75 1.2 3.85 0.9 3.95 0.6 4.0 0.3 4.05 0.1 4.05 -0.15 4.05 -0.4 4.0 -0.7 3.95 -1.0 3.85 -1.35 3.75 -1.65 3.6 -2.0 3.45 -2.35 3.25 -2.7 3.05 -3.05 2.85 -3.4 2.6 -3.7 2.35 -4.05 2.1 -4.35 1.85 -4.7 1.6 -4.95 1.3 -5.05 1.2 -5.15 1.1 -5.25 0.95 -5.35 0.8 -5.4 0.7 -5.5 0.5 -5.6 0.4 -5.65 0.2 -5.7 0.1 -5.8 -0.1 -6.1 -0.7 -5.95 -0.4 -6.0 -0.55 -6.05 -0.65 -6.1 -0.8 -6.15 -0.85 -6.2 -0.95 -6.3 -1.05 -6.35 -1.15 -6.4 -1.2 -6.45 -1.25 -6.5 -1.3 -6.55 -1.35 -6.6 -1.35 -6.6 -1.4 -6.65 -1.4 -6.65 -1.4 -6.7 -1.4 -6.7 -1.4 -6.7 -1.4 -6.7 -1.4 -6.7 -1.4 L-0.45 -1.55 0.8 -1.55" fill="#ffffff" fill-rule="evenodd" stroke="none"/>
    <path d="M-0.45 1.85 L-6.85 -1.35 Q-6.85 -1.35 -6.65 -1.45 -6.4 -1.6 -6.15 -1.75 -5.75 -1.95 -5.35 -2.15 -4.85 -2.4 -4.35 -2.6 -3.8 -2.85 -3.25 -3.05 -2.65 -3.25 -2.1 -3.45 -1.5 -3.6 -0.95 -3.7 -0.35 -3.8 0.15 -3.8 0.65 -3.8 1.25 -3.7 1.8 -3.6 2.45 -3.45 3.0 -3.3 3.6 -3.1 4.15 -2.9 4.75 -2.7 5.25 -2.5 5.75 -2.3 6.15 -2.15 6.5 -1.95 6.8 -1.85 7.05 -1.75 7.15 -1.7 7.25 -1.65 L0.85 1.8 -0.45 1.85" fill="#000000" fill-rule="evenodd" stroke="none"/>
    <path d="M-9.15 4.95 L-10.3 2.4 -7.95 2.6 -4.55 8.4 -9.15 4.95" fill="#000000" fill-rule="evenodd" stroke="none"/>
    <path d="M-9.85 -2.85 L-6.65 -5.3 -7.65 -2.2 -9.7 1.8 -9.85 -2.85" fill="#757575" fill-rule="evenodd" stroke="none"/>
    <path d="M8.95 5.75 L7.7 0.35 9.95 -2.9 10.1 1.95 8.95 5.75" fill="#000000" fill-rule="evenodd" stroke="none"/>
    <path d="M-1.4 8.15 L2.0 3.7 6.6 4.05 3.65 7.25 -1.4 8.15" fill="#000000" fill-rule="evenodd" stroke="none"/>
    <path d="M-3.25 7.25 L-6.2 4.05 -1.6 3.75 1.8 8.15 -3.25 7.25" fill="#333333" fill-rule="evenodd" stroke="none"/>
    <path d="M5.4 -6.1 L2.9 -8.95 5.6 -7.15 8.1 -5.75 5.4 -6.1" fill="#757575" fill-rule="evenodd" stroke="none"/>
    <path d="M-7.7 -5.8 L-4.45 -8.25 -1.05 -9.25 -2.85 -7.35 -7.7 -5.8" fill="#000000" fill-rule="evenodd" stroke="none"/>
    <path d="M-1.65 -3.5 L-0.3 -6.0 1.0 -3.7 Q1.0 -3.7 0.55 -3.75 0.0 -3.8 -0.3 -3.75 -1.0 -3.65 -1.65 -3.5 L-1.65 -3.5" fill="#757575" fill-rule="evenodd" stroke="none"/>
    <path d="M1.55 -3.65 L3.3 -5.6 4.15 -2.85 Q4.25 -2.9 2.9 -3.25 2.2 -3.45 1.55 -3.65 L1.55 -3.65" fill="#757575" fill-rule="evenodd" stroke="none"/>
    <path d="M-4.75 -2.4 L-3.95 -5.35 -2.2 -3.4 Q-2.2 -3.4 -2.8 -3.2 -3.45 -2.95 -3.4 -2.95 -4.1 -2.65 -4.75 -2.4 L-4.75 -2.4" fill="#757575" fill-rule="evenodd" stroke="none"/>
    <path d="M2.65 9.4 L3.75 7.65 8.55 7.2 4.9 8.35 2.65 9.4" fill="#333333" fill-rule="evenodd" stroke="none"/>
    <path d="M-2.9 -7.1 Q-2.95 -7.05 -1.35 -6.8 0.3 -6.55 0.9 -6.6 1.05 -6.6 1.25 -6.65 1.4 -6.7 1.6 -6.75 1.75 -6.8 1.9 -6.9 2.05 -6.95 2.15 -7.05 2.3 -7.1 2.4 -7.15 2.5 -7.25 2.55 -7.3 2.6 -7.35 2.65 -7.4 2.7 -7.4 2.7 -7.4 2.7 -7.4 1.4 -8.05 0.15 -8.7 0.15 -8.7 0.15 -8.7 -0.05 -8.6 -0.2 -8.5 -0.2 -8.5 -0.1 -8.45 0.0 -8.35 0.1 -8.25 0.15 -8.2 0.25 -8.1 0.3 -8.0 0.35 -7.9 0.4 -7.8 0.45 -7.7 0.45 -7.6 0.45 -7.5 0.45 -7.45 0.4 -7.35 0.35 -7.3 0.3 -7.25 0.2 -7.25 0.05 -7.2 -0.2 -7.15 -0.4 -7.15 -0.7 -7.1 -0.9 -7.1 -1.2 -7.1 -1.45 -7.05 -1.7 -7.05 -1.95 -7.05 -2.2 -7.05 -2.4 -7.05 -2.55 -7.05 -2.7 -7.05 -2.85 -7.1 -2.9 -7.1 -2.9 -7.1 L-2.9 -7.1" fill="#333333" fill-rule="evenodd" stroke="none"/>
    <path d="M4.15 -2.9 Q4.15 -2.9 4.25 -2.9 4.35 -2.95 4.45 -2.95 4.6 -3.0 4.75 -3.05 4.95 -3.1 5.15 -3.2 5.35 -3.25 5.5 -3.35 5.7 -3.45 5.85 -3.55 6.05 -3.65 6.15 -3.8 6.25 -3.9 6.35 -4.05 6.4 -4.15 6.35 -4.3 6.3 -4.45 6.15 -4.6 6.05 -4.75 5.9 -4.95 5.75 -5.1 5.55 -5.3 5.45 -5.4 5.2 -5.6 5.05 -5.8 4.95 -5.9 4.8 -6.05 4.75 -6.1 4.7 -6.2 4.75 -6.2 4.85 -6.25 4.95 -6.25 5.1 -6.25 5.25 -6.15 5.4 -6.1 5.55 -6.0 5.75 -5.85 5.9 -5.75 6.05 -5.6 6.25 -5.45 6.35 -5.35 6.5 -5.2 6.6 -5.15 6.7 -5.05 6.7 -5.0 6.75 -5.0 6.75 -5.0 6.8 -4.95 6.7 -5.05 6.9 -4.85 6.95 -4.75 7.05 -4.7 7.15 -4.6 7.2 -4.5 7.3 -4.35 7.4 -4.25 7.5 -4.15 7.55 -4.05 7.6 -3.9 7.65 -3.8 7.7 -3.7 7.75 -3.6 7.8 -3.35 7.75 -2.6 7.75 -1.9 7.7 -1.6 7.7 0.0 7.65 -0.1 7.65 -0.1 7.45 -0.85 7.35 -1.25 7.25 -1.65 7.25 -1.65 6.65 -1.9 5.95 -2.2 5.65 -2.35 4.9 -2.6 4.15 -2.9 L4.15 -2.9" fill="#333333" fill-rule="evenodd" stroke="none"/>
    <path d="M-10.75 -1.2 L-9.1 -2.4 -9.35 -3.85 -7.2 0.3 -10.75 -1.2" fill="#333333" fill-rule="evenodd" stroke="none"/>
    <path d="M-3.3 -7.55 L-2.65 -8.8 Q-2.65 -8.8 -2.05 -8.95 -1.4 -9.15 -1.1 -9.2 -0.6 -9.3 -0.1 -9.45 L-0.95 -8.1 -3.3 -7.55" fill="#757575" fill-rule="evenodd" stroke="none"/>
    <path d="M0.1 4.05 L-4.15 1.15 0.15 2.25 4.5 0.85 0.1 4.05" fill="#000000" fill-rule="evenodd" stroke="none"/>
    <path d="M-0.65 1.75 L-3.75 -2.8 3.95 -2.25 -0.55 -0.95 -0.65 1.75" fill="#ffffff" fill-rule="evenodd" stroke="none"/>
  </g>
</svg>
