<?xml version="1.0" encoding="UTF-8" standalone="no"?>
<svg xmlns:xlink="http://www.w3.org/1999/xlink" height="23.0px" width="18.0px" xmlns="http://www.w3.org/2000/svg">
  <g transform="matrix(1.0, 0.0, 0.0, 1.0, 9.0, 11.5)">
    <path d="M-2.05 -2.45 Q-2.05 -2.45 -2.05 -4.65 -2.0 -7.0 -1.8 -7.95 -1.75 -8.2 -1.65 -8.5 -1.55 -8.8 -1.4 -9.1 -1.25 -9.4 -1.1 -9.7 -0.95 -10.0 -0.8 -10.25 -0.65 -10.5 -0.5 -10.75 -0.4 -10.95 -0.3 -11.15 -0.2 -11.25 -0.1 -11.4 -0.1 -11.45 -0.05 -11.5 -0.05 -11.5 0.0 -11.4 0.1 -11.3 0.15 -11.15 0.3 -11.0 0.4 -10.8 0.55 -10.55 0.7 -10.35 0.85 -10.05 1.0 -9.8 1.15 -9.5 1.25 -9.25 1.4 -8.9 1.5 -8.65 1.6 -8.3 1.7 -8.05 1.9 -7.15 1.9 -4.75 1.9 -3.65 1.9 -2.55 L-2.05 -2.45" fill="#000000" fill-rule="evenodd" stroke="none"/>
    <path d="M1.95 -2.55 Q1.95 -2.55 2.1 -2.55 2.3 -2.55 2.45 -2.55 2.7 -2.55 2.95 -2.55 3.3 -2.55 3.6 -2.55 4.0 -2.55 4.3 -2.55 4.7 -2.5 5.0 -2.45 5.4 -2.45 5.65 -2.4 5.95 -2.3 6.2 -2.25 6.4 -2.15 6.65 -2.05 6.85 -1.9 7.1 -1.7 7.35 -1.55 7.55 -1.35 7.8 -1.15 8.0 -0.95 8.2 -0.75 8.4 -0.55 8.55 -0.4 8.7 -0.25 8.8 -0.15 8.85 -0.05 8.9 0.0 8.95 0.05 8.95 0.05 8.9 0.1 8.75 0.25 8.7 0.35 8.55 0.5 8.4 0.6 8.2 0.8 8.05 0.95 7.85 1.15 7.6 1.35 7.4 1.55 7.15 1.7 6.9 1.9 6.7 2.0 6.45 2.15 6.25 2.2 6.05 2.25 5.75 2.35 5.45 2.4 5.1 2.4 4.75 2.45 4.35 2.45 4.05 2.5 3.65 2.5 3.3 2.5 3.0 2.5 2.7 2.5 2.45 2.5 2.25 2.5 2.05 2.45 2.0 2.45 1.9 2.45 L1.95 -2.55" fill="#666666" fill-rule="evenodd" stroke="none"/>
    <path d="M1.9 2.45 Q1.95 2.5 1.95 4.6 1.95 6.9 1.75 7.9 1.7 8.15 1.6 8.45 1.5 8.75 1.35 9.05 1.2 9.35 1.05 9.65 0.9 9.9 0.75 10.2 0.6 10.45 0.45 10.7 0.35 10.9 0.25 11.1 0.15 11.2 0.05 11.35 0.05 11.4 0.0 11.45 0.0 11.45 -0.05 11.35 -0.15 11.25 -0.25 11.1 -0.35 10.95 -0.45 10.75 -0.6 10.5 -0.75 10.3 -0.9 10.0 -1.05 9.75 -1.2 9.45 -1.35 9.2 -1.5 8.85 -1.6 8.6 -1.7 8.3 -1.75 8.0 -1.95 7.1 -2.0 4.7 -2.0 3.6 -2.0 2.5 L1.9 2.45" fill="#000000" fill-rule="evenodd" stroke="none"/>
    <path d="M-1.95 2.5 Q-1.95 2.5 -2.1 2.5 -2.25 2.5 -2.45 2.5 -2.75 2.55 -3.0 2.55 -3.35 2.55 -3.7 2.55 -4.05 2.5 -4.4 2.5 -4.8 2.5 -5.1 2.45 -5.45 2.45 -5.75 2.4 -6.05 2.35 -6.25 2.25 -6.45 2.2 -6.7 2.05 -6.95 1.9 -7.2 1.75 -7.4 1.6 -7.65 1.4 -7.85 1.2 -8.05 1.0 -8.25 0.85 -8.45 0.65 -8.6 0.5 -8.7 0.35 -8.8 0.25 -8.9 0.15 -8.95 0.1 -9.0 0.1 -9.0 0.1 -8.9 0.0 -8.8 -0.1 -8.7 -0.2 -8.55 -0.35 -8.4 -0.55 -8.2 -0.7 -8.05 -0.9 -7.8 -1.1 -7.6 -1.3 -7.35 -1.5 -7.15 -1.65 -6.9 -1.85 -6.65 -2.0 -6.45 -2.1 -6.2 -2.2 -6.0 -2.3 -5.7 -2.35 -5.4 -2.4 -5.05 -2.45 -4.75 -2.45 -4.35 -2.5 -4.0 -2.5 -3.65 -2.5 -3.35 -2.5 -3.0 -2.5 -2.75 -2.5 -2.45 -2.5 -2.3 -2.5 -2.1 -2.5 -2.05 -2.5 -1.95 -2.5 L-1.95 2.5" fill="#666666" fill-rule="evenodd" stroke="none"/>
    <path d="M-1.95 2.5 Q-1.95 2.8 -2.0 0.05 -2.05 -2.4 -2.0 -2.45 -1.95 -2.5 -1.8 -2.55 -1.6 -2.55 -1.3 -2.55 -1.05 -2.6 -0.65 -2.6 -0.35 -2.6 0.05 -2.6 0.35 -2.6 0.75 -2.6 1.05 -2.55 1.35 -2.55 1.6 -2.55 1.8 -2.55 1.85 -2.55 1.95 -2.55 L1.95 2.5 -1.95 2.5" fill="#cccccc" fill-rule="evenodd" stroke="none"/>
    <path d="M-0.65 2.55 L-2.0 -0.9 2.0 -0.35 7.2 1.7 Q7.2 1.7 7.2 1.7 7.15 1.75 7.15 1.8 7.1 1.85 7.05 1.85 7.0 1.95 6.9 2.0 6.8 2.05 6.7 2.1 6.55 2.15 6.4 2.2 6.25 2.3 6.05 2.3 5.85 2.35 5.65 2.4 4.85 2.5 2.0 2.55 0.7 2.55 -0.65 2.55 L-0.65 2.55" fill="#ffffff" fill-rule="evenodd" stroke="none"/>
    <path d="M-2.75 2.55 L-8.95 0.05 Q-8.95 0.05 -8.9 -0.05 -8.8 -0.1 -8.7 -0.25 -8.55 -0.4 -8.35 -0.55 -8.2 -0.75 -8.0 -0.95 -7.75 -1.15 -7.55 -1.35 -7.3 -1.55 -7.1 -1.7 -6.9 -1.9 -6.7 -2.05 -6.45 -2.15 -6.3 -2.25 -6.15 -2.3 -5.9 -2.4 -5.7 -2.45 -5.45 -2.45 -5.2 -2.5 -4.95 -2.5 -4.7 -2.55 -4.45 -2.55 -4.25 -2.55 -4.0 -2.55 -3.85 -2.55 -3.65 -2.55 -3.55 -2.55 -3.4 -2.55 -3.35 -2.55 -3.3 -2.55 L-2.0 -0.9 -2.75 2.55" fill="#000000" fill-rule="evenodd" stroke="none"/>
    <path d="M-2.0 -0.85 Q-1.95 -0.9 -1.35 -2.35 -0.7 -3.85 -0.7 -4.2 -0.7 -4.55 -1.2 -6.4 -1.45 -7.3 -1.7 -8.2 L1.85 -7.05 Q1.9 -7.3 1.95 -5.35 2.0 -3.95 2.0 -2.55 L-2.0 -0.85" fill="#666666" fill-rule="evenodd" stroke="none"/>
    <path d="M5.3 0.95 L4.3 -2.55 Q4.3 -2.55 4.35 -2.55 4.35 -2.55 4.5 -2.55 4.6 -2.55 4.7 -2.5 4.85 -2.5 5.0 -2.5 5.15 -2.5 5.3 -2.5 5.45 -2.45 5.6 -2.45 5.75 -2.4 5.85 -2.4 6.0 -2.35 6.1 -2.3 6.2 -2.25 6.35 -2.2 6.45 -2.15 6.6 -2.05 6.7 -1.95 6.85 -1.9 7.0 -1.8 7.1 -1.7 7.2 -1.6 7.35 -1.55 7.45 -1.45 7.5 -1.4 7.6 -1.35 7.65 -1.3 7.65 -1.3 7.7 -1.25 L9.0 0.05 Q9.0 0.05 8.95 0.1 8.85 0.15 8.75 0.2 8.65 0.25 8.5 0.35 8.35 0.45 8.25 0.55 8.05 0.65 7.9 0.8 7.75 0.95 7.6 1.1 7.45 1.25 7.35 1.45 7.2 1.6 7.15 1.8 6.25 1.4 5.3 0.95 L5.3 0.95" fill="#cccccc" fill-rule="evenodd" stroke="none"/>
    <path d="M0.0 11.45 L-1.85 7.35 -0.65 2.5 Q-0.65 2.5 0.65 2.5 1.95 2.55 1.9 2.5 1.9 2.5 1.9 2.95 1.95 3.65 1.95 4.1 1.95 5.1 1.9 6.15 L0.0 11.45" fill="#666666" fill-rule="evenodd" stroke="none"/>
    <path d="M7.15 1.75 Q7.15 1.75 7.15 1.7 7.2 1.7 7.2 1.65 7.25 1.55 7.25 1.5 7.3 1.45 7.35 1.35 7.4 1.25 7.45 1.2 7.5 1.1 7.55 1.05 7.6 0.95 7.65 0.9 7.75 0.8 7.8 0.75 8.4 0.4 9.0 0.05 8.8 0.35 7.8 1.2 7.5 1.45 7.15 1.75 L7.15 1.75" fill="#d20000" fill-rule="evenodd" stroke="none"/>
    <path d="M2.0 -2.5 L-0.05 -11.5 Q0.1 -11.5 4.05 -5.1 6.55 -2.5 9.0 0.05 L2.0 -2.5" fill="#333333" fill-rule="evenodd" stroke="none"/>
    <path d="M-9.0 0.05 Q-9.0 0.25 -4.15 -5.1 -2.1 -8.3 -0.05 -11.5 L-2.0 -2.5 -9.0 0.05" fill="#ffffff" fill-rule="evenodd" stroke="none"/>
    <path d="M9.0 0.05 Q9.0 0.0 7.45 1.6 5.55 3.5 4.05 5.15 2.05 8.3 0.0 11.45 L1.9 2.55 9.0 0.05" fill="#000000" fill-rule="evenodd" stroke="none"/>
    <path d="M-2.0 2.5 L0.05 11.5 Q-0.15 11.5 -4.05 5.05 -4.5 4.55 -4.95 4.1 -5.4 3.6 -5.85 3.15 -6.25 2.75 -6.7 2.3 -7.05 1.95 -7.45 1.6 -7.75 1.25 -8.05 0.95 -8.3 0.75 -8.55 0.5 -8.7 0.35 -8.85 0.2 -8.9 0.15 -9.0 0.1 L-2.0 2.5" fill="#cccccc" fill-rule="evenodd" stroke="none"/>
  </g>
</svg>
