<?xml version="1.0" encoding="UTF-8" standalone="no"?>
<svg xmlns:xlink="http://www.w3.org/1999/xlink" height="23.5px" width="18.65px" xmlns="http://www.w3.org/2000/svg">
  <g transform="matrix(1.0, 0.0, 0.0, 1.0, 9.35, 11.75)">
    <path d="M3.05 -6.7 Q3.05 -6.7 3.35 -9.2 3.65 -11.75 3.65 -11.75 3.85 -11.75 4.0 -11.75 4.2 -11.75 4.4 -11.75 4.6 -11.75 4.8 -11.7 5.0 -11.7 5.15 -11.7 5.35 -11.7 5.55 -11.65 5.7 -11.65 5.9 -11.65 6.05 -11.6 6.2 -11.6 6.4 -11.55 6.55 -11.5 6.85 -11.45 7.15 -11.35 7.4 -11.3 7.65 -11.2 7.85 -11.15 8.05 -11.05 8.2 -10.95 8.35 -10.85 8.5 -10.8 8.6 -10.7 8.7 -10.65 8.75 -10.6 8.8 -10.55 8.85 -10.5 8.85 -10.5 8.9 -10.5 L3.05 -6.7" fill="#666666" fill-rule="evenodd" stroke="none"/>
    <path d="M4.3 -2.15 Q4.25 -1.9 4.15 -1.6 4.1 -1.4 4.05 -1.1 4.0 -0.9 3.95 -0.65 3.95 -0.45 3.9 -0.25 3.85 -0.05 3.85 0.15 3.8 0.3 3.8 0.4 3.8 0.55 3.8 0.6 3.8 0.7 3.8 0.7 3.8 0.75 3.8 0.8 3.8 0.85 3.8 0.95 3.8 1.05 3.85 1.2 3.85 1.35 3.85 1.5 3.9 1.65 3.9 1.85 3.95 2.05 3.95 2.25 4.0 2.45 4.05 2.65 4.1 2.85 4.15 3.1 4.85 5.2 5.5 7.35 5.5 7.35 5.45 7.25 12.2 15.25 5.25 7.05 5.1 6.9 5.0 6.75 4.8 6.5 4.65 6.3 4.45 6.05 4.25 5.75 4.05 5.45 3.85 5.15 3.65 4.8 3.45 4.45 3.25 4.1 3.1 3.7 3.05 3.55 2.95 3.35 2.9 3.2 2.85 2.95 2.8 2.75 2.75 2.55 2.7 2.35 2.65 2.1 2.6 1.9 2.6 1.7 2.55 1.5 2.55 1.3 2.5 1.1 2.5 0.95 2.5 0.8 2.5 0.65 2.5 0.5 2.5 0.35 2.5 0.2 2.5 0.1 2.5 -0.05 2.55 -0.2 2.55 -0.35 2.6 -0.5 2.6 -0.65 2.65 -0.8 2.7 -1.0 2.75 -1.15 2.8 -1.35 2.9 -1.5 2.95 -1.7 3.05 -1.9 3.2 -2.25 3.45 -2.6 3.6 -2.95 3.85 -3.3 4.05 -3.6 4.25 -3.95 4.45 -4.25 4.7 -4.55 4.85 -4.8 5.05 -5.05 5.2 -5.25 5.35 -5.45 5.45 -5.6 5.55 -5.75 5.55 -5.8 5.6 -5.85 5.6 -5.85 5.15 -4.65 4.65 -3.25 4.3 -2.15 L4.3 -2.15" fill="#333333" fill-rule="evenodd" stroke="none"/>
    <path d="M2.5 7.65 L7.8 11.4 Q7.8 11.4 7.75 11.4 7.6 11.45 7.5 11.45 7.35 11.45 7.15 11.5 6.95 11.55 6.7 11.55 6.4 11.6 6.15 11.6 5.8 11.65 5.5 11.7 5.1 11.7 4.75 11.7 4.4 11.75 4.0 11.75 3.25 9.7 2.5 7.65 L2.5 7.65" fill="#ffffff" fill-rule="evenodd" stroke="none"/>
    <path d="M-9.35 -0.25 Q-9.35 -0.25 -9.35 -0.4 -9.35 -0.6 -9.3 -0.85 -9.3 -1.2 -9.25 -1.5 -9.2 -1.9 -9.15 -2.3 -9.05 -2.75 -8.95 -3.15 -8.9 -3.6 -8.75 -4.0 -8.65 -4.45 -8.5 -4.85 -8.3 -5.25 -8.15 -5.5 -5.45 -4.3 -2.75 -3.15 L-9.35 -0.25" fill="#ffffff" fill-rule="evenodd" stroke="none"/>
    <path d="M-6.95 6.45 Q-7.15 6.2 -7.8 5.15 -8.6 3.85 -8.8 3.25 -8.9 2.9 -9.0 2.55 -9.1 2.25 -9.15 1.9 -9.2 1.6 -9.25 1.3 -9.25 1.05 -9.3 0.8 -9.3 0.55 -9.35 0.35 -9.35 0.2 -9.35 0.0 -9.35 -0.1 -9.35 -0.2 -9.35 -0.2 -9.35 -0.25 L-3.05 3.6 Q-3.05 3.6 -5.0 5.05 -6.95 6.5 -6.95 6.45 L-6.95 6.45" fill="#a7a7a7" fill-rule="evenodd" stroke="none"/>
    <path d="M-2.75 -3.15 L2.55 0.05 Q2.55 0.05 2.55 0.2 2.55 0.45 2.55 0.5 2.55 0.8 2.55 1.1 L-3.05 3.6 -2.75 -3.15" fill="#333333" fill-rule="evenodd" stroke="none"/>
    <path d="M-2.75 -3.15 L3.1 -6.7 Q3.1 -6.7 3.35 -5.2 3.55 -3.65 3.65 -3.55 3.75 -3.4 3.85 -3.25 3.85 -3.25 3.45 -2.55 3.0 -1.8 2.85 -1.4 2.85 -1.35 2.8 -1.3 2.8 -1.25 2.75 -1.2 2.75 -1.15 2.75 -1.1 2.7 -1.05 2.7 -1.0 2.7 -0.9 2.65 -0.85 2.65 -0.8 2.65 -0.75 2.65 -0.7 2.6 -0.6 2.6 -0.55 2.6 -0.5 2.55 -0.25 2.5 0.05 L-2.75 -3.15" fill="#a7a7a7" fill-rule="evenodd" stroke="none"/>
    <path d="M2.5 7.65 L3.2 3.95 Q3.2 3.95 3.2 4.0 3.25 4.0 3.3 4.1 3.35 4.2 3.35 4.25 3.45 4.4 3.5 4.5 3.55 4.65 3.65 4.75 3.75 4.95 3.85 5.1 3.95 5.25 4.1 5.45 4.2 5.65 4.35 5.85 4.75 6.4 5.5 7.3 6.45 8.4 6.55 8.55 7.65 9.75 8.7 11.0 9.0 10.9 8.35 11.2 8.1 11.3 7.8 11.4 L2.5 7.65" fill="#666666" fill-rule="evenodd" stroke="none"/>
    <path d="M9.3 -9.9 Q9.3 -9.9 8.85 -9.4 8.25 -8.75 7.8 -8.25 5.55 -5.7 4.85 -4.8 4.1 -3.55 3.3 -2.3 L3.1 -6.7 8.85 -10.5 Q8.85 -10.5 8.85 -10.5 8.85 -10.5 8.9 -10.5 8.9 -10.5 8.9 -10.5 8.9 -10.45 8.95 -10.45 8.95 -10.45 8.95 -10.45 9.0 -10.4 9.0 -10.4 9.05 -10.35 9.05 -10.3 9.1 -10.3 9.15 -10.25 9.2 -10.05 9.3 -9.9 L9.3 -9.9" fill="#ffffff" fill-rule="evenodd" stroke="none"/>
    <path d="M-2.95 9.9 L-3.05 3.6 2.55 1.05 Q2.55 1.0 2.6 1.6 2.7 2.2 2.75 2.5 3.0 3.25 3.2 3.95 L2.5 7.65 -2.95 9.9" fill="#000000" fill-rule="evenodd" stroke="none"/>
    <path d="M-9.35 -0.25 L-2.75 -3.15 -3.05 3.6 -9.35 -0.25" fill="#666666" fill-rule="evenodd" stroke="none"/>
    <path d="M2.5 7.65 Q2.5 7.65 3.25 9.7 4.05 11.75 4.0 11.75 3.3 11.75 2.15 11.65 1.3 11.6 0.6 11.5 0.3 11.45 -0.05 11.35 -0.35 11.3 -0.65 11.15 -0.95 11.05 -1.25 10.9 -1.55 10.75 -1.8 10.6 -2.05 10.5 -2.3 10.35 -2.45 10.25 -2.65 10.1 -2.75 10.05 -2.9 9.95 -2.95 9.95 -2.95 9.9 L2.5 7.65" fill="#a7a7a7" fill-rule="evenodd" stroke="none"/>
    <path d="M-8.15 -5.5 Q-8.05 -5.65 -7.95 -5.8 -7.85 -6.0 -7.7 -6.15 -7.55 -6.35 -7.45 -6.55 -7.3 -6.75 -7.1 -6.95 -6.95 -7.15 -6.8 -7.35 -6.6 -7.55 -6.45 -7.75 -6.25 -7.95 -6.05 -8.1 -5.85 -8.3 -5.65 -8.45 -5.4 -8.65 -5.1 -8.85 -4.85 -9.05 -4.6 -9.25 -4.35 -9.4 -4.1 -9.55 -3.85 -9.65 -3.6 -9.8 -3.45 -9.9 -3.25 -10.0 -3.1 -10.05 -2.95 -10.1 -2.8 -10.15 -2.75 -10.2 -2.7 -10.2 -2.65 -10.25 L-2.75 -3.1 Q-2.75 -3.1 -5.45 -4.3 -8.1 -5.5 -8.15 -5.5 L-8.15 -5.5" fill="#cdcdcd" fill-rule="evenodd" stroke="none"/>
    <path d="M-2.95 9.9 Q-2.95 9.9 -3.1 9.8 -3.25 9.7 -3.45 9.55 -3.7 9.35 -4.0 9.15 -4.35 8.9 -4.65 8.7 -5.0 8.4 -5.3 8.15 -5.7 7.85 -5.95 7.55 -6.3 7.25 -6.55 7.0 -6.8 6.7 -6.95 6.45 -7.0 6.4 -5.25 5.15 -4.15 4.35 -3.05 3.55 L-2.95 9.9" fill="#666666" fill-rule="evenodd" stroke="none"/>
    <path d="M-2.75 -3.1 L-2.65 -10.2 3.1 -6.7 -2.75 -3.1" fill="#333333" fill-rule="evenodd" stroke="none"/>
    <path d="M3.1 -6.7 L-2.7 -10.2 Q-2.7 -10.2 -2.55 -10.25 -2.4 -10.35 -2.2 -10.45 -1.95 -10.55 -1.7 -10.7 -1.35 -10.8 -1.0 -10.95 -0.6 -11.1 -0.25 -11.2 0.2 -11.35 0.55 -11.45 1.0 -11.6 1.4 -11.65 1.8 -11.7 2.15 -11.7 2.2 -11.7 2.3 -11.7 2.35 -11.7 2.45 -11.7 2.5 -11.7 2.6 -11.75 2.7 -11.75 2.8 -11.75 2.9 -11.75 3.0 -11.75 3.15 -11.75 3.25 -11.75 3.35 -11.75 3.45 -11.75 3.6 -11.75 3.7 -11.75 3.7 -11.75 3.4 -9.25 3.25 -7.95 3.1 -6.7 L3.1 -6.7" fill="#cdcdcd" fill-rule="evenodd" stroke="none"/>
  </g>
</svg>
