<?xml version="1.0" encoding="UTF-8" standalone="no"?>
<svg xmlns:xlink="http://www.w3.org/1999/xlink" height="22.8px" width="23.8px" xmlns="http://www.w3.org/2000/svg">
  <g transform="matrix(1.0, 0.0, 0.0, 1.0, 11.9, 11.4)">
    <path d="M5.5 2.1 L0.0 3.25 -0.05 -3.15 5.6 -2.05 8.0 0.1 5.5 2.1" fill="#333333" fill-rule="evenodd" stroke="none"/>
    <path d="M-8.0 0.1 L-5.6 -2.05 0.0 -3.15 0.0 3.25 -5.5 2.1 -8.0 0.1" fill="#666666" fill-rule="evenodd" stroke="none"/>
    <path d="M-5.6 -2.05 L-3.25 -4.65 0.0 -3.15 -5.6 -2.05" fill="#a7a7a7" fill-rule="evenodd" stroke="none"/>
    <path d="M0.0 -3.15 L3.25 -4.6 5.6 -2.05 0.0 -3.15" fill="#ffffff" fill-rule="evenodd" stroke="none"/>
    <path d="M0.05 3.25 L-3.2 4.7 -5.5 2.1 0.05 3.25" fill="#a7a7a7" fill-rule="evenodd" stroke="none"/>
    <path d="M5.45 2.1 L3.2 4.7 0.0 3.25 5.45 2.1" fill="#666666" fill-rule="evenodd" stroke="none"/>
    <path d="M8.95 1.8 L5.45 2.1 8.0 0.1 8.95 1.8" fill="#a7a7a7" fill-rule="evenodd" stroke="none"/>
    <path d="M-8.0 0.1 L-5.45 2.1 -9.0 1.8 -8.0 0.1" fill="#ffffff" fill-rule="evenodd" stroke="none"/>
    <path d="M-8.85 -1.65 L-5.6 -2.05 -8.0 0.1 -8.85 -1.65" fill="#333333" fill-rule="evenodd" stroke="none"/>
    <path d="M8.0 0.1 L5.55 -2.05 8.85 -1.65 8.0 0.1" fill="#666666" fill-rule="evenodd" stroke="none"/>
    <path d="M-3.2 4.7 L0.0 3.25 3.2 4.7 -0.05 6.7 -3.2 4.7" fill="#333333" fill-rule="evenodd" stroke="none"/>
    <path d="M3.25 -4.6 L0.0 -3.15 -3.25 -4.65 0.05 -6.7 3.25 -4.6" fill="#666666" fill-rule="evenodd" stroke="none"/>
    <path d="M8.0 0.1 L8.85 -1.7 11.9 0.05 8.0 0.1" fill="#ffffff" fill-rule="evenodd" stroke="none"/>
    <path d="M11.9 0.05 L8.95 1.8 8.0 0.1 11.9 0.05" fill="#333333" fill-rule="evenodd" stroke="none"/>
    <path d="M-11.9 0.1 L-8.85 -1.65 -8.0 0.1 -11.9 0.1" fill="#a7a7a7" fill-rule="evenodd" stroke="none"/>
    <path d="M-8.0 0.1 L-9.0 1.8 -11.9 0.05 -8.0 0.1" fill="#666666" fill-rule="evenodd" stroke="none"/>
    <path d="M3.2 4.7 L5.45 2.1 8.95 1.8 6.75 4.95 3.2 4.7" fill="#ffffff" fill-rule="evenodd" stroke="none"/>
    <path d="M-6.7 4.95 L-9.0 1.8 -5.5 2.1 -3.2 4.7 -6.7 4.95" fill="#666666" fill-rule="evenodd" stroke="none"/>
    <path d="M-3.2 -4.65 L-5.6 -2.05 -8.85 -1.65 -6.7 -4.9 -3.2 -4.65" fill="#000000" fill-rule="evenodd" stroke="none"/>
    <path d="M6.85 -4.8 L8.85 -1.65 5.6 -2.05 3.25 -4.6 6.85 -4.8" fill="#a7a7a7" fill-rule="evenodd" stroke="none"/>
    <path d="M-0.05 6.7 L3.2 4.7 3.65 6.2 -0.05 6.7" fill="#a7a7a7" fill-rule="evenodd" stroke="none"/>
    <path d="M3.65 6.2 L3.2 4.7 6.75 4.95 3.65 6.2" fill="#333333" fill-rule="evenodd" stroke="none"/>
    <path d="M-3.7 6.2 L-3.2 4.7 0.0 6.7 -3.7 6.2" fill="#000000" fill-rule="evenodd" stroke="none"/>
    <path d="M-6.7 4.95 L-3.2 4.7 -3.7 6.2 -6.7 4.95" fill="#a7a7a7" fill-rule="evenodd" stroke="none"/>
    <path d="M3.65 -6.15 L3.25 -4.6 0.05 -6.7 3.65 -6.15" fill="#000000" fill-rule="evenodd" stroke="none"/>
    <path d="M6.85 -4.8 L3.25 -4.6 3.65 -6.15 6.85 -4.8" fill="#333333" fill-rule="evenodd" stroke="none"/>
    <path d="M0.05 -6.7 L-3.2 -4.6 -3.7 -6.15 0.05 -6.7" fill="#ffffff" fill-rule="evenodd" stroke="none"/>
    <path d="M-3.7 -6.15 L-3.25 -4.65 -6.7 -4.9 -3.7 -6.15" fill="#a7a7a7" fill-rule="evenodd" stroke="none"/>
    <path d="M11.9 0.05 L8.85 -1.65 9.75 -3.0 11.9 0.05" fill="#a7a7a7" fill-rule="evenodd" stroke="none"/>
    <path d="M8.85 -1.7 L6.85 -4.8 9.75 -3.0 8.85 -1.7" fill="#666666" fill-rule="evenodd" stroke="none"/>
    <path d="M-9.7 -3.0 L-8.85 -1.65 -11.9 0.05 -9.7 -3.0" fill="#ffffff" fill-rule="evenodd" stroke="none"/>
    <path d="M-9.75 -3.0 L-6.7 -4.9 -8.85 -1.65 -9.75 -3.0" fill="#666666" fill-rule="evenodd" stroke="none"/>
    <path d="M9.85 3.15 L8.95 1.8 11.9 0.05 9.85 3.15" fill="#000000" fill-rule="evenodd" stroke="none"/>
    <path d="M9.85 3.15 L6.75 4.95 8.95 1.8 9.85 3.15" fill="#666666" fill-rule="evenodd" stroke="none"/>
    <path d="M-11.9 0.05 L-8.95 1.8 -9.85 3.15 -11.9 0.05" fill="#a7a7a7" fill-rule="evenodd" stroke="none"/>
    <path d="M-8.95 1.8 L-6.7 4.95 -9.85 3.1 -8.95 1.8" fill="#333333" fill-rule="evenodd" stroke="none"/>
    <path d="M-2.2 2.3 L-4.3 -0.35 -0.05 -2.6 3.95 -0.65 2.35 2.25 -2.2 2.3" fill="#000000" fill-rule="evenodd" stroke="none"/>
  </g>
</svg>
