<?xml version="1.0" encoding="UTF-8" standalone="no"?>
<svg xmlns:xlink="http://www.w3.org/1999/xlink" height="23.5px" width="18.65px" xmlns="http://www.w3.org/2000/svg">
  <g transform="matrix(1.0, 0.0, 0.0, 1.0, 9.35, 11.75)">
    <path d="M-2.65 5.8 L-5.8 1.6 -5.25 -3.25 -1.95 -6.45 1.85 -6.45 5.2 -3.2 5.7 1.7 2.55 5.85 -2.65 5.8" fill="#333333" fill-rule="evenodd" stroke="none"/>
    <path d="M-0.05 -11.75 L3.5 -10.55 -0.05 -9.85 -0.05 -11.75" fill="#999999" fill-rule="evenodd" stroke="none"/>
    <path d="M-6.1 -8.15 Q-6.0 -8.35 -5.8 -8.55 -5.65 -8.75 -5.4 -8.95 -5.2 -9.15 -5.0 -9.4 -4.8 -9.55 -4.55 -9.75 -4.35 -9.95 -4.15 -10.1 -4.0 -10.25 -3.8 -10.4 -3.7 -10.5 -3.6 -10.55 -3.55 -10.6 -3.5 -10.65 L-5.1 -7.05 -7.35 -4.85 Q-7.35 -4.85 -7.3 -4.95 -7.2 -5.3 -7.25 -5.25 -7.15 -5.45 -7.1 -5.65 -7.0 -5.9 -6.95 -6.15 -6.85 -6.45 -6.75 -6.7 -6.65 -7.0 -6.55 -7.25 -6.4 -7.5 -6.3 -7.75 -6.2 -7.95 -6.1 -8.15 L-6.1 -8.15" fill="#333333" fill-rule="evenodd" stroke="none"/>
    <path d="M-9.35 4.05 L-7.95 -0.7 -5.75 1.6 -6.75 7.0 -9.35 4.05" fill="#ffffff" fill-rule="evenodd" stroke="none"/>
    <path d="M-3.9 11.0 L-6.75 7.0 -2.65 5.85 -0.1 10.3 -3.9 11.0" fill="#cccccc" fill-rule="evenodd" stroke="none"/>
    <path d="M-6.75 7.0 L-5.75 1.6 -2.6 5.85 -6.75 7.0" fill="#999999" fill-rule="evenodd" stroke="none"/>
    <path d="M-7.95 -0.7 L-5.2 -3.25 -5.75 1.65 -7.95 -0.7" fill="#cccccc" fill-rule="evenodd" stroke="none"/>
    <path d="M-9.35 4.1 Q-9.35 4.1 -9.15 2.2 -8.95 0.15 -8.75 -0.8 -8.55 -1.7 -7.9 -3.4 -7.6 -4.15 -7.3 -4.9 L-7.95 -0.7 -9.35 4.1" fill="#cccccc" fill-rule="evenodd" stroke="none"/>
    <path d="M-5.25 -3.25 L-5.1 -7.05 -1.9 -6.5 -5.25 -3.25" fill="#999999" fill-rule="evenodd" stroke="none"/>
    <path d="M-3.9 11.0 Q-3.9 11.0 -4.0 10.9 -4.15 10.85 -4.35 10.7 -4.6 10.55 -4.8 10.35 -5.1 10.15 -5.4 9.9 -5.75 9.65 -6.0 9.4 -6.35 9.15 -6.65 8.9 -6.95 8.65 -7.2 8.4 -7.45 8.1 -7.6 7.9 -7.75 7.7 -7.95 7.4 -8.1 7.15 -8.25 6.85 -8.4 6.55 -8.55 6.2 -8.7 5.9 -8.8 5.55 -8.9 5.3 -9.05 5.0 -9.1 4.75 -9.2 4.5 -9.25 4.35 -9.3 4.2 -9.35 4.1 -9.35 4.05 L-6.75 7.0 -3.9 11.0" fill="#999999" fill-rule="evenodd" stroke="none"/>
    <path d="M-0.1 10.35 L-2.65 5.85 2.55 5.85 -0.1 10.35" fill="#ffffff" fill-rule="evenodd" stroke="none"/>
    <path d="M-3.9 11.0 L-0.1 10.3 -0.1 11.75 -3.9 11.0" fill="#333333" fill-rule="evenodd" stroke="none"/>
    <path d="M-7.95 -0.65 L-7.3 -4.9 -5.1 -7.05 -5.25 -3.25 -7.95 -0.65" fill="#000000" fill-rule="evenodd" stroke="none"/>
    <path d="M-5.1 -7.0 L-3.55 -10.6 -0.05 -9.95 -1.9 -6.5 -5.1 -7.0" fill="#ffffff" fill-rule="evenodd" stroke="none"/>
    <path d="M-1.95 -6.45 L-0.05 -9.9 1.85 -6.45 -1.95 -6.45" fill="#cccccc" fill-rule="evenodd" stroke="none"/>
    <path d="M0.0 -9.9 L-3.5 -10.6 0.0 -11.75 0.0 -9.9" fill="#cccccc" fill-rule="evenodd" stroke="none"/>
    <path d="M7.25 -4.8 L5.0 -7.0 3.45 -10.6 Q3.45 -10.6 3.55 -10.55 3.7 -10.4 3.75 -10.35 3.95 -10.2 4.1 -10.05 4.3 -9.9 4.5 -9.7 4.7 -9.5 4.9 -9.35 5.15 -9.1 5.35 -8.9 5.55 -8.7 5.7 -8.5 5.9 -8.25 6.0 -8.1 6.1 -7.95 6.25 -7.7 6.35 -7.5 6.45 -7.2 6.55 -6.95 6.7 -6.65 6.75 -6.4 6.85 -6.1 6.95 -5.85 7.05 -5.6 7.1 -5.4 7.15 -5.2 7.2 -5.05 7.25 -4.9 7.25 -4.85 7.25 -4.8 L7.25 -4.8" fill="#999999" fill-rule="evenodd" stroke="none"/>
    <path d="M6.65 7.05 L5.7 1.65 7.9 -0.7 9.3 4.1 6.65 7.05" fill="#333333" fill-rule="evenodd" stroke="none"/>
    <path d="M-0.1 10.3 L2.55 5.9 6.7 7.05 3.85 11.05 -0.1 10.3" fill="#999999" fill-rule="evenodd" stroke="none"/>
    <path d="M2.5 5.9 L5.7 1.65 6.7 7.05 2.5 5.9" fill="#000000" fill-rule="evenodd" stroke="none"/>
    <path d="M5.7 1.7 L5.15 -3.2 7.9 -0.65 5.7 1.7" fill="#999999" fill-rule="evenodd" stroke="none"/>
    <path d="M7.9 -0.65 L7.25 -4.85 Q7.2 -5.0 7.85 -3.35 8.5 -1.65 8.7 -0.75 8.9 0.2 9.1 2.3 9.2 3.2 9.25 4.15 L7.9 -0.65" fill="#cccccc" fill-rule="evenodd" stroke="none"/>
    <path d="M1.85 -6.45 L5.05 -7.0 5.15 -3.2 1.85 -6.45" fill="#cccccc" fill-rule="evenodd" stroke="none"/>
    <path d="M6.65 7.05 L9.3 4.1 Q9.3 4.1 9.25 4.2 9.2 4.45 9.15 4.55 9.1 4.8 9.0 5.05 8.9 5.35 8.8 5.6 8.65 5.95 8.55 6.25 8.4 6.6 8.25 6.9 8.1 7.25 7.95 7.5 7.8 7.8 7.65 8.0 7.5 8.2 7.2 8.45 6.95 8.7 6.65 9.0 6.35 9.2 6.0 9.5 5.7 9.75 5.35 10.0 5.1 10.2 4.8 10.4 4.55 10.6 4.3 10.75 4.1 10.9 3.95 11.0 3.9 11.05 3.8 11.05 L6.65 7.05" fill="#ffffff" fill-rule="evenodd" stroke="none"/>
    <path d="M-0.1 11.75 L-0.15 10.3 3.85 11.05 -0.1 11.75" fill="#000000" fill-rule="evenodd" stroke="none"/>
    <path d="M5.15 -3.15 L5.05 -7.0 7.25 -4.85 7.9 -0.55 5.15 -3.15" fill="#333333" fill-rule="evenodd" stroke="none"/>
    <path d="M1.85 -6.45 L-0.05 -9.9 3.45 -10.55 5.05 -6.95 1.85 -6.45" fill="#000000" fill-rule="evenodd" stroke="none"/>
  </g>
</svg>
