<?xml version="1.0" encoding="UTF-8" standalone="no"?>
<svg xmlns:xlink="http://www.w3.org/1999/xlink" height="22.35px" width="22.9px" xmlns="http://www.w3.org/2000/svg">
  <g transform="matrix(1.0, 0.0, 0.0, 1.0, 11.45, 11.15)">
    <path d="M-11.4 -5.95 L-8.55 -10.05 -3.85 -11.1 -6.95 -8.8 -11.4 -5.95" fill="#ffffff" fill-rule="evenodd" stroke="none"/>
    <path d="M-11.0 -2.35 L-11.45 -5.75 -9.25 -2.65 -8.95 1.7 -11.0 -2.35" fill="#ffffff" fill-rule="evenodd" stroke="none"/>
    <path d="M-8.95 1.7 L-6.05 2.55 -5.45 6.45 -8.95 1.7" fill="#666666" fill-rule="evenodd" stroke="none"/>
    <path d="M-5.1 6.8 L-1.65 7.05 -0.1 11.15 -5.1 6.8" fill="#ffffff" fill-rule="evenodd" stroke="none"/>
    <path d="M-0.05 11.2 L-1.25 6.55 -1.0 6.1 0.05 6.6 -0.05 11.2" fill="#000000" fill-rule="evenodd" stroke="none"/>
    <path d="M-1.0 6.15 L0.0 4.45 -0.05 6.65 -1.0 6.15" fill="#cccccc" fill-rule="evenodd" stroke="none"/>
    <path d="M-0.05 11.2 L-1.7 7.05 -1.25 6.55 -0.05 11.2" fill="#a7a7a7" fill-rule="evenodd" stroke="none"/>
    <path d="M-5.45 6.45 L-6.05 2.55 -1.25 6.6 -1.65 7.1 -5.1 6.8 -5.45 6.45" fill="#cccccc" fill-rule="evenodd" stroke="none"/>
    <path d="M-8.95 1.7 L-9.25 -2.7 -7.85 -1.65 -6.05 2.55 -8.95 1.7" fill="#a7a7a7" fill-rule="evenodd" stroke="none"/>
    <path d="M-11.45 -5.7 L-11.4 -5.95 -6.95 -8.8 -9.25 -2.65 -11.45 -5.7" fill="#a7a7a7" fill-rule="evenodd" stroke="none"/>
    <path d="M-6.95 -8.8 L-3.85 -11.1 -3.5 -11.15 0.05 -7.8 -6.95 -8.8" fill="#666666" fill-rule="evenodd" stroke="none"/>
    <path d="M-2.65 -4.1 L-6.95 -8.8 0.05 -7.8 0.05 -5.3 -2.65 -4.1" fill="#cccccc" fill-rule="evenodd" stroke="none"/>
    <path d="M-6.8 -6.15 L-7.9 -6.3 -6.9 -8.8 -2.65 -4.1 -6.8 -6.15" fill="#000000" fill-rule="evenodd" stroke="none"/>
    <path d="M-9.25 -2.7 L-7.9 -6.3 -7.35 -6.25 -6.45 -1.8 -9.25 -2.7" fill="#ffffff" fill-rule="evenodd" stroke="none"/>
    <path d="M-7.9 -1.65 L-9.25 -2.7 -6.45 -1.8 -6.05 2.55 -7.9 -1.65" fill="#666666" fill-rule="evenodd" stroke="none"/>
    <path d="M-6.05 2.55 L-6.45 -1.8 -6.05 -0.6 -2.8 2.95 -1.25 6.6 -6.05 2.55" fill="#a7a7a7" fill-rule="evenodd" stroke="none"/>
    <path d="M-1.25 6.6 L-2.8 2.95 0.05 4.45 -1.25 6.6" fill="#666666" fill-rule="evenodd" stroke="none"/>
    <path d="M-6.6 -1.8 L-7.4 -6.25 Q-7.4 -6.25 -7.05 -6.2 -6.7 -6.2 -6.65 -6.2 -3.35 -4.45 -0.05 -2.65 L-6.6 -1.8" fill="#666666" fill-rule="evenodd" stroke="none"/>
    <path d="M-6.6 -1.8 L-7.4 -6.25 Q-7.4 -6.25 -7.05 -6.2 -6.7 -6.2 -6.65 -6.2 -3.35 -4.45 -0.05 -2.65 L-6.6 -1.8 Z" fill="none" stroke="#666666" stroke-linecap="round" stroke-linejoin="round" stroke-width="1.0"/>
    <path d="M-0.1 -2.65 Q-0.3 -2.55 2.95 -4.25 6.1 -5.9 6.7 -6.1 7.05 -6.15 7.4 -6.2 L6.45 -1.75 -0.1 -2.65" fill="#cccccc" fill-rule="evenodd" stroke="none"/>
    <path d="M-0.1 -2.65 Q-0.3 -2.55 2.95 -4.25 6.1 -5.9 6.7 -6.1 7.05 -6.15 7.4 -6.2 L6.45 -1.75 -0.1 -2.65 Z" fill="none" stroke="#cccccc" stroke-linecap="round" stroke-linejoin="round" stroke-width="1.0"/>
    <path d="M1.8 3.55 L-0.05 -2.65 6.5 -1.8 6.1 -0.6 2.8 3.0 1.8 3.55" fill="#666666" fill-rule="evenodd" stroke="none"/>
    <path d="M-2.95 3.0 L-6.2 -0.6 -6.65 -1.8 -0.1 -2.65 -1.95 3.55 -2.95 3.0" fill="#ffffff" fill-rule="evenodd" stroke="none"/>
    <path d="M-3.5 -11.15 L-0.05 -9.85 3.5 -11.15 -0.05 -7.8 -3.5 -11.15" fill="#a7a7a7" fill-rule="evenodd" stroke="none"/>
    <path d="M6.95 -8.8 L3.85 -11.1 8.55 -10.05 11.4 -5.95 6.95 -8.8" fill="#a7a7a7" fill-rule="evenodd" stroke="none"/>
    <path d="M8.95 1.7 L9.25 -2.65 11.45 -5.7 11.0 -2.35 8.95 1.7" fill="#ffffff" fill-rule="evenodd" stroke="none"/>
    <path d="M5.45 6.45 L6.05 2.55 8.95 1.7 5.45 6.45" fill="#666666" fill-rule="evenodd" stroke="none"/>
    <path d="M-0.05 11.15 L1.65 7.1 5.1 6.8 -0.05 11.15" fill="#cccccc" fill-rule="evenodd" stroke="none"/>
    <path d="M-0.05 6.6 L1.0 6.15 1.25 6.6 -0.05 11.2 -0.05 6.6" fill="#cccccc" fill-rule="evenodd" stroke="none"/>
    <path d="M-0.05 6.65 L0.0 4.45 1.0 6.15 -0.05 6.65" fill="#666666" fill-rule="evenodd" stroke="none"/>
    <path d="M-0.05 11.2 L1.25 6.6 1.7 7.05 -0.05 11.2" fill="#666666" fill-rule="evenodd" stroke="none"/>
    <path d="M5.1 6.8 L1.65 7.1 1.25 6.6 6.05 2.55 5.45 6.45 5.1 6.8" fill="#000000" fill-rule="evenodd" stroke="none"/>
    <path d="M6.05 2.55 L7.85 -1.65 9.25 -2.65 8.95 1.7 6.05 2.55" fill="#cccccc" fill-rule="evenodd" stroke="none"/>
    <path d="M9.25 -2.65 L6.95 -8.8 11.4 -5.95 11.45 -5.7 9.25 -2.65" fill="#666666" fill-rule="evenodd" stroke="none"/>
    <path d="M-0.05 -2.7 L-2.65 -4.1 -0.05 -5.3 2.65 -4.1 -0.05 -2.7" fill="#a7a7a7" fill-rule="evenodd" stroke="none"/>
    <path d="M-0.05 -7.8 L3.5 -11.15 3.85 -11.1 6.95 -8.8 -0.05 -7.8" fill="#ffffff" fill-rule="evenodd" stroke="none"/>
    <path d="M-0.05 -5.3 L-0.05 -7.8 6.95 -8.8 2.65 -4.1 -0.05 -5.3" fill="#666666" fill-rule="evenodd" stroke="none"/>
    <path d="M2.65 -4.1 L6.9 -8.8 7.9 -6.25 6.8 -6.15 2.65 -4.1" fill="#ffffff" fill-rule="evenodd" stroke="none"/>
    <path d="M6.45 -1.8 L7.35 -6.25 7.9 -6.25 9.25 -2.7 6.45 -1.8" fill="#a7a7a7" fill-rule="evenodd" stroke="none"/>
    <path d="M6.0 2.55 L6.45 -1.8 9.2 -2.7 7.85 -1.65 6.0 2.55" fill="#000000" fill-rule="evenodd" stroke="none"/>
    <path d="M1.25 6.6 L2.8 2.95 6.05 -0.6 6.45 -1.8 6.05 2.55 1.25 6.6" fill="#cccccc" fill-rule="evenodd" stroke="none"/>
    <path d="M-0.05 4.45 L2.8 3.0 1.25 6.6 -0.05 4.45" fill="#ffffff" fill-rule="evenodd" stroke="none"/>
    <path d="M0.0 4.4 L-0.05 -2.7 1.8 3.5 0.0 4.4" fill="#cccccc" fill-rule="evenodd" stroke="none"/>
    <path d="M-1.9 3.45 L-0.05 -2.7 0.0 4.4 -1.9 3.45" fill="#a7a7a7" fill-rule="evenodd" stroke="none"/>
  </g>
</svg>
