<?xml version="1.0" encoding="UTF-8" standalone="no"?>
<svg xmlns:xlink="http://www.w3.org/1999/xlink" height="23.5px" width="18.65px" xmlns="http://www.w3.org/2000/svg">
  <g transform="matrix(1.0, 0.0, 0.0, 1.0, 9.35, 11.75)">
    <path d="M9.3 0.0 L5.5 0.05 5.5 -4.95 9.3 0.0" fill="#666666" fill-rule="evenodd" stroke="none"/>
    <path d="M9.3 -4.65 L9.3 0.0 5.5 -4.95 9.3 -4.65" fill="#cdcdcd" fill-rule="evenodd" stroke="none"/>
    <path d="M7.15 -9.35 L9.3 -4.65 5.5 -4.9 7.15 -9.35" fill="#a7a7a7" fill-rule="evenodd" stroke="none"/>
    <path d="M5.5 -4.95 L5.5 0.0 4.25 -3.6 5.5 -4.95" fill="#a7a7a7" fill-rule="evenodd" stroke="none"/>
    <path d="M2.6 -4.4 L5.5 -4.9 4.25 -3.6 2.6 -4.4" fill="#cdcdcd" fill-rule="evenodd" stroke="none"/>
    <path d="M5.5 -4.9 L2.6 -4.4 2.5 -8.5 5.5 -4.9" fill="#000000" fill-rule="evenodd" stroke="none"/>
    <path d="M6.8 -8.4 L5.5 -4.9 2.5 -8.5 6.8 -8.4" fill="#666666" fill-rule="evenodd" stroke="none"/>
    <path d="M7.15 -9.3 L6.8 -8.4 2.5 -8.5 4.25 -11.3 7.15 -9.3" fill="#cdcdcd" fill-rule="evenodd" stroke="none"/>
    <path d="M4.25 -11.3 L2.25 -8.15 0.0 -11.75 4.25 -11.3" fill="#a7a7a7" fill-rule="evenodd" stroke="none"/>
    <path d="M2.5 -8.5 L2.6 -4.4 1.25 -5.0 0.0 -5.55 2.5 -8.5" fill="#666666" fill-rule="evenodd" stroke="none"/>
    <path d="M-0.05 -11.75 L2.25 -8.15 -0.05 -8.2 -0.05 -11.75" fill="#666666" fill-rule="evenodd" stroke="none"/>
    <path d="M2.25 -8.2 L0.0 -5.6 0.0 -8.2 2.25 -8.2" fill="#cdcdcd" fill-rule="evenodd" stroke="none"/>
    <path d="M3.7 0.05 Q3.7 0.05 3.75 -0.55 3.8 -1.25 3.85 -1.6 4.05 -2.6 4.25 -3.6 L5.5 0.0 3.7 0.05" fill="#ffffff" fill-rule="evenodd" stroke="none"/>
    <path d="M-5.55 -4.95 L-5.55 0.05 -9.35 0.0 -5.55 -4.95" fill="#a7a7a7" fill-rule="evenodd" stroke="none"/>
    <path d="M-5.55 -4.95 L-9.35 0.0 -9.35 -4.65 -5.55 -4.95" fill="#cdcdcd" fill-rule="evenodd" stroke="none"/>
    <path d="M-5.55 -4.9 L-9.35 -4.65 -7.2 -9.35 -5.55 -4.9" fill="#666666" fill-rule="evenodd" stroke="none"/>
    <path d="M-4.3 -3.6 L-5.55 0.0 -5.55 -4.95 -4.3 -3.6" fill="#666666" fill-rule="evenodd" stroke="none"/>
    <path d="M-4.3 -3.6 L-5.55 -4.9 -2.65 -4.4 -4.3 -3.6" fill="#a7a7a7" fill-rule="evenodd" stroke="none"/>
    <path d="M-2.55 -8.5 L-2.6 -4.4 -5.55 -4.9 -2.55 -8.5" fill="#cdcdcd" fill-rule="evenodd" stroke="none"/>
    <path d="M-2.55 -8.5 L-5.55 -4.9 -6.85 -8.4 -2.55 -8.5" fill="#a7a7a7" fill-rule="evenodd" stroke="none"/>
    <path d="M-4.3 -11.3 L-2.55 -8.5 -6.85 -8.4 -7.2 -9.35 -4.3 -11.3" fill="#ffffff" fill-rule="evenodd" stroke="none"/>
    <path d="M0.0 -11.75 L-2.3 -8.15 -4.3 -11.3 0.0 -11.75" fill="#666666" fill-rule="evenodd" stroke="none"/>
    <path d="M0.0 -5.55 L-1.3 -5.05 -2.6 -4.4 -2.55 -8.5 0.0 -5.55" fill="#666666" fill-rule="evenodd" stroke="none"/>
    <path d="M0.0 -8.2 L-2.25 -8.2 0.0 -11.75 0.0 -8.2" fill="#cdcdcd" fill-rule="evenodd" stroke="none"/>
    <path d="M0.0 -8.2 L0.0 -5.55 -2.25 -8.2 0.0 -8.2" fill="#a7a7a7" fill-rule="evenodd" stroke="none"/>
    <path d="M-5.55 0.0 L-4.3 -3.6 Q-4.3 -3.6 -4.15 -2.85 -3.95 -2.0 -3.9 -1.6 -3.85 -0.8 -3.75 0.0 L-5.55 0.0" fill="#a7a7a7" fill-rule="evenodd" stroke="none"/>
    <path d="M5.5 4.95 L5.5 -0.05 9.3 0.0 5.5 4.95" fill="#000000" fill-rule="evenodd" stroke="none"/>
    <path d="M5.5 4.95 L9.3 0.0 9.3 4.65 5.5 4.95" fill="#cdcdcd" fill-rule="evenodd" stroke="none"/>
    <path d="M5.5 4.9 L9.3 4.65 7.15 9.35 5.5 4.9" fill="#666666" fill-rule="evenodd" stroke="none"/>
    <path d="M4.25 3.6 L5.5 0.0 5.5 4.95 4.25 3.6" fill="#666666" fill-rule="evenodd" stroke="none"/>
    <path d="M4.25 3.6 L5.5 4.9 2.6 4.4 4.25 3.6" fill="#cdcdcd" fill-rule="evenodd" stroke="none"/>
    <path d="M2.5 8.5 L2.55 4.4 5.5 4.9 2.5 8.5" fill="#a7a7a7" fill-rule="evenodd" stroke="none"/>
    <path d="M2.55 8.5 L5.5 4.9 6.8 8.4 2.55 8.5" fill="#ffffff" fill-rule="evenodd" stroke="none"/>
    <path d="M4.25 11.3 L2.5 8.5 6.8 8.4 7.15 9.3 4.25 11.3" fill="#a7a7a7" fill-rule="evenodd" stroke="none"/>
    <path d="M0.0 11.75 L2.25 8.15 4.25 11.3 0.0 11.75" fill="#666666" fill-rule="evenodd" stroke="none"/>
    <path d="M-0.05 5.55 L1.25 5.0 2.55 4.4 2.5 8.5 -0.05 5.55" fill="#666666" fill-rule="evenodd" stroke="none"/>
    <path d="M-0.05 8.2 L2.2 8.15 -0.05 11.75 -0.05 8.2" fill="#cdcdcd" fill-rule="evenodd" stroke="none"/>
    <path d="M-0.05 8.2 L-0.05 5.55 2.2 8.15 -0.05 8.2" fill="#a7a7a7" fill-rule="evenodd" stroke="none"/>
    <path d="M5.5 0.0 L4.25 3.6 Q4.25 3.6 4.1 2.85 3.9 2.0 3.85 1.6 3.8 0.8 3.7 -0.05 L5.5 0.0" fill="#cdcdcd" fill-rule="evenodd" stroke="none"/>
    <path d="M-9.35 0.0 L-5.55 -0.05 -5.55 4.95 -9.35 0.0" fill="#666666" fill-rule="evenodd" stroke="none"/>
    <path d="M-9.35 4.65 L-9.35 0.0 -5.55 4.95 -9.35 4.65" fill="#cdcdcd" fill-rule="evenodd" stroke="none"/>
    <path d="M-7.2 9.35 L-9.35 4.65 -5.55 4.9 -7.2 9.35" fill="#666666" fill-rule="evenodd" stroke="none"/>
    <path d="M-5.55 4.95 L-5.55 0.0 -4.3 3.6 -5.55 4.95" fill="#a7a7a7" fill-rule="evenodd" stroke="none"/>
    <path d="M-2.65 4.4 L-5.55 4.9 -4.3 3.6 -2.65 4.4" fill="#cdcdcd" fill-rule="evenodd" stroke="none"/>
    <path d="M-5.55 4.9 L-2.65 4.4 -2.55 8.5 -5.55 4.9" fill="#666666" fill-rule="evenodd" stroke="none"/>
    <path d="M-6.85 8.4 L-5.55 4.9 -2.55 8.5 -6.85 8.4" fill="#cdcdcd" fill-rule="evenodd" stroke="none"/>
    <path d="M-7.2 9.35 L-6.85 8.4 -2.55 8.5 -4.3 11.3 -7.2 9.35" fill="#a7a7a7" fill-rule="evenodd" stroke="none"/>
    <path d="M-4.3 11.3 L-2.3 8.15 0.0 11.75 -4.3 11.3" fill="#000000" fill-rule="evenodd" stroke="none"/>
    <path d="M-2.55 8.5 L-2.65 4.4 -1.3 5.05 -0.05 5.55 -2.55 8.5" fill="#ffffff" fill-rule="evenodd" stroke="none"/>
    <path d="M-0.05 11.75 L-2.3 8.2 0.0 8.2 -0.05 11.75" fill="#666666" fill-rule="evenodd" stroke="none"/>
    <path d="M-2.3 8.15 L-0.05 5.55 0.0 8.2 -2.3 8.15" fill="#cdcdcd" fill-rule="evenodd" stroke="none"/>
    <path d="M-3.75 0.0 Q-3.75 0.0 -3.8 0.6 -3.85 1.25 -3.9 1.6 -4.1 2.6 -4.3 3.6 L-5.55 0.0 -3.75 0.0" fill="#666666" fill-rule="evenodd" stroke="none"/>
  </g>
</svg>
