<?xml version="1.0" encoding="UTF-8" standalone="no"?>
<svg xmlns:xlink="http://www.w3.org/1999/xlink" height="22.0px" width="22.0px" xmlns="http://www.w3.org/2000/svg">
  <g transform="matrix(1.0, 0.0, 0.0, 1.0, 11.0, 11.7)">
    <path d="M0.8 2.95 L2.0 4.4 0.0 6.3 0.0 3.7 0.8 2.95" fill="#999999" fill-rule="evenodd" stroke="none"/>
    <path d="M3.55 -0.45 L4.85 0.9 2.0 4.4 0.75 2.95 3.55 -0.45" fill="#666666" fill-rule="evenodd" stroke="none"/>
    <path d="M5.65 -3.9 L7.2 -2.8 4.8 0.9 3.55 -0.45 5.65 -3.9" fill="#999999" fill-rule="evenodd" stroke="none"/>
    <path d="M7.9 -5.05 L7.2 -2.8 5.65 -3.9 5.8 -4.25 7.9 -5.05" fill="#ffffff" fill-rule="evenodd" stroke="none"/>
    <path d="M5.8 -4.25 L5.05 -4.65 5.6 -6.4 7.9 -5.05 5.8 -4.25" fill="#999999" fill-rule="evenodd" stroke="none"/>
    <path d="M5.6 -6.4 L5.05 -4.6 2.0 -6.05 2.35 -7.85 5.6 -6.4" fill="#cccccc" fill-rule="evenodd" stroke="none"/>
    <path d="M2.35 -7.85 L2.0 -6.05 0.0 -6.3 0.0 -8.15 2.35 -7.85" fill="#ffffff" fill-rule="evenodd" stroke="none"/>
    <path d="M2.0 -6.05 L5.45 -4.4 5.8 -4.25 5.65 -3.9 3.55 -0.45 0.75 2.95 0.0 3.7 0.0 -6.3 2.0 -6.05" fill="#000000" fill-rule="evenodd" stroke="none"/>
    <path d="M2.0 4.4 L3.0 5.55 0.35 8.05 0.0 6.25 2.0 4.4" fill="#cccccc" fill-rule="evenodd" stroke="none"/>
    <path d="M4.8 0.9 L5.85 2.05 3.0 5.55 2.0 4.4 4.8 0.9" fill="#999999" fill-rule="evenodd" stroke="none"/>
    <path d="M7.2 -2.8 L8.35 -1.85 5.85 2.05 4.8 0.9 7.2 -2.8" fill="#cccccc" fill-rule="evenodd" stroke="none"/>
    <path d="M9.35 -4.75 L8.35 -1.85 7.2 -2.8 7.85 -5.05 9.35 -4.75" fill="#666666" fill-rule="evenodd" stroke="none"/>
    <path d="M9.0 -6.25 L7.85 -5.05 5.6 -6.4 6.15 -8.05 9.0 -6.25" fill="#666666" fill-rule="evenodd" stroke="none"/>
    <path d="M6.15 -8.05 L5.6 -6.4 2.35 -7.85 2.5 -9.55 6.15 -8.05" fill="#999999" fill-rule="evenodd" stroke="none"/>
    <path d="M2.5 -9.55 L2.35 -7.8 0.0 -8.15 0.0 -9.9 2.5 -9.55" fill="#666666" fill-rule="evenodd" stroke="none"/>
    <path d="M0.0 6.25 L0.75 10.15 0.0 10.3 0.0 6.25" fill="#999999" fill-rule="evenodd" stroke="none"/>
    <path d="M3.0 5.55 L4.1 7.15 0.75 10.15 0.35 8.05 3.0 5.55" fill="#666666" fill-rule="evenodd" stroke="none"/>
    <path d="M5.85 2.05 L7.1 3.45 4.1 7.15 3.0 5.55 5.85 2.05" fill="#000000" fill-rule="evenodd" stroke="none"/>
    <path d="M8.35 -1.85 L9.75 -0.85 7.1 3.5 5.85 2.05 8.35 -1.85" fill="#666666" fill-rule="evenodd" stroke="none"/>
    <path d="M11.0 -4.5 L9.75 -0.85 8.35 -1.85 9.35 -4.75 11.0 -4.5" fill="#999999" fill-rule="evenodd" stroke="none"/>
    <path d="M10.35 -7.55 L9.0 -6.2 6.15 -8.05 6.7 -9.75 10.35 -7.55" fill="#000000" fill-rule="evenodd" stroke="none"/>
    <path d="M6.7 -9.75 L6.15 -8.05 2.5 -9.55 2.75 -11.45 6.7 -9.75" fill="#666666" fill-rule="evenodd" stroke="none"/>
    <path d="M2.75 -11.45 L2.5 -9.55 0.0 -9.9 0.0 -11.7 2.75 -11.45" fill="#cccccc" fill-rule="evenodd" stroke="none"/>
    <path d="M9.0 -6.25 L10.35 -7.55 11.0 -4.5 9.35 -4.75 7.85 -5.05 9.0 -6.25" fill="#cccccc" fill-rule="evenodd" stroke="none"/>
    <path d="M0.0 3.7 L0.0 6.3 -2.0 4.4 -0.8 2.95 0.0 3.7" fill="#cccccc" fill-rule="evenodd" stroke="none"/>
    <path d="M-0.75 2.95 L-2.0 4.4 -4.85 0.9 -3.55 -0.45 -0.75 2.95" fill="#666666" fill-rule="evenodd" stroke="none"/>
    <path d="M-3.55 -0.45 L-4.8 0.9 -7.2 -2.8 -5.65 -3.9 -3.55 -0.45" fill="#999999" fill-rule="evenodd" stroke="none"/>
    <path d="M-5.8 -4.25 L-5.65 -3.9 -7.2 -2.8 -7.9 -5.05 -5.8 -4.25" fill="#666666" fill-rule="evenodd" stroke="none"/>
    <path d="M-7.9 -5.05 L-5.6 -6.4 -5.05 -4.65 -5.8 -4.25 -7.9 -5.05" fill="#cccccc" fill-rule="evenodd" stroke="none"/>
    <path d="M-2.35 -7.85 L-2.0 -6.05 -5.05 -4.6 -5.6 -6.4 -2.35 -7.85" fill="#999999" fill-rule="evenodd" stroke="none"/>
    <path d="M0.0 -8.15 L0.0 -6.3 -2.0 -6.05 -2.35 -7.85 0.0 -8.15" fill="#cccccc" fill-rule="evenodd" stroke="none"/>
    <path d="M0.0 -6.3 L0.0 3.7 -0.75 2.95 -3.55 -0.45 -5.65 -3.9 -5.8 -4.25 -5.45 -4.4 -2.0 -6.05 0.0 -6.3" fill="#000000" fill-rule="evenodd" stroke="none"/>
    <path d="M0.0 6.3 L-0.35 8.05 -3.0 5.55 -2.0 4.4 0.0 6.3" fill="#666666" fill-rule="evenodd" stroke="none"/>
    <path d="M-2.0 4.4 L-3.0 5.55 -5.85 2.05 -4.8 0.9 -2.0 4.4" fill="#999999" fill-rule="evenodd" stroke="none"/>
    <path d="M-4.8 0.9 L-5.85 2.05 -8.35 -1.85 -7.2 -2.8 -4.8 0.9" fill="#cccccc" fill-rule="evenodd" stroke="none"/>
    <path d="M-7.85 -5.05 L-7.2 -2.8 -8.35 -1.85 -9.35 -4.75 -7.85 -5.05" fill="#999999" fill-rule="evenodd" stroke="none"/>
    <path d="M-6.15 -8.05 L-5.6 -6.4 -7.85 -5.05 -9.0 -6.25 -6.15 -8.05" fill="#ffffff" fill-rule="evenodd" stroke="none"/>
    <path d="M-2.5 -9.55 L-2.35 -7.85 -5.6 -6.4 -6.15 -8.05 -2.5 -9.55" fill="#666666" fill-rule="evenodd" stroke="none"/>
    <path d="M0.0 -9.9 L0.0 -8.15 -2.35 -7.8 -2.5 -9.55 0.0 -9.9" fill="#999999" fill-rule="evenodd" stroke="none"/>
    <path d="M0.0 10.3 L-0.75 10.15 0.0 6.25 0.0 10.3" fill="#999999" fill-rule="evenodd" stroke="none"/>
    <path d="M-0.35 8.05 L-0.75 10.15 -4.1 7.15 -3.0 5.55 -0.35 8.05" fill="#cccccc" fill-rule="evenodd" stroke="none"/>
    <path d="M-3.0 5.55 L-4.1 7.15 -7.1 3.45 -5.85 2.05 -3.0 5.55" fill="#000000" fill-rule="evenodd" stroke="none"/>
    <path d="M-5.85 2.05 L-7.1 3.5 -9.75 -0.85 -8.35 -1.85 -5.85 2.05" fill="#999999" fill-rule="evenodd" stroke="none"/>
    <path d="M-9.35 -4.75 L-8.35 -1.85 -9.75 -0.85 -11.0 -4.5 -9.35 -4.75" fill="#000000" fill-rule="evenodd" stroke="none"/>
    <path d="M-6.7 -9.75 L-6.15 -8.05 -9.0 -6.2 -10.35 -7.55 -6.7 -9.75" fill="#cccccc" fill-rule="evenodd" stroke="none"/>
    <path d="M-2.75 -11.45 L-2.5 -9.55 -6.15 -8.05 -6.7 -9.75 -2.75 -11.45" fill="#999999" fill-rule="evenodd" stroke="none"/>
    <path d="M0.0 -11.7 L0.0 -9.9 -2.5 -9.55 -2.75 -11.45 0.0 -11.7" fill="#666666" fill-rule="evenodd" stroke="none"/>
    <path d="M-7.85 -5.05 L-9.35 -4.75 -11.0 -4.5 -10.35 -7.55 -9.0 -6.25 -7.85 -5.05" fill="#666666" fill-rule="evenodd" stroke="none"/>
  </g>
</svg>
