<?xml version="1.0" encoding="UTF-8" standalone="no"?>
<svg xmlns:xlink="http://www.w3.org/1999/xlink" height="23.5px" width="18.65px" xmlns="http://www.w3.org/2000/svg">
  <g transform="matrix(1.0, 0.0, 0.0, 1.0, 9.35, 11.75)">
    <path d="M5.4 -1.65 L7.0 -7.3 9.3 -2.6 5.75 1.65 5.4 -1.65" fill="#666666" fill-rule="evenodd" stroke="none"/>
    <path d="M7.9 2.9 L5.8 1.6 9.25 -2.6 Q9.35 -2.65 8.5 0.85 8.2 1.9 7.9 2.9 L7.9 2.9" fill="#333333" fill-rule="evenodd" stroke="none"/>
    <path d="M9.25 -2.65 L7.0 -7.25 9.25 -8.25 9.25 -2.65" fill="#333333" fill-rule="evenodd" stroke="none"/>
    <path d="M7.0 -7.25 L6.05 -11.75 9.25 -8.25 7.0 -7.25" fill="#666666" fill-rule="evenodd" stroke="none"/>
    <path d="M5.8 1.55 L7.9 2.9 Q7.9 3.2 6.8 5.1 6.3 5.9 5.8 6.75 L5.8 1.55" fill="#666666" fill-rule="evenodd" stroke="none"/>
    <path d="M1.65 7.6 L3.6 3.3 5.8 1.55 5.8 6.75 1.65 7.6" fill="#000000" fill-rule="evenodd" stroke="none"/>
    <path d="M4.95 -5.7 L7.0 -7.3 5.4 -1.6 4.95 -5.7" fill="#333333" fill-rule="evenodd" stroke="none"/>
    <path d="M4.95 -5.7 L2.35 -7.3 7.0 -7.3 4.95 -5.7" fill="#cccccc" fill-rule="evenodd" stroke="none"/>
    <path d="M2.35 -7.25 L0.0 -8.7 6.05 -11.75 7.0 -7.3 2.35 -7.25" fill="#ffffff" fill-rule="evenodd" stroke="none"/>
    <path d="M3.55 3.35 L5.4 -1.65 5.75 1.6 3.55 3.35" fill="#cccccc" fill-rule="evenodd" stroke="none"/>
    <path d="M1.6 7.55 L5.8 6.75 Q5.8 6.75 5.3 7.35 4.75 8.05 4.5 8.3 3.85 8.95 3.2 9.6 L1.6 7.55" fill="#cccccc" fill-rule="evenodd" stroke="none"/>
    <path d="M-0.05 11.7 L1.65 7.55 3.2 9.6 Q3.3 9.65 1.55 10.8 0.75 11.25 -0.05 11.7 L-0.05 11.7" fill="#333333" fill-rule="evenodd" stroke="none"/>
    <path d="M0.0 6.4 L3.6 3.3 1.7 7.6 0.0 6.4" fill="#333333" fill-rule="evenodd" stroke="none"/>
    <path d="M-5.8 1.65 L-9.35 -2.6 -7.05 -7.3 -5.45 -1.65 -5.8 1.65" fill="#ffffff" fill-rule="evenodd" stroke="none"/>
    <path d="M-8.55 0.85 Q-8.95 -0.9 -9.3 -2.6 L-5.85 1.6 -7.95 2.9 Q-7.9 3.45 -8.55 0.85 L-8.55 0.85" fill="#333333" fill-rule="evenodd" stroke="none"/>
    <path d="M-9.3 -8.25 L-7.05 -7.25 -9.3 -2.65 -9.3 -8.25" fill="#cccccc" fill-rule="evenodd" stroke="none"/>
    <path d="M-9.3 -8.25 L-6.1 -11.75 -7.05 -7.25 -9.3 -8.25" fill="#000000" fill-rule="evenodd" stroke="none"/>
    <path d="M-5.85 6.75 Q-5.85 6.75 -6.25 6.15 -6.7 5.45 -6.85 5.1 -7.4 4.0 -7.95 2.9 L-5.85 1.55 -5.85 6.75" fill="#cccccc" fill-rule="evenodd" stroke="none"/>
    <path d="M-5.85 6.75 L-5.85 1.55 -3.65 3.3 -1.7 7.6 -5.85 6.75" fill="#333333" fill-rule="evenodd" stroke="none"/>
    <path d="M-5.45 -1.6 L-7.05 -7.3 -5.0 -5.7 -5.45 -1.6" fill="#666666" fill-rule="evenodd" stroke="none"/>
    <path d="M-7.05 -7.3 L-2.35 -7.3 -5.0 -5.65 -7.05 -7.3" fill="#cccccc" fill-rule="evenodd" stroke="none"/>
    <path d="M-7.05 -7.3 L-6.1 -11.75 0.0 -8.7 -2.4 -7.25 -7.05 -7.3" fill="#333333" fill-rule="evenodd" stroke="none"/>
    <path d="M-5.8 1.6 L-5.45 -1.65 -3.6 3.35 -5.8 1.6" fill="#666666" fill-rule="evenodd" stroke="none"/>
    <path d="M-3.25 9.6 Q-3.35 9.65 -4.55 8.3 -5.2 7.5 -5.85 6.75 L-1.65 7.55 -3.25 9.6" fill="#666666" fill-rule="evenodd" stroke="none"/>
    <path d="M-1.6 10.8 Q-2.45 10.2 -3.25 9.6 L-1.7 7.55 -0.05 11.75 Q-0.05 11.75 -0.6 11.4 -1.3 11.0 -1.6 10.8 L-1.6 10.8" fill="#ffffff" fill-rule="evenodd" stroke="none"/>
    <path d="M-1.75 7.6 L-3.65 3.3 0.05 6.4 -1.75 7.6" fill="#cccccc" fill-rule="evenodd" stroke="none"/>
    <path d="M-0.05 11.75 L-1.7 7.55 0.05 6.4 1.65 7.55 -0.05 11.75" fill="#666666" fill-rule="evenodd" stroke="none"/>
    <path d="M-3.6 3.35 L-5.45 -1.65 -5.0 -5.65 0.0 -8.7 4.95 -5.7 5.45 -1.6 3.55 3.35 0.05 6.4 -3.6 3.35" fill="#000000" fill-rule="evenodd" stroke="none"/>
  </g>
</svg>
