<?xml version="1.0" encoding="UTF-8" standalone="no"?>
<svg xmlns:xlink="http://www.w3.org/1999/xlink" height="22.0px" width="22.0px" xmlns="http://www.w3.org/2000/svg">
  <g transform="matrix(1.0, 0.0, 0.0, 1.0, 11.0, 11.7)">
    <path d="M-4.25 -4.95 L-4.05 -8.45 -2.7 -8.95 -0.05 -6.75 0.0 -0.75 -4.25 -4.95" fill="#cccccc" fill-rule="evenodd" stroke="none"/>
    <path d="M-0.05 -0.7 L-0.05 -6.75 2.65 -8.95 4.0 -8.4 4.2 -4.95 -0.05 -0.7" fill="#ffffff" fill-rule="evenodd" stroke="none"/>
    <path d="M-4.25 3.5 L-7.7 3.3 -8.25 2.0 -6.05 -0.65 0.0 -0.75 -4.25 3.5" fill="#cccccc" fill-rule="evenodd" stroke="none"/>
    <path d="M0.0 -0.75 L-6.05 -0.65 -8.25 -3.4 -7.75 -4.7 -4.25 -4.95 0.0 -0.75" fill="#000000" fill-rule="evenodd" stroke="none"/>
    <path d="M0.0 -0.7 L-0.05 5.35 -2.7 7.55 -4.05 7.0 -4.25 3.55 0.0 -0.7" fill="#666666" fill-rule="evenodd" stroke="none"/>
    <path d="M4.2 3.5 L4.0 7.0 2.65 7.55 -0.05 5.35 0.0 -0.75 4.2 3.5" fill="#000000" fill-rule="evenodd" stroke="none"/>
    <path d="M-0.05 -0.75 L6.0 -0.65 8.2 2.0 7.65 3.35 4.15 3.55 -0.05 -0.75" fill="#666666" fill-rule="evenodd" stroke="none"/>
    <path d="M4.2 -4.95 L7.75 -4.7 8.25 -3.35 6.05 -0.7 0.0 -0.75 4.2 -4.95" fill="#333333" fill-rule="evenodd" stroke="none"/>
    <path d="M-2.7 -8.95 Q-2.75 -8.95 -2.35 -9.55 -1.9 -10.2 -1.65 -10.45 -0.85 -11.05 -0.05 -11.7 L-0.05 -6.75 -2.7 -8.95" fill="#333333" fill-rule="evenodd" stroke="none"/>
    <path d="M-0.05 -6.75 L-0.05 -11.7 Q-0.05 -11.7 0.55 -11.25 1.25 -10.75 1.5 -10.45 2.1 -9.7 2.65 -8.95 L-0.05 -6.75" fill="#000000" fill-rule="evenodd" stroke="none"/>
    <path d="M4.0 -8.4 Q4.0 -8.45 4.7 -8.55 5.45 -8.75 5.85 -8.75 6.85 -8.6 7.8 -8.5 L4.2 -4.95 4.0 -8.4" fill="#cccccc" fill-rule="evenodd" stroke="none"/>
    <path d="M4.2 -4.95 L7.8 -8.5 Q7.85 -8.5 7.95 -7.75 8.05 -6.95 8.05 -6.5 7.9 -5.6 7.75 -4.7 L4.2 -4.95" fill="#666666" fill-rule="evenodd" stroke="none"/>
    <path d="M-0.05 5.35 L-0.05 10.3 Q-0.05 10.3 -0.65 9.85 -1.35 9.35 -1.6 9.05 -1.7 8.95 -1.8 8.85 -1.85 8.75 -1.95 8.65 -2.05 8.5 -2.15 8.4 -2.25 8.25 -2.3 8.15 -2.4 8.05 -2.5 7.9 -2.55 7.8 -2.6 7.7 -2.65 7.65 -2.65 7.6 -2.7 7.55 -2.7 7.55 L-0.05 5.35" fill="#cccccc" fill-rule="evenodd" stroke="none"/>
    <path d="M2.65 7.55 Q2.8 7.35 2.25 8.15 1.8 8.8 1.55 9.05 0.75 9.7 -0.05 10.3 L-0.05 5.35 2.65 7.55" fill="#666666" fill-rule="evenodd" stroke="none"/>
    <path d="M-8.25 2.0 Q-8.25 2.0 -8.85 1.65 -9.5 1.2 -9.75 0.95 -10.35 0.15 -11.0 -0.65 L-6.05 -0.65 -8.25 2.0" fill="#333333" fill-rule="evenodd" stroke="none"/>
    <path d="M-6.05 -0.65 L-11.0 -0.65 Q-11.0 -0.65 -10.55 -1.25 -10.05 -1.95 -9.75 -2.2 -9.0 -2.8 -8.25 -3.35 L-6.05 -0.65" fill="#ffffff" fill-rule="evenodd" stroke="none"/>
    <path d="M6.05 -0.65 L11.0 -0.65 Q11.0 -0.6 10.55 0.0 10.05 0.65 9.75 0.95 9.0 1.5 8.2 2.0 L6.05 -0.65" fill="#333333" fill-rule="evenodd" stroke="none"/>
    <path d="M8.25 -3.35 Q8.25 -3.35 8.85 -2.95 9.5 -2.5 9.75 -2.2 10.4 -1.4 11.0 -0.65 L6.05 -0.65 8.25 -3.35" fill="#ffffff" fill-rule="evenodd" stroke="none"/>
    <path d="M-7.75 -4.7 Q-7.75 -4.7 -7.9 -5.35 -8.1 -6.05 -8.1 -6.45 -8.0 -7.4 -7.9 -8.35 L-4.25 -4.95 -7.75 -4.7" fill="#666666" fill-rule="evenodd" stroke="none"/>
    <path d="M-4.25 -4.95 L-7.9 -8.35 Q-7.9 -8.35 -7.15 -8.5 -6.3 -8.65 -5.9 -8.65 -4.95 -8.55 -4.05 -8.4 L-4.25 -4.95" fill="#333333" fill-rule="evenodd" stroke="none"/>
    <path d="M-4.05 7.0 Q-4.05 7.0 -4.65 7.15 -5.35 7.3 -5.75 7.3 -6.75 7.2 -7.75 7.05 L-4.25 3.55 -4.05 7.0" fill="#333333" fill-rule="evenodd" stroke="none"/>
    <path d="M-4.25 3.5 L-7.75 7.05 Q-7.75 7.05 -7.85 6.3 -8.0 5.45 -8.0 5.05 -7.85 4.2 -7.7 3.3 L-4.25 3.5" fill="#000000" fill-rule="evenodd" stroke="none"/>
    <path d="M7.7 3.35 Q7.7 3.35 7.8 3.95 7.95 4.7 7.95 5.1 7.85 6.1 7.7 7.05 L4.2 3.55 7.7 3.35" fill="#333333" fill-rule="evenodd" stroke="none"/>
    <path d="M4.2 3.55 L7.7 7.05 Q7.75 7.05 6.95 7.15 6.15 7.3 5.75 7.3 4.85 7.15 4.0 7.0 L4.2 3.55" fill="#ffffff" fill-rule="evenodd" stroke="none"/>
  </g>
</svg>
