<?xml version="1.0" encoding="UTF-8" standalone="no"?>
<svg xmlns:xlink="http://www.w3.org/1999/xlink" height="23.0px" width="23.0px" xmlns="http://www.w3.org/2000/svg">
  <g transform="matrix(1.0, 0.0, 0.0, 1.0, 11.5, 11.5)">
    <path d="M-0.05 0.05 L3.7 -5.45 8.15 -8.15 5.5 -3.65 -0.05 0.05 6.5 1.4 10.6 4.55 Q10.6 4.55 10.5 4.55 10.35 4.5 10.2 4.5 10.0 4.45 9.8 4.45 9.55 4.4 9.35 4.4 9.05 4.4 8.85 4.4 8.6 4.4 8.4 4.4 8.15 4.45 8.05 4.5 7.85 4.55 7.8 4.65 7.7 4.75 7.7 5.0 7.65 5.2 7.7 5.5 7.7 5.75 7.75 6.05 7.8 6.35 7.85 6.65 7.9 6.95 7.95 7.25 8.0 7.5 8.1 7.75 8.1 7.9 8.15 8.05 8.2 8.15 8.2 8.2 L5.45 3.6 -0.05 0.05 -1.45 6.75 -4.35 10.65 -3.7 5.5 -0.05 0.05 -3.7 -5.6 -4.35 -10.55 -1.2 -6.65 -0.05 0.05 M4.25 10.7 Q4.25 10.7 4.15 10.6 4.05 10.5 3.95 10.4 3.8 10.25 3.6 10.15 3.4 9.95 3.2 9.8 3.0 9.65 2.8 9.5 2.55 9.35 2.4 9.25 2.15 9.1 2.0 9.05 1.85 9.0 1.7 9.0 1.55 9.05 1.4 9.15 1.25 9.25 1.1 9.45 0.95 9.65 0.8 9.85 0.7 10.05 0.55 10.3 0.4 10.5 0.3 10.75 0.2 10.95 0.1 11.15 0.05 11.25 0.0 11.4 -0.05 11.45 -0.05 11.5 L1.25 6.65 4.25 10.7" fill="#666666" fill-rule="evenodd" stroke="none"/>
    <path d="M4.45 -10.5 L1.4 -6.7 0.15 -11.5 Q0.15 -11.5 0.2 -11.4 0.25 -11.3 0.35 -11.15 0.45 -11.0 0.55 -10.8 0.7 -10.6 0.8 -10.4 0.95 -10.2 1.1 -10.0 1.25 -9.8 1.4 -9.65 1.55 -9.45 1.7 -9.35 1.85 -9.25 2.0 -9.2 2.15 -9.15 2.3 -9.2 2.5 -9.25 2.7 -9.35 2.9 -9.4 3.1 -9.55 3.3 -9.65 3.5 -9.8 3.7 -9.9 3.85 -10.05 4.0 -10.15 4.15 -10.25 4.3 -10.35 4.35 -10.45 4.4 -10.45 4.45 -10.5 M5.5 -3.65 L8.15 -8.15 Q8.15 -8.15 8.1 -8.05 8.1 -7.9 8.05 -7.75 8.0 -7.55 7.95 -7.35 7.9 -7.1 7.85 -6.85 7.8 -6.6 7.8 -6.35 7.75 -6.05 7.75 -5.85 7.75 -5.6 7.75 -5.45 7.8 -5.25 7.85 -5.15 7.95 -5.05 8.1 -4.9 8.25 -4.8 8.45 -4.75 8.65 -4.65 8.9 -4.6 9.15 -4.55 9.4 -4.5 9.6 -4.45 9.85 -4.4 10.05 -4.4 10.25 -4.35 10.35 -4.35 10.5 -4.35 10.55 -4.35 10.6 -4.35 L5.5 -3.65 M11.5 0.1 Q11.5 0.1 11.4 0.15 11.3 0.25 11.15 0.3 11.0 0.4 10.85 0.5 10.6 0.65 10.45 0.8 10.2 0.95 10.05 1.1 9.8 1.25 9.65 1.4 9.5 1.55 9.4 1.7 9.3 1.85 9.25 1.95 9.2 2.1 9.25 2.3 9.3 2.5 9.4 2.7 9.5 2.9 9.6 3.15 9.75 3.35 9.85 3.55 10.0 3.75 10.15 3.95 10.25 4.1 10.35 4.25 10.45 4.4 10.55 4.5 10.55 4.5 10.6 4.55 L6.5 1.4 11.5 0.1 M-4.35 10.65 Q-4.35 10.65 -4.35 10.55 -4.35 10.4 -4.4 10.25 -4.4 10.0 -4.45 9.8 -4.45 9.55 -4.5 9.3 -4.55 9.0 -4.6 8.75 -4.65 8.5 -4.75 8.25 -4.8 8.05 -4.9 7.85 -5.0 7.7 -5.15 7.65 -5.25 7.55 -5.45 7.55 -5.65 7.55 -5.85 7.55 -6.1 7.6 -6.35 7.65 -6.6 7.7 -6.85 7.8 -7.1 7.85 -7.35 7.95 -7.5 8.0 -7.7 8.1 -7.85 8.15 -8.0 8.2 -8.05 8.25 -8.1 8.25 L-3.7 5.5 -4.35 10.65" fill="#cccccc" fill-rule="evenodd" stroke="none"/>
    <path d="M3.7 -5.45 L4.45 -10.5 Q4.45 -10.5 4.45 -10.4 4.5 -10.3 4.5 -10.15 4.55 -9.95 4.6 -9.75 4.65 -9.55 4.7 -9.35 4.75 -9.1 4.85 -8.9 4.9 -8.65 5.0 -8.45 5.05 -8.25 5.15 -8.1 5.25 -7.95 5.35 -7.9 5.45 -7.8 5.65 -7.8 5.85 -7.75 6.05 -7.75 6.3 -7.75 6.55 -7.8 6.75 -7.8 7.0 -7.85 7.2 -7.9 7.45 -7.95 7.6 -8.0 7.8 -8.05 7.95 -8.1 8.05 -8.1 8.1 -8.15 8.15 -8.15 L3.7 -5.45 M1.4 -6.7 L-0.05 0.05 -1.2 -6.65 0.15 -11.5 1.4 -6.7 M10.6 -4.35 Q10.6 -4.35 10.55 -4.25 10.45 -4.1 10.35 -3.95 10.25 -3.75 10.1 -3.5 9.95 -3.25 9.85 -3.0 9.7 -2.75 9.55 -2.5 9.4 -2.2 9.35 -1.95 9.25 -1.7 9.2 -1.5 9.15 -1.3 9.15 -1.2 9.2 -1.05 9.3 -0.9 9.4 -0.8 9.6 -0.65 9.75 -0.55 9.95 -0.45 10.15 -0.35 10.4 -0.25 10.6 -0.15 10.8 -0.1 11.0 -0.05 11.15 0.0 11.3 0.05 11.4 0.05 11.45 0.1 11.5 0.1 L6.5 1.4 -0.05 0.05 -6.65 -1.3 -10.6 -4.25 -5.45 -3.55 -0.05 0.05 6.55 -1.3 10.6 -4.35 M8.2 8.2 Q8.2 8.2 8.1 8.15 7.95 8.1 7.8 8.05 7.6 8.0 7.35 7.95 7.1 7.85 6.85 7.8 6.55 7.75 6.3 7.7 6.05 7.65 5.8 7.6 5.55 7.6 5.35 7.6 5.15 7.65 5.05 7.7 4.95 7.8 4.8 7.95 4.7 8.1 4.65 8.35 4.55 8.55 4.5 8.85 4.45 9.1 4.4 9.35 4.35 9.6 4.3 9.85 4.3 10.05 4.3 10.3 4.25 10.45 4.25 10.6 4.25 10.65 4.25 10.7 L3.65 5.55 8.2 8.2 M-0.05 11.5 Q-0.05 11.5 -0.1 11.4 -0.15 11.3 -0.25 11.15 -0.35 10.95 -0.45 10.75 -0.55 10.55 -0.7 10.35 -0.85 10.1 -1.0 9.9 -1.15 9.7 -1.3 9.5 -1.45 9.35 -1.55 9.25 -1.7 9.1 -1.85 9.1 -2.0 9.05 -2.15 9.1 -2.35 9.15 -2.55 9.25 -2.75 9.35 -2.95 9.5 -3.15 9.65 -3.4 9.8 -3.55 9.95 -3.75 10.1 -3.9 10.25 -4.05 10.35 -4.15 10.45 -4.25 10.55 -4.3 10.6 -4.35 10.65 L-1.45 6.75 -0.05 11.5" fill="#ffffff" fill-rule="evenodd" stroke="none"/>
    <path d="M4.45 -10.5 L3.7 -5.45 -0.05 0.05 1.4 -6.7 4.45 -10.5 M-11.5 -0.1 Q-11.5 -0.1 -11.4 -0.15 -11.35 -0.2 -11.2 -0.3 -11.05 -0.4 -10.9 -0.5 -10.75 -0.6 -10.6 -0.75 -10.4 -0.9 -10.2 -1.0 -10.05 -1.2 -9.9 -1.3 -9.75 -1.5 -9.65 -1.6 -9.55 -1.8 -9.55 -1.9 -9.5 -2.0 -9.55 -2.2 -9.55 -2.35 -9.65 -2.55 -9.7 -2.75 -9.8 -2.95 -9.9 -3.1 -10.0 -3.3 -10.1 -3.5 -10.25 -3.7 -10.3 -3.8 -10.4 -3.95 -10.5 -4.05 -10.55 -4.15 -10.55 -4.2 -10.6 -4.25 L-6.65 -1.3 -11.5 -0.1 M-8.2 -8.15 Q-8.2 -8.15 -8.1 -8.1 -8.0 -8.0 -7.85 -7.95 -7.65 -7.85 -7.45 -7.75 -7.25 -7.65 -7.05 -7.55 -6.75 -7.4 -6.55 -7.35 -6.3 -7.25 -6.1 -7.2 -5.85 -7.15 -5.65 -7.15 -5.5 -7.15 -5.35 -7.25 -5.25 -7.3 -5.15 -7.5 -5.05 -7.65 -4.95 -7.9 -4.85 -8.15 -4.75 -8.45 -4.7 -8.7 -4.6 -9.05 -4.55 -9.3 -4.5 -9.6 -4.45 -9.85 -4.4 -10.1 -4.4 -10.25 -4.35 -10.4 -4.35 -10.45 -4.35 -10.55 L-3.7 -5.6 -0.05 0.05 -5.45 -3.55 -8.2 -8.15 M10.6 -4.35 L6.55 -1.3 -0.05 0.05 5.45 3.6 8.2 8.2 3.65 5.55 4.25 10.7 1.25 6.65 -0.05 11.5 -1.45 6.75 -0.05 0.05 -3.7 5.5 -8.1 8.25 -5.6 3.7 -10.6 4.4 -6.5 1.3 -0.05 0.05 5.5 -3.65 10.6 -4.35" fill="#000000" fill-rule="evenodd" stroke="none"/>
    <path d="M-8.1 8.25 Q-8.1 8.25 -8.05 8.15 -8.05 8.0 -8.0 7.85 -7.95 7.6 -7.9 7.4 -7.85 7.15 -7.8 6.9 -7.75 6.6 -7.7 6.35 -7.65 6.05 -7.65 5.8 -7.65 5.55 -7.7 5.35 -7.75 5.15 -7.8 5.0 -7.85 4.9 -8.05 4.8 -8.2 4.75 -8.4 4.65 -8.6 4.6 -8.85 4.55 -9.1 4.5 -9.35 4.5 -9.55 4.45 -9.8 4.45 -10.0 4.45 -10.2 4.4 -10.35 4.4 -10.5 4.4 -10.55 4.4 -10.6 4.4 -10.6 4.4 -10.5 4.3 -10.4 4.15 -10.3 4.0 -10.15 3.8 -10.0 3.55 -9.8 3.3 -9.65 3.05 -9.45 2.75 -9.3 2.5 -9.15 2.2 -9.0 1.95 -8.9 1.7 -8.85 1.5 -8.75 1.25 -8.8 1.1 -8.8 1.05 -8.95 0.95 -9.05 0.85 -9.25 0.75 -9.45 0.7 -9.7 0.55 -9.9 0.5 -10.2 0.4 -10.4 0.3 -10.65 0.2 -10.85 0.1 -11.1 0.05 -11.25 0.0 -11.4 -0.05 -11.45 -0.05 -11.5 -0.1 L-6.65 -1.3 -0.05 0.05 -6.5 1.3 -10.6 4.4 -5.6 3.7 -8.1 8.25 M-10.6 -4.25 Q-10.6 -4.25 -10.5 -4.25 -10.35 -4.3 -10.2 -4.3 -10.0 -4.35 -9.8 -4.35 -9.55 -4.4 -9.35 -4.5 -9.1 -4.55 -8.85 -4.6 -8.6 -4.7 -8.4 -4.8 -8.15 -4.9 -8.0 -5.0 -7.85 -5.1 -7.75 -5.25 -7.7 -5.35 -7.65 -5.55 -7.65 -5.7 -7.65 -5.95 -7.7 -6.15 -7.75 -6.4 -7.8 -6.65 -7.85 -6.9 -7.9 -7.15 -7.95 -7.4 -8.0 -7.55 -8.1 -7.75 -8.1 -7.9 -8.15 -8.05 -8.2 -8.1 -8.2 -8.15 L-5.45 -3.55 -10.6 -4.25" fill="#999999" fill-rule="evenodd" stroke="none"/>
    <path d="M-4.35 -10.55 Q-4.35 -10.55 -4.25 -10.5 -4.2 -10.4 -4.05 -10.35 -3.9 -10.25 -3.75 -10.15 -3.55 -10.0 -3.35 -9.9 -3.1 -9.75 -2.9 -9.65 -2.7 -9.55 -2.5 -9.5 -2.3 -9.4 -2.1 -9.35 -1.9 -9.35 -1.8 -9.35 -1.65 -9.4 -1.5 -9.5 -1.35 -9.6 -1.15 -9.75 -1.0 -9.9 -0.85 -10.1 -0.7 -10.25 -0.55 -10.5 -0.4 -10.65 -0.25 -10.85 -0.15 -11.0 -0.05 -11.2 0.05 -11.3 0.1 -11.4 0.1 -11.45 0.15 -11.5 L-1.2 -6.65 -4.35 -10.55" fill="#333333" fill-rule="evenodd" stroke="none"/>
  </g>
</svg>
