<?xml version="1.0" encoding="UTF-8" standalone="no"?>
<svg xmlns:xlink="http://www.w3.org/1999/xlink" height="23.5px" width="18.65px" xmlns="http://www.w3.org/2000/svg">
  <g transform="matrix(1.0, 0.0, 0.0, 1.0, 9.35, 11.75)">
    <path d="M-3.85 11.75 L-4.6 9.2 -1.4 11.75 -3.85 11.75" fill="#333333" fill-rule="evenodd" stroke="none"/>
    <path d="M-3.85 11.75 L-4.6 9.2 -1.4 11.75 -3.85 11.75 Z" fill="none" stroke="#000000" stroke-linecap="round" stroke-linejoin="round" stroke-width="1.0"/>
    <path d="M-4.6 9.2 L-3.8 7.25 -0.7 9.1 -4.6 9.2" fill="#333333" fill-rule="evenodd" stroke="none"/>
    <path d="M-8.0 8.95 L-6.0 8.05 -5.7 10.9 -8.0 8.95" fill="#ffffff" fill-rule="evenodd" stroke="none"/>
    <path d="M-8.0 8.95 L-8.75 6.55 -7.15 6.7 -7.1 7.75 -8.0 8.95" fill="#666666" fill-rule="evenodd" stroke="none"/>
    <path d="M-8.75 6.55 L-8.6 3.75 -6.6 5.05 -8.75 6.55" fill="#a7a7a7" fill-rule="evenodd" stroke="none"/>
    <path d="M-6.65 5.05 L-7.25 1.55 -4.05 2.2 -6.65 5.05" fill="#666666" fill-rule="evenodd" stroke="none"/>
    <path d="M-4.05 2.2 L-5.35 0.2 -1.8 3.55 -4.05 2.2" fill="#000000" fill-rule="evenodd" stroke="none"/>
    <path d="M-7.25 1.55 L-5.35 0.2 -4.05 2.2 -7.25 1.55" fill="#a7a7a7" fill-rule="evenodd" stroke="none"/>
    <path d="M-8.6 3.75 L-7.25 1.55 -6.6 5.05 -8.6 3.75" fill="#000000" fill-rule="evenodd" stroke="none"/>
    <path d="M-8.75 6.55 L-6.65 5.05 -7.15 6.7 -8.75 6.55" fill="#333333" fill-rule="evenodd" stroke="none"/>
    <path d="M-8.0 8.95 L-7.1 7.75 -6.0 8.05 -8.0 8.95" fill="#a7a7a7" fill-rule="evenodd" stroke="none"/>
    <path d="M-1.45 11.75 L-4.65 9.2 -0.7 9.1 -1.45 11.75" fill="#a7a7a7" fill-rule="evenodd" stroke="none"/>
    <path d="M-5.75 10.9 L-4.6 9.2 -3.8 11.75 -5.75 10.9" fill="#666666" fill-rule="evenodd" stroke="none"/>
    <path d="M-6.0 8.05 L-3.8 7.25 -4.6 9.2 -6.0 8.05" fill="#666666" fill-rule="evenodd" stroke="none"/>
    <path d="M-6.0 8.05 L-4.7 5.65 -3.8 7.25 -6.0 8.05" fill="#333333" fill-rule="evenodd" stroke="none"/>
    <path d="M-7.15 6.7 L-6.0 8.05 -7.1 7.75 -7.15 6.7" fill="#333333" fill-rule="evenodd" stroke="none"/>
    <path d="M-7.15 6.7 L-6.65 5.05 -6.0 8.05 -7.15 6.7" fill="#666666" fill-rule="evenodd" stroke="none"/>
    <path d="M-6.65 5.05 L-4.7 5.65 -6.0 8.05 -6.65 5.05" fill="#a7a7a7" fill-rule="evenodd" stroke="none"/>
    <path d="M-6.65 5.05 L-1.8 3.55 -4.7 5.7 -6.65 5.05" fill="#666666" fill-rule="evenodd" stroke="none"/>
    <path d="M-5.75 10.9 L-6.0 8.05 -4.6 9.2 -5.75 10.9" fill="#a7a7a7" fill-rule="evenodd" stroke="none"/>
    <path d="M-4.7 5.7 L-1.8 3.55 -3.8 7.25 -4.7 5.7" fill="#a7a7a7" fill-rule="evenodd" stroke="none"/>
    <path d="M-6.65 5.05 L-4.05 2.2 -1.8 3.55 -6.65 5.05" fill="#333333" fill-rule="evenodd" stroke="none"/>
    <path d="M-3.8 7.25 L-1.7 7.0 -0.7 9.1 -3.8 7.25" fill="#000000" fill-rule="evenodd" stroke="none"/>
    <path d="M-3.8 7.25 L-0.8 5.25 -1.7 7.0 -3.8 7.25" fill="#a7a7a7" fill-rule="evenodd" stroke="none"/>
    <path d="M-3.8 7.25 L-1.8 3.55 -0.8 5.25 -3.8 7.25" fill="#ffffff" fill-rule="evenodd" stroke="none"/>
    <path d="M-1.7 7.0 L-0.8 5.25 1.65 7.25 -1.7 7.0" fill="#333333" fill-rule="evenodd" stroke="none"/>
    <path d="M-0.8 5.25 L-1.8 3.5 1.9 4.85 -0.8 5.25" fill="#666666" fill-rule="evenodd" stroke="none"/>
    <path d="M2.4 6.35 L-0.8 5.25 1.85 4.85 4.2 5.25 2.4 6.35" fill="#333333" fill-rule="evenodd" stroke="none"/>
    <path d="M1.65 7.25 L-0.8 5.25 2.4 6.35 1.65 7.25" fill="#666666" fill-rule="evenodd" stroke="none"/>
    <path d="M1.9 4.85 L4.65 4.1 6.05 4.55 4.2 5.3 1.9 4.85" fill="#a7a7a7" fill-rule="evenodd" stroke="none"/>
    <path d="M1.9 4.85 L2.3 3.2 3.25 4.0 1.9 4.85" fill="#a7a7a7" fill-rule="evenodd" stroke="none"/>
    <path d="M1.9 4.85 L3.25 4.0 4.65 4.1 1.9 4.85" fill="#ffffff" fill-rule="evenodd" stroke="none"/>
    <path d="M-1.75 3.55 L2.35 3.2 1.95 4.9 -1.75 3.55" fill="#333333" fill-rule="evenodd" stroke="none"/>
    <path d="M-1.8 3.55 L-0.15 1.85 2.3 3.2 -1.8 3.55" fill="#a7a7a7" fill-rule="evenodd" stroke="none"/>
    <path d="M-5.35 0.2 L-3.45 -0.55 -1.8 3.55 -5.35 0.2" fill="#666666" fill-rule="evenodd" stroke="none"/>
    <path d="M-1.65 0.55 L-3.45 -0.55 -1.4 -1.65 -1.65 0.55" fill="#666666" fill-rule="evenodd" stroke="none"/>
    <path d="M-0.15 1.85 L0.5 0.35 1.05 2.0 -0.15 1.85" fill="#333333" fill-rule="evenodd" stroke="none"/>
    <path d="M2.3 3.2 L1.0 2.0 2.2 1.6 2.3 3.2" fill="#333333" fill-rule="evenodd" stroke="none"/>
    <path d="M0.5 0.35 L2.45 0.2 2.2 1.6 0.5 0.35" fill="#a7a7a7" fill-rule="evenodd" stroke="none"/>
    <path d="M3.25 4.0 L3.6 2.55 4.65 4.1 3.25 4.0" fill="#a7a7a7" fill-rule="evenodd" stroke="none"/>
    <path d="M3.6 2.55 L2.15 1.6 4.35 1.55 5.15 3.0 3.6 2.55" fill="#a7a7a7" fill-rule="evenodd" stroke="none"/>
    <path d="M1.3 11.1 L-0.7 9.1 1.15 9.8 1.3 11.1" fill="#333333" fill-rule="evenodd" stroke="none"/>
    <path d="M1.15 9.8 L3.25 8.15 3.45 9.95 1.15 9.8" fill="#666666" fill-rule="evenodd" stroke="none"/>
    <path d="M-0.7 9.15 L1.65 7.25 4.45 7.0 3.25 8.2 -0.7 9.15" fill="#ffffff" fill-rule="evenodd" stroke="none"/>
    <path d="M4.45 6.95 L5.7 5.8 5.7 8.05 4.45 6.95" fill="#666666" fill-rule="evenodd" stroke="none"/>
    <path d="M5.7 5.8 L6.05 4.55 7.45 5.8 5.7 5.8" fill="#666666" fill-rule="evenodd" stroke="none"/>
    <path d="M6.05 4.55 L7.15 2.05 8.45 3.55 6.05 4.55" fill="#ffffff" fill-rule="evenodd" stroke="none"/>
    <path d="M4.35 1.55 L6.6 0.45 7.15 2.05 4.35 1.55" fill="#a7a7a7" fill-rule="evenodd" stroke="none"/>
    <path d="M6.6 0.45 L7.5 -1.2 9.0 1.25 6.6 0.45" fill="#a7a7a7" fill-rule="evenodd" stroke="none"/>
    <path d="M4.3 0.5 L4.7 -1.0 6.6 0.45 4.3 0.5" fill="#a7a7a7" fill-rule="evenodd" stroke="none"/>
    <path d="M4.7 -1.0 L7.05 -2.75 7.5 -1.2 4.7 -1.0" fill="#a7a7a7" fill-rule="evenodd" stroke="none"/>
    <path d="M2.9 -1.7 L4.7 -1.0 2.45 0.2 2.9 -1.7" fill="#a7a7a7" fill-rule="evenodd" stroke="none"/>
    <path d="M7.0 -2.75 L7.9 -4.8 8.8 -1.95 7.0 -2.75" fill="#a7a7a7" fill-rule="evenodd" stroke="none"/>
    <path d="M-1.65 0.55 L1.1 -1.35 0.5 0.35 -1.65 0.55" fill="#a7a7a7" fill-rule="evenodd" stroke="none"/>
    <path d="M-1.4 -1.65 L-0.3 -3.1 1.1 -1.35 -1.4 -1.65" fill="#666666" fill-rule="evenodd" stroke="none"/>
    <path d="M1.1 -1.35 L1.35 -3.95 2.8 -3.15 1.1 -1.35" fill="#a7a7a7" fill-rule="evenodd" stroke="none"/>
    <path d="M2.9 -1.7 L2.8 -3.15 5.0 -2.25 2.9 -1.7" fill="#333333" fill-rule="evenodd" stroke="none"/>
    <path d="M5.0 -2.25 L4.6 -4.5 7.05 -2.75 5.0 -2.25" fill="#000000" fill-rule="evenodd" stroke="none"/>
    <path d="M-0.3 -3.05 L0.15 -4.6 1.35 -3.95 -0.3 -3.05" fill="#666666" fill-rule="evenodd" stroke="none"/>
    <path d="M1.35 -3.9 L1.95 -5.1 4.6 -4.5 1.35 -3.9" fill="#666666" fill-rule="evenodd" stroke="none"/>
    <path d="M5.85 -5.65 L6.4 -7.15 7.85 -4.75 5.85 -5.65" fill="#666666" fill-rule="evenodd" stroke="none"/>
    <path d="M1.95 -5.1 L4.2 -7.75 4.65 -6.5 1.95 -5.1" fill="#ffffff" fill-rule="evenodd" stroke="none"/>
    <path d="M4.65 -6.55 L5.0 -8.7 6.45 -7.15 4.65 -6.55" fill="#666666" fill-rule="evenodd" stroke="none"/>
    <path d="M0.15 -4.6 L0.2 -6.15 2.0 -5.1 0.15 -4.6" fill="#a7a7a7" fill-rule="evenodd" stroke="none"/>
    <path d="M1.5 -7.8 L3.3 -7.15 2.0 -5.1 1.5 -7.8" fill="#333333" fill-rule="evenodd" stroke="none"/>
    <path d="M0.2 -6.15 L-0.3 -7.8 1.55 -7.8 0.2 -6.15" fill="#a7a7a7" fill-rule="evenodd" stroke="none"/>
    <path d="M2.5 -8.45 L3.0 -8.95 5.0 -8.65 4.2 -7.75 2.5 -8.45" fill="#333333" fill-rule="evenodd" stroke="none"/>
    <path d="M-0.6 -10.1 L1.55 -9.65 1.55 -7.8 -0.6 -10.1" fill="#ffffff" fill-rule="evenodd" stroke="none"/>
    <path d="M1.55 -9.6 L3.0 -10.15 3.0 -8.95 1.55 -9.6" fill="#a7a7a7" fill-rule="evenodd" stroke="none"/>
    <path d="M-2.1 -11.75 L0.5 -11.2 -0.6 -10.1 -2.1 -11.75" fill="#a7a7a7" fill-rule="evenodd" stroke="none"/>
    <path d="M-1.1 -9.05 L-0.55 -10.1 -0.3 -7.8 -1.1 -9.05" fill="#a7a7a7" fill-rule="evenodd" stroke="none"/>
    <path d="M-2.55 -10.1 L-2.1 -11.75 -1.1 -9.05 -2.55 -10.1" fill="#000000" fill-rule="evenodd" stroke="none"/>
    <path d="M-3.55 -11.0 L-4.9 -11.75 -2.1 -11.75 -3.55 -11.0" fill="#666666" fill-rule="evenodd" stroke="none"/>
    <path d="M-7.9 -11.15 L-4.9 -11.75 -4.7 -10.7 -7.9 -11.15" fill="#a7a7a7" fill-rule="evenodd" stroke="none"/>
    <path d="M-1.45 11.75 L-0.7 9.05 1.3 11.1 -1.45 11.75" fill="#666666" fill-rule="evenodd" stroke="none"/>
    <path d="M1.25 11.1 L1.1 9.8 3.4 9.95 1.25 11.1" fill="#a7a7a7" fill-rule="evenodd" stroke="none"/>
    <path d="M1.15 9.8 L-0.7 9.1 3.25 8.15 1.15 9.8" fill="#a7a7a7" fill-rule="evenodd" stroke="none"/>
    <path d="M-0.7 9.1 L-1.7 7.0 1.65 7.25 -0.7 9.1" fill="#666666" fill-rule="evenodd" stroke="none"/>
    <path d="M3.45 9.95 L3.25 8.15 5.7 8.0 3.45 9.95" fill="#333333" fill-rule="evenodd" stroke="none"/>
    <path d="M1.65 7.25 L2.4 6.35 4.45 6.95 1.65 7.25" fill="#a7a7a7" fill-rule="evenodd" stroke="none"/>
    <path d="M5.7 8.05 L5.7 5.8 7.45 5.8 5.7 8.05" fill="#a7a7a7" fill-rule="evenodd" stroke="none"/>
    <path d="M4.4 7.0 L4.2 5.3 5.7 5.8 4.4 7.0" fill="#a7a7a7" fill-rule="evenodd" stroke="none"/>
    <path d="M7.45 5.8 L6.05 4.55 8.45 3.55 7.45 5.8" fill="#333333" fill-rule="evenodd" stroke="none"/>
    <path d="M4.6 4.1 L3.6 2.55 5.15 3.0 4.6 4.1" fill="#333333" fill-rule="evenodd" stroke="none"/>
    <path d="M6.05 4.55 L5.15 3.0 7.15 2.05 6.05 4.55" fill="#a7a7a7" fill-rule="evenodd" stroke="none"/>
    <path d="M7.15 2.05 L9.0 1.25 8.45 3.55 7.15 2.05" fill="#a7a7a7" fill-rule="evenodd" stroke="none"/>
    <path d="M4.7 -1.0 L7.5 -1.2 6.6 0.45 4.7 -1.0" fill="#333333" fill-rule="evenodd" stroke="none"/>
    <path d="M2.3 3.2 L3.6 2.55 3.25 4.05 2.3 3.2" fill="#666666" fill-rule="evenodd" stroke="none"/>
    <path d="M1.0 2.0 L0.5 0.35 2.2 1.6 1.0 2.0" fill="#666666" fill-rule="evenodd" stroke="none"/>
    <path d="M-0.15 1.85 L1.05 2.0 2.3 3.2 -0.15 1.85" fill="#666666" fill-rule="evenodd" stroke="none"/>
    <path d="M2.15 1.6 L2.45 0.2 4.35 0.5 2.15 1.6" fill="#333333" fill-rule="evenodd" stroke="none"/>
    <path d="M0.5 0.35 L1.1 -1.35 2.9 -1.7 2.45 0.2 0.5 0.35" fill="#333333" fill-rule="evenodd" stroke="none"/>
    <path d="M2.9 -1.7 L5.0 -2.25 4.7 -1.0 2.9 -1.7" fill="#666666" fill-rule="evenodd" stroke="none"/>
    <path d="M-1.65 0.55 L-1.4 -1.65 1.1 -1.35 -1.65 0.55" fill="#333333" fill-rule="evenodd" stroke="none"/>
    <path d="M-0.35 -3.05 L1.35 -3.95 1.1 -1.35 -0.35 -3.05" fill="#ffffff" fill-rule="evenodd" stroke="none"/>
    <path d="M1.35 -3.95 L4.6 -4.5 2.8 -3.15 1.35 -3.95" fill="#333333" fill-rule="evenodd" stroke="none"/>
    <path d="M9.0 1.3 L7.5 -1.2 8.8 -1.95 9.0 1.3" fill="#333333" fill-rule="evenodd" stroke="none"/>
    <path d="M5.85 -5.65 L7.9 -4.8 7.05 -2.75 5.85 -5.65" fill="#333333" fill-rule="evenodd" stroke="none"/>
    <path d="M2.0 -5.1 L4.65 -6.55 5.85 -5.65 4.6 -4.5 2.0 -5.1" fill="#a7a7a7" fill-rule="evenodd" stroke="none"/>
    <path d="M4.65 -6.5 L4.2 -7.75 5.0 -8.65 4.65 -6.5" fill="#a7a7a7" fill-rule="evenodd" stroke="none"/>
    <path d="M3.3 -7.15 L2.5 -8.45 4.2 -7.75 3.3 -7.15" fill="#666666" fill-rule="evenodd" stroke="none"/>
    <path d="M0.2 -6.15 L1.55 -7.8 2.0 -5.1 0.2 -6.15" fill="#666666" fill-rule="evenodd" stroke="none"/>
    <path d="M0.15 -4.6 L2.0 -5.1 1.35 -3.95 0.15 -4.6" fill="#ffffff" fill-rule="evenodd" stroke="none"/>
    <path d="M1.5 -7.8 L1.55 -9.65 2.5 -8.45 1.5 -7.8" fill="#333333" fill-rule="evenodd" stroke="none"/>
    <path d="M-0.3 -7.8 L-0.55 -10.1 1.55 -7.8 -0.3 -7.8" fill="#666666" fill-rule="evenodd" stroke="none"/>
    <path d="M3.0 -8.95 L3.0 -10.15 5.0 -8.65 3.0 -8.95" fill="#000000" fill-rule="evenodd" stroke="none"/>
    <path d="M1.55 -9.6 L0.5 -11.2 3.0 -10.15 1.55 -9.6" fill="#333333" fill-rule="evenodd" stroke="none"/>
    <path d="M-2.1 -11.75 L-0.6 -10.1 -1.1 -9.05 -2.1 -11.75" fill="#333333" fill-rule="evenodd" stroke="none"/>
    <path d="M-4.75 -10.7 L-3.55 -11.0 -2.1 -11.75 -2.55 -10.1 -4.75 -10.7" fill="#a7a7a7" fill-rule="evenodd" stroke="none"/>
    <path d="M3.25 8.15 L4.45 6.95 5.7 8.05 3.25 8.15" fill="#a7a7a7" fill-rule="evenodd" stroke="none"/>
    <path d="M2.4 6.35 L4.2 5.25 4.45 6.95 2.4 6.35" fill="#666666" fill-rule="evenodd" stroke="none"/>
    <path d="M4.2 5.3 L6.05 4.5 5.7 5.8 4.2 5.3" fill="#333333" fill-rule="evenodd" stroke="none"/>
    <path d="M4.6 4.1 L5.15 2.95 6.05 4.55 4.6 4.1" fill="#666666" fill-rule="evenodd" stroke="none"/>
    <path d="M2.3 3.2 L2.15 1.55 3.6 2.55 2.3 3.2" fill="#000000" fill-rule="evenodd" stroke="none"/>
    <path d="M-1.8 3.55 L-1.65 0.55 0.5 0.35 -0.15 1.85 -1.8 3.55" fill="#ffffff" fill-rule="evenodd" stroke="none"/>
    <path d="M5.15 3.0 L4.35 1.5 7.2 2.0 5.15 3.0" fill="#666666" fill-rule="evenodd" stroke="none"/>
    <path d="M2.2 1.6 L4.3 0.5 4.35 1.55 2.2 1.6" fill="#666666" fill-rule="evenodd" stroke="none"/>
    <path d="M4.35 1.55 L4.3 0.5 6.6 0.45 4.35 1.55" fill="#000000" fill-rule="evenodd" stroke="none"/>
    <path d="M7.15 2.05 L6.6 0.45 9.0 1.25 7.15 2.05" fill="#666666" fill-rule="evenodd" stroke="none"/>
    <path d="M4.3 0.5 L2.45 0.2 4.75 -1.05 4.3 0.5" fill="#ffffff" fill-rule="evenodd" stroke="none"/>
    <path d="M7.5 -1.2 L7.0 -2.75 8.8 -1.95 7.5 -1.2" fill="#666666" fill-rule="evenodd" stroke="none"/>
    <path d="M4.7 -1.0 L5.0 -2.25 7.05 -2.75 4.7 -1.0" fill="#333333" fill-rule="evenodd" stroke="none"/>
    <path d="M1.1 -1.35 L2.8 -3.15 2.9 -1.7 1.1 -1.35" fill="#666666" fill-rule="evenodd" stroke="none"/>
    <path d="M2.8 -3.15 L4.6 -4.5 5.0 -2.25 2.8 -3.15" fill="#666666" fill-rule="evenodd" stroke="none"/>
    <path d="M4.6 -4.5 L5.85 -5.65 7.05 -2.75 4.6 -4.5" fill="#666666" fill-rule="evenodd" stroke="none"/>
    <path d="M4.65 -6.55 L6.45 -7.2 5.85 -5.65 4.65 -6.55" fill="#333333" fill-rule="evenodd" stroke="none"/>
    <path d="M1.55 -7.8 L2.5 -8.45 3.3 -7.15 1.55 -7.8" fill="#a7a7a7" fill-rule="evenodd" stroke="none"/>
    <path d="M2.5 -8.45 L1.55 -9.65 3.0 -8.95 2.5 -8.45" fill="#666666" fill-rule="evenodd" stroke="none"/>
    <path d="M-4.7 -10.7 L-4.9 -11.75 -3.55 -11.0 -4.7 -10.7" fill="#333333" fill-rule="evenodd" stroke="none"/>
    <path d="M-3.45 -0.55 L-1.65 0.55 -1.8 3.55 -3.45 -0.55" fill="#a7a7a7" fill-rule="evenodd" stroke="none"/>
    <path d="M2.0 -5.1 L3.3 -7.15 4.2 -7.75 2.0 -5.1" fill="#a7a7a7" fill-rule="evenodd" stroke="none"/>
    <path d="M-0.6 -10.1 L0.5 -11.2 1.55 -9.6 -0.6 -10.1" fill="#666666" fill-rule="evenodd" stroke="none"/>
  </g>
</svg>
