<?xml version="1.0" encoding="UTF-8" standalone="no"?>
<svg xmlns:xlink="http://www.w3.org/1999/xlink" height="20.7px" width="23.0px" xmlns="http://www.w3.org/2000/svg">
  <g transform="matrix(1.0, 0.0, 0.0, 1.0, 11.5, 10.3)">
    <path d="M0.0 4.8 L0.0 -4.5 1.25 -4.45 3.2 -3.55 5.55 -1.3 7.5 3.1 7.45 4.7 0.0 4.8" fill="#000000" fill-rule="evenodd" stroke="none"/>
    <path d="M0.0 -4.5 L0.0 -6.7 1.35 -6.65 1.25 -4.45 0.0 -4.5" fill="#ffffff" fill-rule="evenodd" stroke="none"/>
    <path d="M1.25 -4.45 L1.35 -6.65 4.4 -5.55 3.2 -3.55 1.25 -4.45" fill="#666666" fill-rule="evenodd" stroke="none"/>
    <path d="M3.2 -3.55 L4.35 -5.5 7.25 -2.55 5.55 -1.3 3.2 -3.55" fill="#a7a7a7" fill-rule="evenodd" stroke="none"/>
    <path d="M7.5 3.1 L5.55 -1.35 7.2 -2.55 9.6 2.6 7.5 3.1" fill="#666666" fill-rule="evenodd" stroke="none"/>
    <path d="M7.45 4.7 L7.45 3.1 9.6 2.6 9.5 5.95 7.45 4.7" fill="#cccccc" fill-rule="evenodd" stroke="none"/>
    <path d="M8.95 6.8 L5.6 4.75 7.45 4.65 9.5 5.95 8.95 6.8" fill="#ffffff" fill-rule="evenodd" stroke="none"/>
    <path d="M0.0 6.9 L0.0 4.8 5.65 4.7 8.95 6.8 0.0 6.9" fill="#a7a7a7" fill-rule="evenodd" stroke="none"/>
    <path d="M0.0 -6.7 L0.0 -8.55 1.45 -8.55 1.35 -6.65 0.0 -6.7" fill="#666666" fill-rule="evenodd" stroke="none"/>
    <path d="M1.35 -6.65 L1.45 -8.55 5.35 -7.15 4.35 -5.5 1.35 -6.65" fill="#cccccc" fill-rule="evenodd" stroke="none"/>
    <path d="M7.25 -2.55 L4.35 -5.5 5.35 -7.15 9.0 -3.7 7.25 -2.55" fill="#ffffff" fill-rule="evenodd" stroke="none"/>
    <path d="M7.2 -2.55 L9.0 -3.7 11.35 2.05 9.6 2.6 7.2 -2.55" fill="#cccccc" fill-rule="evenodd" stroke="none"/>
    <path d="M9.5 5.95 L9.6 2.55 11.35 2.05 11.5 7.25 9.5 5.95" fill="#000000" fill-rule="evenodd" stroke="none"/>
    <path d="M10.55 8.2 L8.95 6.8 9.5 5.95 11.5 7.25 10.55 8.2" fill="#666666" fill-rule="evenodd" stroke="none"/>
    <path d="M0.0 8.6 L0.0 6.9 8.95 6.8 10.55 8.2 0.0 8.6" fill="#cccccc" fill-rule="evenodd" stroke="none"/>
    <path d="M-7.45 4.7 L-7.5 3.1 -5.55 -1.3 -3.2 -3.55 -1.25 -4.45 0.0 -4.5 0.0 4.8 -7.45 4.7" fill="#000000" fill-rule="evenodd" stroke="none"/>
    <path d="M-1.25 -4.45 L-1.35 -6.65 0.0 -6.7 0.0 -4.5 -1.25 -4.45" fill="#a7a7a7" fill-rule="evenodd" stroke="none"/>
    <path d="M-3.2 -3.55 L-4.4 -5.55 -1.35 -6.65 -1.25 -4.45 -3.2 -3.55" fill="#cccccc" fill-rule="evenodd" stroke="none"/>
    <path d="M-5.55 -1.3 L-7.25 -2.55 -4.35 -5.5 -3.2 -3.55 -5.55 -1.3" fill="#ffffff" fill-rule="evenodd" stroke="none"/>
    <path d="M-9.6 2.6 L-7.2 -2.55 -5.55 -1.35 -7.5 3.1 -9.6 2.6" fill="#666666" fill-rule="evenodd" stroke="none"/>
    <path d="M-9.5 5.95 L-9.6 2.6 -7.45 3.1 -7.45 4.7 -9.5 5.95" fill="#ffffff" fill-rule="evenodd" stroke="none"/>
    <path d="M-9.5 5.95 L-7.45 4.65 -5.6 4.75 -8.95 6.8 -9.5 5.95" fill="#a7a7a7" fill-rule="evenodd" stroke="none"/>
    <path d="M-8.95 6.8 L-5.65 4.7 0.0 4.8 0.0 6.9 -8.95 6.8" fill="#666666" fill-rule="evenodd" stroke="none"/>
    <path d="M-1.35 -6.65 L-1.45 -8.55 0.0 -8.55 0.0 -6.7 -1.35 -6.65" fill="#cccccc" fill-rule="evenodd" stroke="none"/>
    <path d="M-4.35 -5.5 L-5.35 -7.15 -1.45 -8.55 -1.35 -6.65 -4.35 -5.5" fill="#666666" fill-rule="evenodd" stroke="none"/>
    <path d="M-9.0 -3.7 L-5.35 -7.15 -4.35 -5.5 -7.25 -2.55 -9.0 -3.7" fill="#a7a7a7" fill-rule="evenodd" stroke="none"/>
    <path d="M-9.6 2.6 L-11.35 2.05 -9.0 -3.7 -7.2 -2.55 -9.6 2.6" fill="#cccccc" fill-rule="evenodd" stroke="none"/>
    <path d="M-11.5 7.25 L-11.35 2.05 -9.6 2.55 -9.5 5.95 -11.5 7.25" fill="#a7a7a7" fill-rule="evenodd" stroke="none"/>
    <path d="M-11.5 7.25 L-9.5 5.95 -8.95 6.8 -10.55 8.2 -11.5 7.25" fill="#cccccc" fill-rule="evenodd" stroke="none"/>
    <path d="M-10.55 8.2 L-8.95 6.8 0.0 6.9 0.0 8.6 -10.55 8.2" fill="#000000" fill-rule="evenodd" stroke="none"/>
  </g>
</svg>
