<?xml version="1.0" encoding="UTF-8" standalone="no"?>
<svg xmlns:xlink="http://www.w3.org/1999/xlink" height="23.5px" width="18.65px" xmlns="http://www.w3.org/2000/svg">
  <g transform="matrix(1.0, 0.0, 0.0, 1.0, 9.35, 11.75)">
    <path d="M-3.45 6.4 L-4.5 3.05 -4.0 -0.6 -1.55 -4.95 -0.05 -6.85 -0.05 8.15 -0.9 8.15 -3.45 6.4" fill="#333333" fill-rule="evenodd" stroke="none"/>
    <path d="M-5.65 7.3 L-3.5 6.4 -0.9 8.15 -1.9 9.95 -5.65 7.3" fill="#000000" fill-rule="evenodd" stroke="none"/>
    <path d="M-5.65 7.3 L-6.8 3.15 -4.5 3.05 -3.5 6.4 -5.65 7.3" fill="#666666" fill-rule="evenodd" stroke="none"/>
    <path d="M-6.8 3.15 L-6.05 -1.05 -4.0 -0.65 -4.5 3.1 -6.8 3.15" fill="#cccccc" fill-rule="evenodd" stroke="none"/>
    <path d="M-6.05 -1.05 L-3.35 -5.8 -1.55 -5.0 -4.0 -0.65 -6.05 -1.05" fill="#666666" fill-rule="evenodd" stroke="none"/>
    <path d="M-3.35 -5.8 L0.0 -9.2 -0.05 -6.85 -1.55 -5.0 -3.35 -5.8" fill="#cccccc" fill-rule="evenodd" stroke="none"/>
    <path d="M-7.85 8.2 L-5.65 7.3 -1.9 9.95 -2.7 11.5 Q-2.7 11.5 -2.8 11.45 -2.9 11.45 -3.0 11.4 -3.15 11.35 -3.35 11.3 -3.55 11.2 -3.75 11.15 -3.95 11.05 -4.2 10.95 -4.4 10.85 -4.65 10.75 -4.85 10.65 -5.05 10.55 -5.25 10.45 -5.45 10.35 -5.95 10.0 -6.95 9.05 -7.4 8.6 -7.85 8.2 L-7.85 8.2" fill="#666666" fill-rule="evenodd" stroke="none"/>
    <path d="M-7.85 8.2 Q-7.85 8.2 -7.9 8.15 -7.9 8.1 -8.0 7.95 -8.1 7.8 -8.15 7.7 -8.25 7.5 -8.35 7.35 -8.45 7.15 -8.55 7.0 -8.65 6.8 -8.75 6.6 -8.85 6.4 -8.95 6.25 -9.0 6.05 -9.05 5.9 -9.1 5.75 -9.15 5.55 -9.15 5.35 -9.2 5.15 -9.25 4.9 -9.25 4.7 -9.3 4.45 -9.3 4.25 -9.3 4.05 -9.3 3.8 -9.35 3.65 -9.35 3.45 -9.35 3.35 -9.35 3.25 -9.35 3.2 -9.35 3.15 L-6.8 3.15 -5.65 7.3 -7.85 8.2" fill="#333333" fill-rule="evenodd" stroke="none"/>
    <path d="M-9.35 3.15 Q-9.35 2.9 -9.35 2.35 -9.3 1.45 -9.2 0.95 -8.9 -0.35 -8.6 -1.6 L-6.05 -1.05 -6.75 3.15 -9.35 3.15" fill="#000000" fill-rule="evenodd" stroke="none"/>
    <path d="M-8.6 -1.6 Q-8.6 -1.6 -8.05 -2.85 -7.4 -4.25 -7.1 -4.85 -6.45 -5.95 -5.75 -7.0 L-3.35 -5.8 -6.0 -1.05 -8.6 -1.6" fill="#cccccc" fill-rule="evenodd" stroke="none"/>
    <path d="M-5.75 -7.0 Q-5.75 -7.0 -4.75 -8.1 -3.65 -9.3 -3.05 -9.8 -2.4 -10.3 -1.85 -10.7 -1.35 -11.05 -1.0 -11.3 -0.65 -11.45 -0.4 -11.6 -0.25 -11.7 -0.1 -11.7 -0.05 -11.75 0.0 -11.75 L-0.05 -9.2 -3.35 -5.8 -5.75 -7.0" fill="#333333" fill-rule="evenodd" stroke="none"/>
    <path d="M0.85 8.15 L-0.05 8.15 -0.05 -6.85 1.5 -4.95 3.95 -0.6 4.45 3.1 3.4 6.4 0.85 8.15" fill="#000000" fill-rule="evenodd" stroke="none"/>
    <path d="M1.85 9.95 L0.85 8.15 3.45 6.4 5.6 7.3 1.85 9.95" fill="#ffffff" fill-rule="evenodd" stroke="none"/>
    <path d="M3.45 6.4 L4.45 3.1 6.75 3.15 5.6 7.3 3.45 6.4" fill="#666666" fill-rule="evenodd" stroke="none"/>
    <path d="M4.45 3.1 L3.95 -0.6 6.0 -1.05 6.75 3.15 4.45 3.1" fill="#cccccc" fill-rule="evenodd" stroke="none"/>
    <path d="M3.95 -0.65 L1.5 -4.95 3.3 -5.8 6.0 -1.05 3.95 -0.65" fill="#666666" fill-rule="evenodd" stroke="none"/>
    <path d="M1.5 -4.95 L-0.05 -6.85 -0.05 -9.2 3.3 -5.8 1.5 -4.95" fill="#ffffff" fill-rule="evenodd" stroke="none"/>
    <path d="M5.4 10.35 Q5.25 10.45 5.05 10.55 4.85 10.65 4.6 10.75 4.4 10.85 4.15 10.95 3.9 11.05 3.7 11.15 3.5 11.2 3.3 11.3 3.1 11.35 2.95 11.4 2.8 11.45 2.7 11.5 2.7 11.5 2.65 11.5 L1.85 9.95 5.6 7.3 7.8 8.2 Q7.8 8.2 6.9 9.05 5.9 10.0 5.4 10.35 L5.4 10.35" fill="#333333" fill-rule="evenodd" stroke="none"/>
    <path d="M5.6 7.3 L6.75 3.15 9.3 3.15 Q9.4 2.25 9.25 4.25 9.15 5.4 9.0 5.9 8.95 6.05 8.9 6.25 8.8 6.4 8.7 6.6 8.6 6.8 8.5 7.0 8.4 7.2 8.3 7.35 8.2 7.55 8.1 7.7 8.05 7.8 7.95 7.95 7.9 8.05 7.85 8.1 7.8 8.15 7.8 8.2 L5.6 7.3" fill="#000000" fill-rule="evenodd" stroke="none"/>
    <path d="M6.7 3.15 L6.0 -1.05 8.55 -1.6 Q8.55 -1.6 8.8 -0.65 9.1 0.45 9.15 0.95 9.25 2.05 9.3 3.15 L6.7 3.15" fill="#666666" fill-rule="evenodd" stroke="none"/>
    <path d="M5.95 -1.05 L3.3 -5.8 5.7 -7.0 Q5.7 -7.0 6.2 -6.25 6.8 -5.35 7.05 -4.85 7.8 -3.25 8.55 -1.6 L5.95 -1.05" fill="#333333" fill-rule="evenodd" stroke="none"/>
    <path d="M3.3 -5.8 L-0.05 -9.2 -0.05 -11.75 Q-0.1 -11.75 0.0 -11.75 0.05 -11.7 0.1 -11.7 0.2 -11.65 0.3 -11.6 0.45 -11.55 0.6 -11.45 0.8 -11.35 1.0 -11.2 1.25 -11.05 1.55 -10.85 1.85 -10.65 2.2 -10.4 2.55 -10.1 3.0 -9.75 3.6 -9.3 4.7 -8.1 5.2 -7.55 5.7 -7.0 L3.3 -5.8" fill="#000000" fill-rule="evenodd" stroke="none"/>
    <path d="M-1.9 9.95 L-0.95 8.15 0.85 8.15 1.85 9.95 -1.9 9.95" fill="#333333" fill-rule="evenodd" stroke="none"/>
    <path d="M-2.7 11.5 L-1.9 9.95 1.85 9.95 2.65 11.5 Q2.6 11.5 1.6 11.65 0.45 11.75 -0.1 11.75 -1.4 11.6 -2.7 11.5 L-2.7 11.5" fill="#cccccc" fill-rule="evenodd" stroke="none"/>
  </g>
</svg>
