<?xml version="1.0" encoding="UTF-8" standalone="no"?>
<svg xmlns:xlink="http://www.w3.org/1999/xlink" height="23.5px" width="18.65px" xmlns="http://www.w3.org/2000/svg">
  <g transform="matrix(1.0, 0.0, 0.0, 1.0, 9.35, 11.75)">
    <path d="M7.1 -2.65 Q7.1 -2.65 6.9 -1.85 6.7 -1.05 6.75 -1.0 6.75 -1.0 5.45 -1.45 4.15 -1.95 4.15 -2.0 4.1 -3.45 4.0 -4.85 L7.0 -4.25 Q7.05 -4.25 7.45 -3.55 7.6 -3.2 7.75 -2.85 L7.1 -2.65" fill="#ffffff" fill-rule="evenodd" stroke="none"/>
    <path d="M6.95 2.45 Q6.95 2.45 6.25 1.65 5.6 0.85 5.6 0.85 5.9 -0.2 6.2 -1.2 L8.7 -0.6 Q8.7 -0.6 8.8 -0.25 8.9 0.15 8.95 0.25 9.0 0.65 9.05 1.05 9.05 1.05 8.0 1.75 6.9 2.4 6.95 2.45 L6.95 2.45" fill="#ffffff" fill-rule="evenodd" stroke="none"/>
    <path d="M5.55 6.05 Q5.5 6.05 4.7 6.0 3.9 5.9 3.9 5.85 4.55 4.75 5.2 3.65 L5.9 5.4 Q5.9 5.35 5.7 5.7 5.5 6.05 5.55 6.05 L5.55 6.05" fill="#ffffff" fill-rule="evenodd" stroke="none"/>
    <path d="M1.5 8.05 Q1.5 8.05 1.15 7.75 0.8 7.4 0.8 7.35 2.2 6.8 3.6 6.3 3.6 6.3 3.55 6.65 3.45 7.15 3.4 7.4 3.4 7.5 3.35 7.7 3.35 7.8 3.35 7.85 3.35 7.85 3.0 8.15 2.8 8.3 2.6 8.45 2.6 8.45 2.05 8.25 1.5 8.05 1.5 8.05 L1.5 8.05" fill="#ffffff" fill-rule="evenodd" stroke="none"/>
    <path d="M-2.65 7.65 Q-2.65 7.65 -2.65 7.5 -2.6 7.25 -2.6 7.25 -1.1 7.4 0.45 7.55 0.45 7.55 -0.65 8.45 -1.7 9.35 -1.65 9.4 -1.65 9.4 -1.8 9.35 -1.85 9.35 -1.95 9.35 -1.95 9.35 -2.35 8.5 -2.7 7.65 -2.65 7.65 L-2.65 7.65" fill="#ffffff" fill-rule="evenodd" stroke="none"/>
    <path d="M-6.25 0.75 Q-6.25 0.75 -6.3 0.45 -6.4 0.2 -6.4 0.15 -5.4 -0.35 -4.4 -0.85 -4.4 -0.9 -4.85 0.6 -5.25 2.1 -5.2 2.1 -5.2 2.15 -5.35 2.1 -5.4 2.1 -5.5 2.1 -5.5 2.1 -5.9 1.4 -6.25 0.75 -6.25 0.75 L-6.25 0.75" fill="#ffffff" fill-rule="evenodd" stroke="none"/>
    <path d="M-6.75 4.3 L-5.45 2.1 -4.8 5.05 Q-4.8 5.05 -4.35 5.55 -3.9 6.05 -3.9 6.05 -3.9 6.1 -3.2 6.7 -2.55 7.3 -2.6 7.3 -2.6 7.3 -4.0 7.5 -5.35 7.65 -5.35 7.7 -5.25 6.5 -5.15 5.25 L-6.75 4.3" fill="#cccccc" fill-rule="evenodd" stroke="none"/>
    <path d="M5.2 3.75 L5.6 0.85 6.95 2.4 Q6.95 2.4 6.65 2.65 6.4 2.85 6.4 2.9 6.4 2.9 6.15 4.15 6.0 4.8 5.9 5.4 L5.2 3.75" fill="#cccccc" fill-rule="evenodd" stroke="none"/>
    <path d="M-4.4 -0.85 L0.45 -6.1 1.45 -2.1 Q1.4 -2.05 1.9 -2.9 2.3 -3.7 2.3 -3.7 2.3 -3.7 3.5 -2.25 4.75 -0.85 4.7 -0.85 4.7 -0.85 5.05 0.15 5.4 1.15 5.4 1.2 5.4 1.2 4.55 1.9 3.75 2.6 3.7 2.6 3.7 2.6 2.75 2.65 1.8 2.7 1.85 2.7 1.9 2.7 1.15 0.45 0.45 -1.8 0.4 -1.75 0.4 -1.75 0.55 -0.3 0.7 1.15 0.7 1.15 0.7 1.15 -0.2 1.85 -1.05 2.55 -1.05 2.55 -1.1 2.55 -1.35 -0.2 -1.65 -2.9 -1.6 -2.85 -1.6 -2.85 -2.05 -2.15 -2.5 -1.45 -2.55 -1.45 -3.9 0.35 -5.2 2.15 -5.25 2.1 -4.9 0.75 -4.65 -0.05 -4.4 -0.85 L-4.4 -0.85" fill="#000000" fill-rule="evenodd" stroke="none"/>
    <path d="M-9.3 2.6 Q-9.45 2.75 -9.15 0.7 -9.1 0.5 -9.1 0.3 -9.05 0.15 -9.0 -0.05 -8.95 -0.25 -8.9 -0.4 -8.85 -0.6 -8.8 -0.75 -8.8 -0.85 -8.75 -1.0 -8.7 -1.1 -8.7 -1.2 -8.65 -1.25 -8.65 -1.3 -8.6 -1.35 -8.6 -1.35 -8.6 -1.35 -8.6 -1.4 -8.6 -1.45 -8.55 -1.55 -8.5 -1.65 -8.45 -1.75 -8.4 -1.9 -8.35 -2.05 -8.25 -2.2 -8.2 -2.4 -8.1 -2.6 -8.0 -2.75 -7.9 -2.95 -7.8 -3.15 -7.65 -3.35 -7.55 -3.55 -6.95 -4.35 -6.4 -5.15 L-3.3 -2.0 Q-3.3 -2.0 -3.85 -1.4 -4.4 -0.8 -4.4 -0.75 -5.4 -0.3 -6.4 0.15 L-9.3 2.6" fill="#333333" fill-rule="evenodd" stroke="none"/>
    <path d="M-3.3 -2.0 L-6.4 -5.1 Q-6.4 -5.15 -5.4 -6.5 -4.25 -8.05 -3.6 -8.75 -2.95 -9.45 -1.4 -10.65 -0.7 -11.2 0.0 -11.75 L0.45 -6.05 -3.3 -2.0" fill="#666666" fill-rule="evenodd" stroke="none"/>
    <path d="M0.45 -6.0 L0.0 -11.75 Q0.0 -11.75 1.8 -10.3 3.75 -8.7 4.4 -8.0 5.05 -7.3 6.1 -5.7 6.55 -4.95 7.05 -4.25 7.05 -4.25 5.5 -4.55 4.0 -4.85 4.0 -4.85 4.0 -4.85 3.15 -4.25 2.75 -3.95 2.3 -3.7 L0.45 -6.0" fill="#cccccc" fill-rule="evenodd" stroke="none"/>
    <path d="M6.4 2.85 Q6.4 2.85 6.4 2.85 6.45 2.8 6.5 2.8 6.55 2.7 6.55 2.7 6.65 2.65 6.7 2.6 6.75 2.55 6.85 2.5 6.95 2.4 7.0 2.35 7.1 2.25 7.2 2.2 7.3 2.1 7.4 2.05 9.05 0.9 9.05 1.05 9.05 1.05 9.05 1.15 9.1 1.25 9.15 1.4 9.15 1.55 9.2 1.8 9.2 2.0 9.25 2.25 9.25 2.55 9.3 2.85 9.3 3.2 9.3 3.5 9.3 3.85 9.25 4.15 9.25 4.55 9.15 4.85 9.1 5.15 9.0 5.45 8.9 5.7 8.8 6.0 8.7 6.25 8.55 6.5 8.45 6.7 8.3 6.95 8.2 7.15 8.1 7.3 8.0 7.5 7.85 7.6 7.8 7.7 7.75 7.8 7.7 7.85 7.7 7.85 7.7 7.85 7.35 7.65 7.0 7.5 7.0 7.55 7.0 7.55 6.4 7.35 5.8 7.1 5.8 7.1 5.75 7.1 5.65 6.6 5.5 6.05 5.5 6.05 5.5 6.05 5.55 5.9 5.65 5.8 5.7 5.7 5.75 5.6 5.85 5.5 5.9 5.45 5.9 5.45 5.9 5.45 6.15 4.15 6.25 3.5 6.4 2.85 L6.4 2.85" fill="#000000" fill-rule="evenodd" stroke="none"/>
    <path d="M3.6 6.3 Q3.6 6.3 3.75 6.1 3.9 5.85 3.9 5.85 4.7 5.95 5.5 6.05 L5.8 7.1 Q5.8 7.1 6.25 7.25 6.75 7.35 7.05 7.5 7.1 7.5 7.2 7.55 7.25 7.6 7.3 7.6 7.35 7.65 7.4 7.65 7.45 7.7 7.5 7.7 7.5 7.75 7.55 7.75 7.6 7.8 7.6 7.8 7.65 7.85 7.65 7.85 7.65 7.85 7.65 7.9 7.65 7.9 7.6 7.95 7.55 8.05 7.45 8.15 7.35 8.25 7.2 8.35 7.05 8.5 6.9 8.7 6.7 8.85 6.55 9.0 6.35 9.2 6.15 9.35 5.9 9.55 5.7 9.7 5.5 9.9 5.25 10.05 5.0 10.2 4.75 10.35 4.55 10.5 4.3 10.65 4.1 10.75 3.85 10.9 3.65 11.0 3.45 11.1 3.3 11.15 3.15 11.25 3.0 11.3 2.9 11.35 2.8 11.4 2.7 11.4 2.7 11.45 2.65 11.45 2.65 11.45 3.15 8.85 3.6 6.25 3.6 6.3 L3.6 6.3" fill="#333333" fill-rule="evenodd" stroke="none"/>
    <path d="M5.85 -1.1 L6.5 -1.35 Q6.5 -1.35 6.95 -0.2 7.45 0.95 7.45 0.95 7.45 0.95 6.45 0.7 6.0 0.6 5.5 0.45 L5.85 -1.1" fill="#cccccc" fill-rule="evenodd" stroke="none"/>
    <path d="M1.45 -2.1 Q1.45 -2.1 0.95 -4.05 0.45 -6.0 0.45 -6.0 1.4 -4.85 2.3 -3.7 L1.45 -2.1" fill="#333333" fill-rule="evenodd" stroke="none"/>
    <path d="M-2.5 -1.5 L-1.6 -2.85 -1.05 2.55 Q-1.05 2.55 -1.9 1.55 -2.65 0.65 -2.7 0.55 -2.7 0.55 -3.45 0.65 -3.8 0.65 -4.15 0.7 -4.15 0.7 -3.7 0.1 -3.2 -0.6 -3.05 -0.85 -2.75 -1.15 -2.5 -1.5 L-2.5 -1.5" fill="#cccccc" fill-rule="evenodd" stroke="none"/>
    <path d="M0.45 7.55 Q0.45 7.55 -1.05 7.4 -2.6 7.3 -2.6 7.3 -2.6 7.3 -2.95 6.95 -3.45 6.55 -3.75 6.25 -4.1 5.9 -4.5 5.45 -4.8 5.1 -4.8 5.1 -4.8 5.1 -5.15 3.6 -5.5 2.1 -5.5 2.1 -5.5 2.1 -5.35 2.1 -5.2 2.1 -5.2 2.15 -4.7 1.45 -4.15 0.7 -4.15 0.7 -3.4 2.1 -2.6 3.45 -2.6 3.5 -0.7 4.45 1.25 5.4 1.25 5.4 1.2 5.4 1.15 5.45 1.05 5.45 0.95 5.5 0.85 5.55 0.75 5.6 0.65 5.65 0.55 5.7 0.45 5.75 0.3 5.8 0.25 5.85 0.15 5.9 0.1 5.95 0.05 6.0 0.05 6.0 0.05 6.05 -0.85 5.95 -1.3 5.9 -1.8 5.85 L0.45 7.55" fill="#333333" fill-rule="evenodd" stroke="none"/>
    <path d="M-1.35 3.45 Q-1.35 3.45 -2.0 3.5 -2.6 3.5 -2.6 3.45 -2.6 3.45 -3.4 2.1 -4.2 0.7 -4.15 0.7 -4.15 0.7 -3.45 0.65 -2.7 0.55 -2.7 0.55 -2.7 0.55 -2.2 1.2 -1.65 1.8 -1.65 1.8 -1.65 1.8 -1.35 2.15 -1.1 2.5 -1.1 2.5 -1.1 2.5 -0.2 1.85 0.65 1.15 0.65 1.15 0.55 -0.3 0.45 -1.8 0.45 -1.8 0.65 -1.1 1.05 0.0 1.15 0.35 1.35 1.05 1.65 1.95 1.85 2.7 1.85 2.7 1.85 2.7 1.15 2.95 0.5 3.25 0.5 3.25 0.5 3.25 0.15 3.55 -0.05 3.7 -0.25 3.85 -0.25 3.85 -0.8 3.65 -1.4 3.45 -1.35 3.45 L-1.35 3.45" fill="#ffffff" fill-rule="evenodd" stroke="none"/>
    <path d="M6.2 -1.2 Q6.2 -1.2 5.9 -0.2 5.6 0.85 5.6 0.85 5.6 0.85 5.5 1.0 5.4 1.2 5.4 1.2 5.4 1.2 5.05 0.2 4.9 -0.25 4.75 -0.75 2.3 -3.75 2.3 -3.75 2.3 -3.7 3.15 -4.3 3.6 -4.55 4.0 -4.85 L4.2 -2.0 6.2 -1.2" fill="#666666" fill-rule="evenodd" stroke="none"/>
    <path d="M2.4 5.4 Q1.95 4.8 1.95 4.9 1.95 4.9 2.8 4.35 3.6 3.85 3.65 3.85 3.65 3.85 3.65 3.2 3.7 2.6 3.7 2.6 3.7 2.6 4.65 1.75 5.1 1.3 5.6 0.85 5.6 0.85 5.4 2.25 5.2 3.65 5.2 3.7 5.25 3.7 4.6 4.8 4.25 5.35 3.95 5.9 3.95 5.9 3.2 5.65 2.4 5.4 2.4 5.4 L2.4 5.4" fill="#333333" fill-rule="evenodd" stroke="none"/>
    <path d="M1.25 5.35 L-2.6 3.45 -1.35 3.45 Q-1.35 3.45 -0.8 3.65 -0.25 3.85 -0.25 3.85 -0.25 3.85 0.15 3.55 0.35 3.4 0.55 3.25 0.55 3.25 1.2 2.95 1.85 2.65 1.85 2.65 1.85 2.65 2.8 2.65 3.7 2.65 3.7 2.65 3.7 2.65 3.65 3.25 3.65 3.85 3.65 3.85 2.45 4.6 1.25 5.35 L1.25 5.35" fill="#cccccc" fill-rule="evenodd" stroke="none"/>
    <path d="M-1.8 5.85 Q-1.8 5.85 -0.85 5.9 0.1 5.95 0.1 5.95 0.15 5.85 1.05 5.35 2.0 4.85 2.0 4.9 2.0 4.9 2.2 5.15 2.4 5.4 2.4 5.4 2.4 5.4 3.15 5.65 3.95 5.85 3.95 5.85 3.95 5.85 3.75 6.1 3.6 6.3 3.6 6.3 3.6 6.3 2.2 6.85 0.8 7.4 0.8 7.4 0.8 7.4 1.15 7.7 1.5 8.05 1.5 8.05 1.5 8.05 2.05 8.25 2.6 8.45 2.6 8.45 2.6 8.45 2.95 8.15 3.3 7.9 3.3 7.9 3.3 7.9 3.0 9.65 2.65 11.45 2.65 11.45 2.65 11.45 2.6 11.45 2.55 11.45 2.45 11.5 2.25 11.5 2.2 11.5 2.0 11.55 1.85 11.55 1.65 11.6 1.5 11.6 1.25 11.65 1.05 11.65 0.85 11.7 0.6 11.7 0.35 11.75 0.15 11.75 -0.05 11.75 -0.3 11.75 -0.5 11.75 -0.75 11.75 -0.95 11.75 -1.15 11.75 -1.35 11.75 -1.55 11.7 -1.7 11.7 -1.85 11.7 -1.95 11.7 -2.05 11.65 -2.15 11.65 -2.25 11.65 -2.3 11.65 -2.3 11.65 -2.25 11.65 -1.7 10.85 -1.15 10.1 -1.05 10.0 -1.0 9.9 -0.25 8.7 0.45 7.55 0.45 7.55 0.45 7.55 -0.7 6.7 -1.25 6.3 -1.8 5.85 L-1.8 5.85" fill="#000000" fill-rule="evenodd" stroke="none"/>
    <path d="M-6.7 4.3 L-5.15 5.25 Q-5.15 5.25 -5.25 6.45 -5.35 7.7 -5.35 7.65 -5.35 7.65 -6.9 7.4 -8.5 7.15 -8.5 7.1 -8.7 6.6 -8.85 6.1 -9.0 5.65 -9.1 5.25 -9.2 4.85 -9.25 4.45 -9.3 4.15 -9.3 3.8 -9.35 3.55 -9.35 3.3 -9.35 3.1 -9.35 2.9 -9.35 2.8 -9.35 2.7 -9.3 2.6 -9.3 2.6 -9.3 2.6 -7.85 1.35 -7.15 0.75 -6.4 0.15 -6.4 0.2 -6.3 0.45 -6.15 0.85 -6.05 1.05 -5.75 1.6 -5.45 2.1 L-6.7 4.3" fill="#666666" fill-rule="evenodd" stroke="none"/>
    <path d="M-5.35 7.65 Q-5.35 7.65 -4.0 7.5 -2.6 7.3 -2.6 7.3 -2.45 7.15 -2.65 7.6 -2.65 7.6 -2.3 8.45 -1.95 9.3 -1.95 9.3 -1.95 9.3 -1.8 9.35 -1.65 9.35 -1.65 9.4 -1.65 9.3 -1.15 8.85 -0.35 8.2 0.45 7.55 0.75 7.25 -1.0 9.95 -1.35 10.5 -1.85 11.1 -2.25 11.6 -2.25 11.6 -2.2 11.65 -2.75 11.6 -3.05 11.6 -3.3 11.55 -3.3 11.55 -3.35 11.55 -3.45 11.55 -3.55 11.5 -3.7 11.5 -3.85 11.45 -4.05 11.4 -4.25 11.35 -4.45 11.25 -4.65 11.2 -4.9 11.1 -5.1 10.95 -5.35 10.85 -5.55 10.7 -5.8 10.55 -6.0 10.35 -6.2 10.15 -6.45 9.9 -6.7 9.65 -6.9 9.4 -7.1 9.1 -7.35 8.85 -7.55 8.6 -7.7 8.3 -7.9 8.1 -8.05 7.85 -8.15 7.65 -8.3 7.45 -8.35 7.3 -8.45 7.2 -8.5 7.1 -8.5 7.1 -8.5 7.15 -6.9 7.4 -5.35 7.7 -5.35 7.65 L-5.35 7.65" fill="#333333" fill-rule="evenodd" stroke="none"/>
    <path d="M7.1 -2.65 L7.75 -2.85 8.7 -0.55 6.75 -1.1 7.1 -2.65" fill="#666666" fill-rule="evenodd" stroke="none"/>
    <path d="M2.3 -3.7 L0.4 -6.0 2.7 -6.75 4.0 -4.85 2.3 -3.7" fill="#ffffff" fill-rule="evenodd" stroke="none"/>
    <path d="M-4.8 -3.5 Q-4.8 -3.5 -4.75 -3.5 -4.75 -3.5 -4.7 -3.5 -4.6 -3.5 -4.55 -3.5 -4.45 -3.5 -4.4 -3.5 -4.3 -3.5 -4.2 -3.5 -4.1 -3.45 -4.0 -3.45 -3.9 -3.4 -3.8 -3.35 -3.65 -3.3 -3.55 -3.25 -3.5 -3.2 -3.45 -3.15 -3.4 -3.15 -3.4 -3.1 -3.35 -3.05 -3.3 -3.0 -3.25 -2.95 -3.25 -2.9 -3.2 -2.85 -3.15 -2.8 -3.1 -2.7 -3.1 -2.7 -3.05 -2.6 -3.0 -2.55 -2.95 -2.5 -2.9 -2.45 -3.7 -1.55 -4.5 -0.65 -4.65 -0.55 -5.05 -0.35 -5.65 -0.1 -5.6 -0.2 -5.2 -1.85 -4.8 -3.5 L-4.8 -3.5" fill="#cccccc" fill-rule="evenodd" stroke="none"/>
    <path d="M-0.2 -7.15 L1.1 -7.2 Q1.1 -7.2 1.6 -6.85 2.05 -6.5 2.05 -6.55 2.05 -6.55 1.25 -6.3 0.45 -6.0 0.45 -6.0 -0.3 -5.2 -1.0 -4.45 L-0.2 -7.15" fill="#cccccc" fill-rule="evenodd" stroke="none"/>
    <path d="M-4.1 -3.45 L-1.7 -6.3 -0.95 -4.5 -2.95 -2.45 -4.1 -3.45" fill="#ffffff" fill-rule="evenodd" stroke="none"/>
  </g>
</svg>
