<?xml version="1.0" encoding="UTF-8" standalone="no"?>
<svg xmlns:xlink="http://www.w3.org/1999/xlink" height="22.35px" width="22.9px" xmlns="http://www.w3.org/2000/svg">
  <g transform="matrix(1.0, 0.0, 0.0, 1.0, 11.45, 11.15)">
    <path d="M-1.35 -4.65 L-1.75 -6.35 0.1 -5.65 0.0 -1.25 -1.35 -0.6 -1.55 -2.2 -2.6 -3.2 -1.35 -4.65" fill="#666666" fill-rule="evenodd" stroke="none"/>
    <path d="M-1.75 -6.4 L-1.35 -4.65 -2.6 -3.2 -1.75 -6.4" fill="#ffffff" fill-rule="evenodd" stroke="none"/>
    <path d="M-2.6 -3.2 L-1.55 -2.2 -1.35 -0.6 -2.6 -3.2" fill="#000000" fill-rule="evenodd" stroke="none"/>
    <path d="M0.0 -6.35 L0.0 -5.7 -1.75 -6.35 0.0 -6.35" fill="#cccccc" fill-rule="evenodd" stroke="none"/>
    <path d="M0.0 -1.3 L0.0 -0.45 -1.35 -0.6 0.0 -1.3" fill="#333333" fill-rule="evenodd" stroke="none"/>
    <path d="M-0.1 -6.35 L-1.75 -6.35 -0.1 -8.25 -0.1 -6.35" fill="#666666" fill-rule="evenodd" stroke="none"/>
    <path d="M-0.1 -8.25 L-1.75 -6.35 -0.4 -10.85 -0.1 -8.25" fill="#ffffff" fill-rule="evenodd" stroke="none"/>
    <path d="M-0.4 -10.85 L-1.75 -6.35 -1.5 -8.25 -0.4 -10.85" fill="#cccccc" fill-rule="evenodd" stroke="none"/>
    <path d="M-1.5 -8.25 L-1.75 -6.35 -2.65 -4.5 -1.5 -8.25" fill="#666666" fill-rule="evenodd" stroke="none"/>
    <path d="M-1.75 -6.35 L-2.6 -3.2 -2.65 -4.5 -1.75 -6.35" fill="#cccccc" fill-rule="evenodd" stroke="none"/>
    <path d="M-2.65 -4.5 L-2.6 -3.15 -2.9 -2.15 -2.65 -4.5" fill="#333333" fill-rule="evenodd" stroke="none"/>
    <path d="M-2.6 -3.2 L-1.35 -0.6 -2.9 -2.15 -2.6 -3.2" fill="#666666" fill-rule="evenodd" stroke="none"/>
    <path d="M-2.9 -2.2 L-1.35 -0.6 -2.7 -0.15 -2.9 -2.2" fill="#333333" fill-rule="evenodd" stroke="none"/>
    <path d="M-1.35 -0.6 L-2.1 1.1 -2.7 -0.2 -1.35 -0.6" fill="#666666" fill-rule="evenodd" stroke="none"/>
    <path d="M-1.35 -0.6 L0.0 -0.45 -2.1 1.1 -1.35 -0.6" fill="#cccccc" fill-rule="evenodd" stroke="none"/>
    <path d="M2.6 -3.2 L1.55 -2.2 1.35 -0.6 0.0 -1.3 0.0 -5.7 1.75 -6.35 1.35 -4.65 2.6 -3.2" fill="#333333" fill-rule="evenodd" stroke="none"/>
    <path d="M2.6 -3.2 L1.35 -4.65 1.75 -6.4 2.6 -3.2" fill="#cccccc" fill-rule="evenodd" stroke="none"/>
    <path d="M1.35 -0.6 L1.55 -2.2 2.6 -3.2 1.35 -0.6" fill="#666666" fill-rule="evenodd" stroke="none"/>
    <path d="M1.75 -6.35 L0.0 -5.7 0.0 -6.35 1.75 -6.35" fill="#666666" fill-rule="evenodd" stroke="none"/>
    <path d="M1.4 -0.6 L0.0 -0.45 0.0 -1.3 1.4 -0.6" fill="#cccccc" fill-rule="evenodd" stroke="none"/>
    <path d="M0.1 -8.25 L1.75 -6.35 0.1 -6.35 0.1 -8.25" fill="#333333" fill-rule="evenodd" stroke="none"/>
    <path d="M0.4 -10.85 L1.75 -6.35 0.1 -8.25 0.4 -10.85" fill="#cccccc" fill-rule="evenodd" stroke="none"/>
    <path d="M1.5 -8.25 L1.75 -6.35 0.4 -10.85 1.5 -8.25" fill="#333333" fill-rule="evenodd" stroke="none"/>
    <path d="M2.65 -4.5 L1.75 -6.35 1.5 -8.25 2.65 -4.5" fill="#666666" fill-rule="evenodd" stroke="none"/>
    <path d="M2.65 -4.5 L2.6 -3.2 1.75 -6.35 2.65 -4.5" fill="#000000" fill-rule="evenodd" stroke="none"/>
    <path d="M2.9 -2.15 L2.6 -3.15 2.65 -4.5 2.9 -2.15" fill="#666666" fill-rule="evenodd" stroke="none"/>
    <path d="M2.9 -2.15 L1.35 -0.6 2.6 -3.2 2.9 -2.15" fill="#cccccc" fill-rule="evenodd" stroke="none"/>
    <path d="M2.7 -0.15 L1.35 -0.6 2.9 -2.2 2.7 -0.15" fill="#666666" fill-rule="evenodd" stroke="none"/>
    <path d="M2.7 -0.2 L2.15 1.1 1.35 -0.6 2.7 -0.2" fill="#000000" fill-rule="evenodd" stroke="none"/>
    <path d="M2.1 1.1 L0.0 -0.45 1.4 -0.6 2.1 1.1" fill="#333333" fill-rule="evenodd" stroke="none"/>
    <path d="M0.1 -8.25 L0.1 -6.35 -0.1 -6.35 -0.1 -8.25 0.1 -8.25" fill="#000000" fill-rule="evenodd" stroke="none"/>
    <path d="M0.0 -11.15 L0.4 -10.85 0.1 -8.25 -0.1 -8.25 -0.4 -10.85 0.0 -11.15" fill="#666666" fill-rule="evenodd" stroke="none"/>
    <path d="M6.9 6.1 L8.6 6.85 6.85 7.8 3.3 4.95 3.55 3.55 5.05 4.4 6.45 4.25 6.9 6.1" fill="#333333" fill-rule="evenodd" stroke="none"/>
    <path d="M8.6 6.85 L6.9 6.1 6.45 4.25 8.6 6.85" fill="#666666" fill-rule="evenodd" stroke="none"/>
    <path d="M6.5 4.25 L5.05 4.4 3.55 3.55 6.5 4.25" fill="#666666" fill-rule="evenodd" stroke="none"/>
    <path d="M7.5 8.15 L6.95 7.75 8.6 6.85 7.5 8.15" fill="#cccccc" fill-rule="evenodd" stroke="none"/>
    <path d="M3.3 5.0 L2.6 4.45 3.55 3.55 3.3 5.0" fill="#666666" fill-rule="evenodd" stroke="none"/>
    <path d="M7.55 8.05 L8.6 6.85 9.15 9.25 7.55 8.05" fill="#ffffff" fill-rule="evenodd" stroke="none"/>
    <path d="M9.15 9.2 L8.6 6.85 11.45 10.65 9.15 9.2" fill="#666666" fill-rule="evenodd" stroke="none"/>
    <path d="M11.45 10.6 L8.55 6.85 10.0 8.2 11.45 10.6" fill="#000000" fill-rule="evenodd" stroke="none"/>
    <path d="M10.0 8.2 L8.55 6.85 7.6 5.05 10.0 8.2" fill="#666666" fill-rule="evenodd" stroke="none"/>
    <path d="M8.55 6.85 L6.45 4.25 7.6 5.0 8.55 6.85" fill="#cccccc" fill-rule="evenodd" stroke="none"/>
    <path d="M7.6 5.0 L6.45 4.25 5.8 3.35 7.6 5.0" fill="#333333" fill-rule="evenodd" stroke="none"/>
    <path d="M6.45 4.25 L3.55 3.5 5.8 3.35 6.45 4.25" fill="#cccccc" fill-rule="evenodd" stroke="none"/>
    <path d="M5.8 3.4 L3.55 3.55 4.05 2.25 5.8 3.4" fill="#000000" fill-rule="evenodd" stroke="none"/>
    <path d="M3.55 3.55 L2.65 1.9 4.05 2.25 3.55 3.55" fill="#cccccc" fill-rule="evenodd" stroke="none"/>
    <path d="M3.55 3.55 L2.6 4.45 2.65 1.95 3.55 3.55" fill="#ffffff" fill-rule="evenodd" stroke="none"/>
    <path d="M3.25 8.1 L3.1 6.7 1.85 5.55 3.3 4.95 Q3.3 4.95 6.25 7.2 6.6 7.45 6.95 7.7 L6.4 9.45 5.25 8.05 3.25 8.1" fill="#666666" fill-rule="evenodd" stroke="none"/>
    <path d="M3.25 8.1 L5.25 8.05 6.4 9.45 3.25 8.1" fill="#000000" fill-rule="evenodd" stroke="none"/>
    <path d="M1.85 5.55 L3.1 6.7 3.25 8.1 1.85 5.55" fill="#cccccc" fill-rule="evenodd" stroke="none"/>
    <path d="M6.4 9.45 L6.95 7.75 7.5 8.15 6.4 9.45" fill="#ffffff" fill-rule="evenodd" stroke="none"/>
    <path d="M1.85 5.6 L2.6 4.45 3.3 4.95 1.85 5.6" fill="#333333" fill-rule="evenodd" stroke="none"/>
    <path d="M9.0 9.4 L6.4 9.45 7.45 8.2 9.0 9.4" fill="#333333" fill-rule="evenodd" stroke="none"/>
    <path d="M10.95 11.2 L6.4 9.45 9.0 9.4 10.95 11.2" fill="#cccccc" fill-rule="evenodd" stroke="none"/>
    <path d="M8.1 10.4 L6.4 9.45 10.95 11.2 8.1 10.4" fill="#666666" fill-rule="evenodd" stroke="none"/>
    <path d="M4.3 8.95 L6.4 9.4 8.1 10.45 4.3 8.95" fill="#cccccc" fill-rule="evenodd" stroke="none"/>
    <path d="M4.3 8.95 L3.25 8.1 6.4 9.4 4.3 8.95" fill="#333333" fill-rule="evenodd" stroke="none"/>
    <path d="M2.2 7.65 L3.25 8.05 4.3 8.95 2.2 7.65" fill="#cccccc" fill-rule="evenodd" stroke="none"/>
    <path d="M2.2 7.65 L1.85 5.55 3.25 8.1 2.2 7.65" fill="#666666" fill-rule="evenodd" stroke="none"/>
    <path d="M0.7 6.3 L1.85 5.55 2.2 7.65 0.7 6.3" fill="#333333" fill-rule="evenodd" stroke="none"/>
    <path d="M0.7 6.3 L0.0 5.1 1.85 5.55 0.7 6.3" fill="#cccccc" fill-rule="evenodd" stroke="none"/>
    <path d="M0.0 5.1 L2.6 4.45 1.85 5.6 0.0 5.1" fill="#ffffff" fill-rule="evenodd" stroke="none"/>
    <path d="M9.0 9.4 L7.45 8.2 7.55 8.05 9.15 9.2 9.0 9.4" fill="#666666" fill-rule="evenodd" stroke="none"/>
    <path d="M11.45 11.1 L10.95 11.2 9.0 9.4 9.15 9.2 11.45 10.65 11.45 11.1" fill="#ffffff" fill-rule="evenodd" stroke="none"/>
    <path d="M-6.45 4.25 L-5.05 4.4 -3.55 3.55 -3.3 4.95 -6.85 7.8 -8.6 6.85 -6.9 6.1 -6.45 4.25" fill="#cccccc" fill-rule="evenodd" stroke="none"/>
    <path d="M-6.45 4.25 L-6.9 6.1 -8.6 6.85 -6.45 4.25" fill="#666666" fill-rule="evenodd" stroke="none"/>
    <path d="M-3.55 3.55 L-5.05 4.4 -6.5 4.25 -3.55 3.55" fill="#333333" fill-rule="evenodd" stroke="none"/>
    <path d="M-8.6 6.85 L-6.95 7.75 -7.5 8.15 -8.6 6.85" fill="#000000" fill-rule="evenodd" stroke="none"/>
    <path d="M-3.55 3.55 L-2.6 4.45 -3.3 5.0 -3.55 3.55" fill="#000000" fill-rule="evenodd" stroke="none"/>
    <path d="M-9.15 9.25 L-8.6 6.85 -7.55 8.05 -9.15 9.25" fill="#666666" fill-rule="evenodd" stroke="none"/>
    <path d="M-11.45 10.65 L-8.6 6.85 -9.15 9.2 -11.45 10.65" fill="#cccccc" fill-rule="evenodd" stroke="none"/>
    <path d="M-10.0 8.2 L-8.55 6.85 -11.45 10.6 -10.0 8.2" fill="#666666" fill-rule="evenodd" stroke="none"/>
    <path d="M-7.6 5.05 L-8.55 6.85 -10.0 8.2 -7.6 5.05" fill="#cccccc" fill-rule="evenodd" stroke="none"/>
    <path d="M-7.6 5.0 L-6.45 4.25 -8.55 6.85 -7.6 5.0" fill="#ffffff" fill-rule="evenodd" stroke="none"/>
    <path d="M-5.8 3.35 L-6.45 4.25 -7.6 5.0 -5.8 3.35" fill="#cccccc" fill-rule="evenodd" stroke="none"/>
    <path d="M-5.8 3.4 L-3.55 3.55 -6.45 4.25 -5.8 3.4" fill="#666666" fill-rule="evenodd" stroke="none"/>
    <path d="M-4.05 2.25 L-3.55 3.55 -5.8 3.4 -4.05 2.25" fill="#cccccc" fill-rule="evenodd" stroke="none"/>
    <path d="M-4.05 2.25 L-2.65 1.9 -3.55 3.55 -4.05 2.25" fill="#666666" fill-rule="evenodd" stroke="none"/>
    <path d="M-2.65 1.95 L-2.6 4.45 -3.55 3.55 -2.65 1.95" fill="#cccccc" fill-rule="evenodd" stroke="none"/>
    <path d="M-5.25 8.05 L-6.4 9.45 -6.95 7.7 -3.3 4.95 -1.85 5.55 -3.1 6.7 -3.25 8.1 -5.25 8.05" fill="#333333" fill-rule="evenodd" stroke="none"/>
    <path d="M-6.4 9.45 L-5.25 8.05 -3.25 8.05 -6.4 9.45" fill="#666666" fill-rule="evenodd" stroke="none"/>
    <path d="M-3.25 8.1 L-3.1 6.7 -1.85 5.55 -3.25 8.1" fill="#000000" fill-rule="evenodd" stroke="none"/>
    <path d="M-7.5 8.15 L-6.95 7.75 -6.4 9.45 -7.5 8.15" fill="#cccccc" fill-rule="evenodd" stroke="none"/>
    <path d="M-3.3 4.95 L-2.6 4.45 -1.85 5.6 -3.3 4.95" fill="#666666" fill-rule="evenodd" stroke="none"/>
    <path d="M-7.45 8.2 L-6.4 9.45 -9.0 9.4 -7.45 8.2" fill="#666666" fill-rule="evenodd" stroke="none"/>
    <path d="M-9.0 9.4 L-6.4 9.45 -10.95 11.2 -9.0 9.4" fill="#ffffff" fill-rule="evenodd" stroke="none"/>
    <path d="M-10.95 11.2 L-6.4 9.45 -8.1 10.4 -10.95 11.2" fill="#cccccc" fill-rule="evenodd" stroke="none"/>
    <path d="M-8.1 10.45 L-6.4 9.4 -4.3 8.95 -8.1 10.45" fill="#333333" fill-rule="evenodd" stroke="none"/>
    <path d="M-6.4 9.4 L-3.25 8.1 -4.3 8.95 -6.4 9.4" fill="#cccccc" fill-rule="evenodd" stroke="none"/>
    <path d="M-4.3 8.95 L-3.25 8.05 -2.2 7.65 -4.3 8.95" fill="#333333" fill-rule="evenodd" stroke="none"/>
    <path d="M-3.25 8.1 L-1.85 5.55 -2.2 7.65 -3.25 8.1" fill="#666666" fill-rule="evenodd" stroke="none"/>
    <path d="M-2.2 7.7 L-1.85 5.55 -0.7 6.3 -2.2 7.7" fill="#cccccc" fill-rule="evenodd" stroke="none"/>
    <path d="M-1.85 5.55 L0.0 5.1 -0.7 6.3 -1.85 5.55" fill="#333333" fill-rule="evenodd" stroke="none"/>
    <path d="M-1.85 5.6 L-2.6 4.45 0.0 5.1 -1.85 5.6" fill="#cccccc" fill-rule="evenodd" stroke="none"/>
    <path d="M-9.15 9.2 L-7.55 8.05 -7.45 8.2 -9.0 9.4 -9.15 9.2" fill="#333333" fill-rule="evenodd" stroke="none"/>
    <path d="M-11.45 10.65 L-9.15 9.2 -9.0 9.4 -10.95 11.2 -11.45 11.1 -11.45 10.65" fill="#666666" fill-rule="evenodd" stroke="none"/>
    <path d="M-2.6 4.45 L-2.65 1.9 0.0 5.1 -2.6 4.45" fill="#333333" fill-rule="evenodd" stroke="none"/>
    <path d="M0.0 5.1 L2.65 1.9 2.6 4.45 0.0 5.1" fill="#666666" fill-rule="evenodd" stroke="none"/>
    <path d="M0.0 -0.45 L2.15 1.1 0.0 1.1 0.0 -0.45" fill="#666666" fill-rule="evenodd" stroke="none"/>
    <path d="M-2.15 1.05 L2.15 1.1 0.0 5.1 -2.15 1.05" fill="#cccccc" fill-rule="evenodd" stroke="none"/>
    <path d="M-2.65 1.9 L-2.1 1.05 0.0 5.1 -2.65 1.9" fill="#666666" fill-rule="evenodd" stroke="none"/>
    <path d="M0.0 5.1 L2.15 1.1 2.65 1.9 0.0 5.1" fill="#333333" fill-rule="evenodd" stroke="none"/>
    <path d="M0.0 1.1 L-2.15 1.1 0.0 -0.45 0.0 1.1" fill="#ffffff" fill-rule="evenodd" stroke="none"/>
  </g>
</svg>
