<?xml version="1.0" encoding="UTF-8" standalone="no"?>
<svg xmlns:xlink="http://www.w3.org/1999/xlink" height="19.0px" width="22.0px" xmlns="http://www.w3.org/2000/svg">
  <g transform="matrix(1.0, 0.0, 0.0, 1.0, 11.0, 9.5)">
    <path d="M-1.4 0.0 L-1.2 -2.6 0.0 -3.2 0.0 0.0 -1.4 0.0" fill="#000000" fill-rule="evenodd" stroke="none"/>
    <path d="M-4.2 0.0 L-5.1 -1.25 -5.3 -4.65 -1.35 -0.7 -1.4 0.0 -4.2 0.0" fill="#666666" fill-rule="evenodd" stroke="none"/>
    <path d="M-1.2 -2.6 L-2.65 -4.55 0.0 -4.2 0.0 -3.2 -1.2 -2.6" fill="#a7a7a7" fill-rule="evenodd" stroke="none"/>
    <path d="M-5.3 -4.65 L-4.9 -5.4 -2.6 -4.55 -1.2 -2.6 -1.35 -0.7 -5.3 -4.65" fill="#ffffff" fill-rule="evenodd" stroke="none"/>
    <path d="M-6.95 0.0 L-6.65 -2.25 -5.1 -1.25 -4.25 0.0 -6.95 0.0" fill="#cccccc" fill-rule="evenodd" stroke="none"/>
    <path d="M-6.65 -2.25 L-7.15 -9.5 -5.3 -4.6 -5.15 -1.25 -6.65 -2.25" fill="#000000" fill-rule="evenodd" stroke="none"/>
    <path d="M-7.95 -2.8 L-7.15 -9.45 -6.65 -2.25 -7.95 -2.8" fill="#cccccc" fill-rule="evenodd" stroke="none"/>
    <path d="M-5.3 -4.65 L-7.15 -9.5 -4.9 -5.4 -5.3 -4.65" fill="#cccccc" fill-rule="evenodd" stroke="none"/>
    <path d="M-4.95 -5.4 L-7.15 -9.45 -5.0 -8.4 -2.6 -4.55 -4.95 -5.4" fill="#666666" fill-rule="evenodd" stroke="none"/>
    <path d="M-2.6 -4.55 L-5.0 -8.4 -0.8 -5.05 -0.9 -4.3 -2.6 -4.55" fill="#cccccc" fill-rule="evenodd" stroke="none"/>
    <path d="M-3.05 -8.6 Q-1.5 -8.45 0.0 -8.3 L-0.8 -5.05 -5.0 -8.4 -7.15 -9.5 Q-7.15 -9.5 -5.55 -9.1 -3.85 -8.75 -3.05 -8.6 L-3.05 -8.6" fill="#a7a7a7" fill-rule="evenodd" stroke="none"/>
    <path d="M-0.9 -4.35 L-0.85 -5.05 0.0 -8.3 0.0 -4.2 -0.9 -4.35" fill="#000000" fill-rule="evenodd" stroke="none"/>
    <path d="M-9.95 -2.85 L-7.15 -9.5 -7.95 -2.8 -9.95 -2.85" fill="#a7a7a7" fill-rule="evenodd" stroke="none"/>
    <path d="M-9.95 -2.85 L-7.95 -2.8 -6.7 -2.25 -6.95 0.0 -11.0 0.0 -9.95 -2.85" fill="#ffffff" fill-rule="evenodd" stroke="none"/>
    <path d="M0.0 0.0 L0.0 -3.2 1.2 -2.6 1.4 0.0 0.0 0.0" fill="#666666" fill-rule="evenodd" stroke="none"/>
    <path d="M1.4 0.0 L1.35 -0.7 5.3 -4.65 5.1 -1.25 4.2 0.0 1.4 0.0" fill="#a7a7a7" fill-rule="evenodd" stroke="none"/>
    <path d="M0.0 -3.25 L0.0 -4.25 2.65 -4.6 1.2 -2.65 0.0 -3.25" fill="#ffffff" fill-rule="evenodd" stroke="none"/>
    <path d="M1.35 -0.7 L1.2 -2.6 2.6 -4.55 4.9 -5.4 5.3 -4.65 1.35 -0.7" fill="#cccccc" fill-rule="evenodd" stroke="none"/>
    <path d="M4.25 0.0 L5.1 -1.25 6.65 -2.25 6.95 0.0 4.25 0.0" fill="#cccccc" fill-rule="evenodd" stroke="none"/>
    <path d="M5.15 -1.25 L5.3 -4.6 7.15 -9.5 6.65 -2.25 5.15 -1.25" fill="#000000" fill-rule="evenodd" stroke="none"/>
    <path d="M6.65 -2.25 L7.15 -9.45 7.95 -2.8 6.65 -2.25" fill="#cccccc" fill-rule="evenodd" stroke="none"/>
    <path d="M4.9 -5.4 L7.15 -9.5 5.3 -4.65 4.9 -5.4" fill="#ffffff" fill-rule="evenodd" stroke="none"/>
    <path d="M2.6 -4.55 L5.0 -8.4 7.15 -9.45 4.95 -5.4 2.6 -4.55" fill="#666666" fill-rule="evenodd" stroke="none"/>
    <path d="M0.9 -4.3 L0.8 -5.05 5.0 -8.4 2.6 -4.55 0.9 -4.3" fill="#a7a7a7" fill-rule="evenodd" stroke="none"/>
    <path d="M7.15 -9.5 L5.0 -8.4 0.8 -5.05 0.0 -8.3 Q0.0 -8.3 1.1 -8.35 2.35 -8.5 3.05 -8.6 5.1 -9.05 7.15 -9.5 L7.15 -9.5" fill="#cccccc" fill-rule="evenodd" stroke="none"/>
    <path d="M0.0 -4.2 L0.0 -8.3 0.85 -5.05 0.9 -4.35 0.0 -4.2" fill="#666666" fill-rule="evenodd" stroke="none"/>
    <path d="M7.95 -2.8 L7.15 -9.5 9.95 -2.85 7.95 -2.8" fill="#666666" fill-rule="evenodd" stroke="none"/>
    <path d="M11.0 0.0 L6.95 0.0 6.7 -2.25 7.95 -2.8 9.95 -2.85 11.0 0.0" fill="#a7a7a7" fill-rule="evenodd" stroke="none"/>
    <path d="M0.0 0.0 L0.0 3.2 -1.2 2.6 -1.4 0.0 0.0 0.0" fill="#a7a7a7" fill-rule="evenodd" stroke="none"/>
    <path d="M-1.4 0.0 L-1.35 0.7 -5.3 4.65 -5.1 1.25 -4.2 0.0 -1.4 0.0" fill="#cccccc" fill-rule="evenodd" stroke="none"/>
    <path d="M0.0 3.2 L0.0 4.2 -2.65 4.55 -1.2 2.6 0.0 3.2" fill="#000000" fill-rule="evenodd" stroke="none"/>
    <path d="M-1.35 0.7 L-1.2 2.6 -2.6 4.55 -4.9 5.4 -5.3 4.65 -1.35 0.7" fill="#666666" fill-rule="evenodd" stroke="none"/>
    <path d="M-4.25 0.0 L-5.1 1.25 -6.65 2.25 -6.95 0.0 -4.25 0.0" fill="#a7a7a7" fill-rule="evenodd" stroke="none"/>
    <path d="M-5.15 1.25 L-5.3 4.6 -7.15 9.5 -6.65 2.25 -5.15 1.25" fill="#666666" fill-rule="evenodd" stroke="none"/>
    <path d="M-6.65 2.25 L-7.15 9.45 -7.95 2.8 -6.65 2.25" fill="#000000" fill-rule="evenodd" stroke="none"/>
    <path d="M-4.9 5.4 L-7.15 9.45 -5.3 4.65 -4.9 5.4" fill="#ffffff" fill-rule="evenodd" stroke="none"/>
    <path d="M-2.6 4.55 L-5.0 8.4 -7.15 9.45 -4.95 5.4 -2.6 4.55" fill="#a7a7a7" fill-rule="evenodd" stroke="none"/>
    <path d="M-0.9 4.3 L-0.8 5.05 -5.0 8.4 -2.6 4.55 -0.9 4.3" fill="#cccccc" fill-rule="evenodd" stroke="none"/>
    <path d="M-7.15 9.5 L-5.0 8.4 -0.8 5.05 0.0 8.3 Q0.0 8.3 -1.1 8.4 -2.35 8.5 -3.05 8.6 -5.1 9.05 -7.15 9.5 L-7.15 9.5" fill="#666666" fill-rule="evenodd" stroke="none"/>
    <path d="M0.0 4.2 L0.0 8.3 -0.85 5.05 -0.9 4.35 0.0 4.2" fill="#ffffff" fill-rule="evenodd" stroke="none"/>
    <path d="M-7.95 2.8 L-7.15 9.5 -9.95 2.85 -7.95 2.8" fill="#a7a7a7" fill-rule="evenodd" stroke="none"/>
    <path d="M-11.0 0.0 L-6.95 0.0 -6.7 2.25 -7.95 2.8 -9.95 2.85 -11.0 0.0" fill="#666666" fill-rule="evenodd" stroke="none"/>
    <path d="M1.4 0.0 L1.2 2.6 0.0 3.2 0.0 0.0 1.4 0.0" fill="#cccccc" fill-rule="evenodd" stroke="none"/>
    <path d="M4.2 0.0 L5.1 1.25 5.3 4.65 1.35 0.7 1.4 0.0 4.2 0.0" fill="#ffffff" fill-rule="evenodd" stroke="none"/>
    <path d="M1.2 2.6 L2.65 4.55 0.0 4.2 0.0 3.2 1.2 2.6" fill="#a7a7a7" fill-rule="evenodd" stroke="none"/>
    <path d="M5.3 4.65 L4.9 5.4 2.6 4.55 1.2 2.6 1.35 0.7 5.3 4.65" fill="#666666" fill-rule="evenodd" stroke="none"/>
    <path d="M6.95 0.0 L6.65 2.25 5.1 1.25 4.25 0.0 6.95 0.0" fill="#666666" fill-rule="evenodd" stroke="none"/>
    <path d="M6.65 2.25 L7.15 9.5 5.3 4.6 5.15 1.25 6.65 2.25" fill="#cccccc" fill-rule="evenodd" stroke="none"/>
    <path d="M7.95 2.8 L7.15 9.45 6.65 2.25 7.95 2.8" fill="#a7a7a7" fill-rule="evenodd" stroke="none"/>
    <path d="M5.3 4.65 L7.15 9.5 4.9 5.4 5.3 4.65" fill="#000000" fill-rule="evenodd" stroke="none"/>
    <path d="M4.95 5.4 L7.15 9.45 5.0 8.4 2.6 4.55 4.95 5.4" fill="#a7a7a7" fill-rule="evenodd" stroke="none"/>
    <path d="M2.6 4.55 L5.0 8.4 0.8 5.05 0.9 4.3 2.6 4.55" fill="#666666" fill-rule="evenodd" stroke="none"/>
    <path d="M3.05 8.6 Q1.5 8.45 0.0 8.3 L0.8 5.05 5.0 8.4 7.15 9.5 Q7.15 9.5 5.55 9.1 3.85 8.75 3.05 8.6 L3.05 8.6" fill="#cccccc" fill-rule="evenodd" stroke="none"/>
    <path d="M0.9 4.35 L0.85 5.05 0.0 8.3 0.0 4.2 0.9 4.35" fill="#a7a7a7" fill-rule="evenodd" stroke="none"/>
    <path d="M9.95 2.85 L7.15 9.5 7.95 2.8 9.95 2.85" fill="#ffffff" fill-rule="evenodd" stroke="none"/>
    <path d="M9.95 2.85 L7.95 2.8 6.7 2.25 6.95 0.0 11.0 0.0 9.95 2.85" fill="#cccccc" fill-rule="evenodd" stroke="none"/>
  </g>
</svg>
