<svg version="1.1" xmlns="http://www.w3.org/2000/svg" xmlns:xlink="http://www.w3.org/1999/xlink" width="19.06282px"
    height="23.5px" viewBox="0,0,19.06282,23.5">
    <g transform="translate(-229.96859,-167.75)">
        <g data-paper-data="{&quot;isPaintingLayer&quot;:true}" stroke-miterlimit="10" stroke-dashoffset="0"
            style="mix-blend-mode: normal">
            <path d="M232.06859,172.10798l0.9,-4.2l5.25,2.65l-2.05,2.95l-4.1,-1.4" fill="#000000" fill-rule="evenodd"
                stroke="none" stroke-width="1" stroke-linecap="butt" stroke-linejoin="miter" />
            <path d="M241.01859,174.9l-2.8,-4.3l5.1,1.55l1.75,3.8l-4.05,-1.05" fill="#999999" fill-rule="evenodd"
                stroke="#000000" stroke-width="0" stroke-linecap="butt" stroke-linejoin="miter" />
            <path d="M241.0396,174.9l-2.8,-4.3l5.1,1.55l1.75,3.8z" fill="none" fill-rule="nonzero" stroke="#ffffff"
                stroke-width="0" stroke-linecap="round" stroke-linejoin="round" />
            <path d="M231.31859,179.5l-1.35,-5.5l2.15,-1.9l1.75,5.2l-2.55,2.2" fill="#999999" fill-rule="evenodd"
                stroke="none" stroke-width="1" stroke-linecap="butt" stroke-linejoin="miter" />
            <path d="M233.86859,177.35l-1.8,-5.25l4.05,1.45l-2.25,3.8" fill="#666666" fill-rule="evenodd" stroke="none"
                stroke-width="1" stroke-linecap="butt" stroke-linejoin="miter" />
            <path d="M236.11859,173.55l2.1,-3l2.8,4.35l-4.9,-1.35" fill="#666666" fill-rule="evenodd" stroke="none"
                stroke-width="1" stroke-linecap="butt" stroke-linejoin="miter" />
            <path
                d="M232.96859,167.95c0,0 0.03333,-0.01666 0.1,-0.05c0.06667,0 0.13333,-0.01667 0.2,-0.05c0.13333,-0.03333 0.26667,-0.05 0.4,-0.05c0.16666,-0.03333 0.33334,-0.05 0.5,-0.05c0.23334,0 0.46667,0.01667 0.7,0.05c0.26666,0 0.55,0.03333 0.85,0.1c0.3,0.06667 0.61666,0.15 0.95,0.25c0.4,0.13333 0.78333,0.28333 1.15,0.45c0.36667,0.16666 0.73333,0.33334 1.1,0.5c0.33334,0.2 0.68333,0.4 1.05,0.6c0.3,0.2 0.6,0.4 0.9,0.6c0.26666,0.16666 0.53333,0.35 0.8,0.55c0.23334,0.16666 0.46667,0.35 0.7,0.55c0.16666,0.13333 0.33334,0.26667 0.5,0.4c0.1,0.1 0.2,0.18333 0.3,0.25c0.03333,0.03333 0.08334,0.08333 0.15,0.15l-5.1,-1.65l-5.25,-2.6"
                fill="#333333" fill-rule="evenodd" stroke="none" stroke-width="1" stroke-linecap="butt"
                stroke-linejoin="miter" />
            <path
                d="M229.96859,174c0,-0.03333 0,-0.06667 0,-0.1c0,-0.13333 0,-0.25 0,-0.35c0,-0.16666 0.01666,-0.33334 0.05,-0.5c0,-0.2 0.01667,-0.4 0.05,-0.6c0,-0.23334 0.01667,-0.45 0.05,-0.65c0.03333,-0.23334 0.06667,-0.45 0.1,-0.65c0.06667,-0.23334 0.11667,-0.45 0.15,-0.65c0.06667,-0.2 0.13333,-0.36667 0.2,-0.5c0.1,-0.23334 0.21667,-0.45 0.35,-0.65c0.13333,-0.16666 0.26667,-0.31667 0.4,-0.45c0.13333,-0.13333 0.26667,-0.26667 0.4,-0.4c0.13333,-0.1 0.26667,-0.18333 0.4,-0.25c0.1,-0.06667 0.21667,-0.11667 0.35,-0.15c0.1,-0.03333 0.18333,-0.06667 0.25,-0.1c0.06667,-0.03333 0.13333,-0.05 0.2,-0.05c0.03333,0 0.05,0 0.05,0l-0.85,4.25l-2.15,1.8"
                fill="#ffffff" fill-rule="evenodd" stroke="none" stroke-width="1" stroke-linecap="butt"
                stroke-linejoin="miter" />
            <path
                d="M245.06859,176.05l-1.75,-3.9c0,0 0.03333,0.03333 0.1,0.1c0.13333,0.1 0.21667,0.16666 0.25,0.2c0.16666,0.1 0.31667,0.21667 0.45,0.35c0.16666,0.16666 0.33334,0.31667 0.5,0.45c0.23334,0.2 0.45,0.4 0.65,0.6c0.2,0.2 0.41666,0.41666 0.65,0.65c0.23334,0.23334 0.45,0.48334 0.65,0.75c0.23334,0.26666 0.45,0.53334 0.65,0.8c0.1,0.13333 0.2,0.28333 0.3,0.45c0.06667,0.13333 0.15,0.3 0.25,0.5c0.06667,0.2 0.15,0.4 0.25,0.6c0.06667,0.16666 0.13334,0.35 0.2,0.55c0.03333,0.16666 0.08334,0.35 0.15,0.55c0.03333,0.13333 0.08333,0.26667 0.15,0.4c0,0.1 0.01667,0.2 0.05,0.3c0,0.03333 0.01667,0.06667 0.05,0.1l-3.55,-3.45"
                fill="#cccccc" fill-rule="evenodd" stroke="none" stroke-width="1" stroke-linecap="butt"
                stroke-linejoin="miter" />
            <path d="M244.21859,179.5l-3.25,-4.65l4.05,1.1l-0.8,3.55" fill="#cccccc" fill-rule="evenodd" stroke="none"
                stroke-width="1" stroke-linecap="butt" stroke-linejoin="miter" />
            <path d="M236.16859,185.45l2.1,2.95l-5.25,2.65l-0.9,-4.2l4.05,-1.4" fill="#666666" fill-rule="evenodd"
                stroke="none" stroke-width="1" stroke-linecap="butt" stroke-linejoin="miter" />
            <path d="M245.11859,182.95l-1.75,3.9l-5.1,1.55l2.8,-4.3l4.05,-1.15" fill="#000000" fill-rule="evenodd"
                stroke="none" stroke-width="1" stroke-linecap="butt" stroke-linejoin="miter" />
            <path d="M236.16859,185.45l-4.05,1.45l1.8,-5.25l2.25,3.8" fill="#333333" fill-rule="evenodd" stroke="none"
                stroke-width="1" stroke-linecap="butt" stroke-linejoin="miter" />
            <path d="M241.06859,184.1l-2.8,4.35l-2.1,-3l4.9,-1.35" fill="#ffffff" fill-rule="evenodd" stroke="none"
                stroke-width="1" stroke-linecap="butt" stroke-linejoin="miter" />
            <path
                d="M238.21859,188.45l5.1,-1.65c0,0 -0.03333,0.03333 -0.1,0.1c-0.1,0.1 -0.2,0.2 -0.3,0.3c-0.16666,0.13333 -0.35,0.26667 -0.55,0.4c-0.2,0.2 -0.41666,0.38334 -0.65,0.55c-0.26666,0.2 -0.53334,0.38333 -0.8,0.55c-0.3,0.2 -0.61666,0.4 -0.95,0.6c-0.33334,0.2 -0.66666,0.4 -1,0.6c-0.36667,0.2 -0.73333,0.36667 -1.1,0.5c-0.4,0.16666 -0.78333,0.31667 -1.15,0.45c-0.33334,0.1 -0.66666,0.18333 -1,0.25c-0.26666,0.06667 -0.53334,0.1 -0.8,0.1c-0.26666,0.03333 -0.5,0.05 -0.7,0.05c-0.2,0 -0.38334,-0.01667 -0.55,-0.05c-0.13333,0 -0.25,-0.01666 -0.35,-0.05c-0.1,-0.03333 -0.18333,-0.05 -0.25,-0.05c0,-0.03333 -0.01667,-0.05 -0.05,-0.05l5.2,-2.6"
                fill="#333333" fill-rule="evenodd" stroke="none" stroke-width="1" stroke-linecap="butt"
                stroke-linejoin="miter" />
            <path
                d="M232.16859,186.8l0.85,4.25c0,0 -0.01666,0 -0.05,0c-0.06667,0 -0.13334,-0.01667 -0.2,-0.05c-0.1,-0.03333 -0.18333,-0.06667 -0.25,-0.1c-0.13333,-0.03333 -0.25,-0.08334 -0.35,-0.15c-0.13333,-0.06667 -0.26667,-0.15 -0.4,-0.25c-0.13333,-0.13333 -0.26666,-0.25 -0.4,-0.35c-0.13333,-0.16666 -0.26667,-0.33334 -0.4,-0.5c-0.13333,-0.2 -0.25,-0.41666 -0.35,-0.65c-0.06667,-0.13333 -0.13334,-0.3 -0.2,-0.5c-0.06667,-0.2 -0.11667,-0.41666 -0.15,-0.65c-0.03333,-0.2 -0.06667,-0.41666 -0.1,-0.65c-0.03333,-0.2 -0.06667,-0.41666 -0.1,-0.65c0,-0.2 -0.01667,-0.4 -0.05,-0.6c0,-0.16666 0,-0.33334 0,-0.5c0,-0.1 0,-0.21667 0,-0.35c0,-0.03333 0,-0.06667 0,-0.1l2.15,1.8"
                fill="#000000" fill-rule="evenodd" stroke="none" stroke-width="1" stroke-linecap="butt"
                stroke-linejoin="miter" />
            <path
                d="M248.61859,179.5c0,0 -0.01667,0.03333 -0.05,0.1c0.63333,-2.16666 0.61666,-2.06667 -0.05,0.3c-0.06667,0.13333 -0.11666,0.26667 -0.15,0.4c-0.03333,0.2 -0.08334,0.38333 -0.15,0.55c-0.06667,0.2 -0.13334,0.38334 -0.2,0.55c-0.06667,0.2 -0.13333,0.4 -0.2,0.6c-0.1,0.16666 -0.18333,0.33334 -0.25,0.5c-0.1,0.16666 -0.2,0.31667 -0.3,0.45c-0.2,0.26666 -0.41666,0.53334 -0.65,0.8c-0.23334,0.26666 -0.46667,0.51666 -0.7,0.75c-0.2,0.23334 -0.41666,0.45 -0.65,0.65c-0.2,0.2 -0.4,0.4 -0.6,0.6c-0.16666,0.13333 -0.35,0.28333 -0.55,0.45c-0.13333,0.13333 -0.26667,0.25 -0.4,0.35c-0.1,0.06667 -0.2,0.13333 -0.3,0.2c-0.03333,0.03333 -0.06667,0.06667 -0.1,0.1l1.8,-3.9l3.5,-3.45"
                fill="#666666" fill-rule="evenodd" stroke="none" stroke-width="1" stroke-linecap="butt"
                stroke-linejoin="miter" />
            <path d="M245.06859,183.05l-4.05,1.1l3.15,-4.65l0.9,3.55" fill="#cccccc" fill-rule="evenodd" stroke="none"
                stroke-width="1" stroke-linecap="butt" stroke-linejoin="miter" />
            <path d="M233.86859,181.65l-1.75,5.2l-2.1,-1.85l1.3,-5.5l2.55,2.15" fill="#cccccc" fill-rule="evenodd"
                stroke="none" stroke-width="1" stroke-linecap="butt" stroke-linejoin="miter" />
            <path d="M244.16859,179.55l0.85,-3.6l3.6,3.55l-3.6,3.55l-0.85,-3.5" fill="#333333" fill-rule="evenodd"
                stroke="none" stroke-width="1" stroke-linecap="butt" stroke-linejoin="miter" />
            <path d="M244.16859,179.55l0.85,-3.6l3.6,3.55l-3.6,3.55z" fill="none" fill-rule="nonzero" stroke="#000000"
                stroke-width="0" stroke-linecap="round" stroke-linejoin="round" />
            <path d="M236.16859,173.55l4.85,1.3l3.2,4.65l-8.05,-5.95" fill="#999999" fill-rule="evenodd" stroke="none"
                stroke-width="1" stroke-linecap="butt" stroke-linejoin="miter" />
            <path d="M244.21859,179.5l-3.2,4.65l-4.8,1.3l8,-5.95" fill="#333333" fill-rule="evenodd" stroke="none"
                stroke-width="1" stroke-linecap="butt" stroke-linejoin="miter" />
            <path d="M231.31859,179.5l2.55,-2.15l2.25,-3.8l8.1,5.95h-12.9" fill="#000000" fill-rule="evenodd"
                stroke="none" stroke-width="1" stroke-linecap="butt" stroke-linejoin="miter" />
            <path d="M244.21859,179.5l-8.1,5.95l-2.25,-3.8l-2.55,-2.15h12.9" fill="#000000" fill-rule="evenodd"
                stroke="none" stroke-width="1" stroke-linecap="butt" stroke-linejoin="miter" />
        </g>
    </g>
</svg>
